<?xml version="1.0" encoding="utf-8"?>
<!-- Generator: Adobe Illustrator 27.8.1, SVG Export Plug-In . SVG Version: 6.00 Build 0)  -->
<svg version="1.1" id="圖層_1" xmlns="http://www.w3.org/2000/svg" xmlns:xlink="http://www.w3.org/1999/xlink" x="0px" y="0px"
	 viewBox="0 0 819 666.9" style="enable-background:new 0 0 819 666.9;" xml:space="preserve">
<style type="text/css">
	.st0{fill:#E9E0A7;}
	.st1{fill:#509391;}
	.st2{fill:#34594B;}
</style>
<path class="st0" d="M96.9,666.9c7.3-15.1,18.2-39.2,30.6-51.3c21.2-20.8,62.9-21.8,90.9-24.3c46.8-4,111.5,0.7,153.1-25
	c31.1-19.2,58.6-63.6,65.9-98.6c6.2-29.9,2.4-56.7,19.1-84.5c8.7-14.4,19.2-26.5,26.3-41.8c8.9-18.9,13.2-41,24.8-58.8
	c34.9-53.7,115.1,5.9,159.6,19.7c71.6,22.2,113.3-81.8,130.2-133.6c20.3-62.2-19.9-89.8-76.2-108.9C660.9,39.5,595.7,36.5,533,29.5
	c-77.1-8.6-160-40.8-238.3-22.1C203.2,29.2,135,85.7,114.2,177.5C90.5,282.2,56.1,382.5,53.8,491.4c-0.7,35.5-21,144.2,22.8,166.7
	c17,8.7,36-0.8,46-14.8"/>
<path class="st1" d="M293.9,374.2c32.7,0,65.4-0.2,98.1,0.1c11,0.1,24.3-3.6,31,8.7c7.6,13.8-1.9,25.5-9,35.9
	c-29.5,43.3-77.7,54.6-123.7,61.6c-93.6,14.4-181.6-8.2-263-56c-12.4-7.3-30.3-14.7-26.9-30.8c3.3-15.9,22.3-10.2,34.1-9.6
	C121.3,387.9,207.1,368.4,293.9,374.2z"/>
<g>
	<g>
		<path class="st2" d="M745.5,302c-21.2-26.1,5.3-53.7,16.6-77.1c8.2-17.1,8.1-33.5,3.4-51.6c-7.1-27.4-13.9-50.6-10.4-79.4
			c3-24.7,8.8-48.9,6.1-73.9c-0.3-2.4-4.1-2.5-3.9,0c2.5,29.6-5.9,57.7-7.6,87c-1.6,26.5,8.2,48.1,13.4,73.5
			c6.8,32.7-12.8,50.3-23.9,78.1c-6.2,15.5-6.9,32.2,4.5,45.2C744.8,305,746.5,303.3,745.5,302L745.5,302z"/>
	</g>
	<g>
		<path class="st2" d="M761.4,303.6c-17.1-29.4,11.3-53.4,22.3-78.5c9.1-20.5,4.8-40.3-2.4-60.7c-10.2-29-15.9-52.6-10.7-83.6
			c3.8-22.9,8.7-44.8,4.3-68c-0.4-2.3-3.9-1.3-3.5,1c5.8,30.4-5.6,58.9-7.1,89.1c-1.2,24.5,8.1,45.3,15.7,68.1
			c5.2,15.6,8.3,31.4,2.9,47.5c-4.7,13.8-14.7,24.9-21.5,37.7c-8.2,15.6-12.3,33.1-2.1,48.6C760.1,306.1,762.2,305,761.4,303.6
			L761.4,303.6z"/>
	</g>
	<g>
		<path class="st2" d="M782.5,305.6c-15.1-31.5,8.7-59.1,17.3-88.4c6.2-21.3,0.4-38.2-8-57.8c-22.3-52.6,4.8-104.3-6-158
			c-0.5-2.4-4.2-1.4-3.7,1c10.5,51.5-16.2,102.8,4.2,153.2c6,14.8,13.8,28.9,13,45.4c-0.9,17.5-10.1,32.9-16.6,48.6
			c-7.8,18.9-12.5,38.5-2.4,57.3C781,308.4,783.2,307.1,782.5,305.6L782.5,305.6z"/>
	</g>
	<g>
		<path class="st2" d="M803.6,305.9c-15.1-29.7,3.8-57.7,12.2-86c6.5-21.9,2.6-40.9-5.4-61.8c-10.9-28.2-16.9-50.3-10.2-81
			c5-23.1,11.9-44.7,6.9-68.5c-0.5-2.5-4.4-1.5-3.9,1.1c6.2,29.6-7.2,56.5-10.2,85.5c-2.7,25.4,7.3,46.2,15.8,69.5
			c5.3,14.7,8.7,29.6,5.8,45.3c-2.6,14.5-9.4,27.8-14.1,41.6c-6.3,18.8-9,37.7,1.4,55.4C802.5,308,804.2,307,803.6,305.9
			L803.6,305.9z"/>
	</g>
</g>
</svg>
