<?xml version="1.0" encoding="utf-8"?>
<!-- Generator: Adobe Illustrator 27.8.1, SVG Export Plug-In . SVG Version: 6.00 Build 0)  -->
<svg version="1.1" id="圖層_1" xmlns="http://www.w3.org/2000/svg" xmlns:xlink="http://www.w3.org/1999/xlink" x="0px" y="0px"
	 viewBox="0 0 3156.3 10992.3" style="enable-background:new 0 0 3156.3 10992.3;" xml:space="preserve">
<style type="text/css">
	.st0{fill:#E9E0A7;}
	.st1{fill:#FFFFFF;}
	.st2{fill:#91D0BA;}
	.st3{fill:none;stroke:#34594B;stroke-width:0.7785;stroke-miterlimit:10;}
	.st4{fill:#509391;}
	.st5{fill:#54824D;}
	.st6{fill:none;stroke:#34594B;stroke-width:0.25;stroke-miterlimit:10;}
	.st7{fill:none;stroke:#FFFFFF;stroke-width:1.5;stroke-miterlimit:10;}
	.st8{fill:#34594B;}
</style>
<g>
	<path class="st0" d="M696.6,9011.7c11,1.6,20.7,5.9,20.4,19c-0.3,11.5-8.2,18.3-19.3,18.6c-13.1,0.3-18.2-9.5-19.1-20.7
		C677.5,9016.7,685.6,9012.5,696.6,9011.7z"/>
	<path class="st0" d="M483.7,9192.1c-9.9-2.9-22.2-3.7-22.2-17.5c0-11.7,7.4-19.9,19.6-20.2c11.9-0.3,18,7.5,18.6,18.7
		C500.3,9183.6,495,9190.5,483.7,9192.1z"/>
	<path class="st0" d="M506.2,9095.4c11.8,1.9,22.7,5.4,22.9,19.4c0.1,11.4-7.5,18.8-18.6,19.1c-13.8,0.4-18.9-10.1-20.2-21.8
		C489.1,9101.2,496.8,9097,506.2,9095.4z"/>
	<path class="st0" d="M620.2,9004.1c-13.1-1-28.8-14.5-27.3-23.7c1.4-8.6,6.4-15.1,16.1-15.2c9.7-0.2,26.4,17.3,26,27.1
		C634.5,9002.3,627.5,9004.1,620.2,9004.1z"/>
	<path class="st0" d="M573.9,9205c-1.4,11.2-5.8,19.3-17.3,18.2c-10.4-1-21.9-3.9-21.2-17.8c0.6-11.9,8.4-19.3,20.4-19.2
		C567.8,9186.3,572.1,9195.2,573.9,9205z"/>
	<path class="st0" d="M541.6,9010.4c12-0.4,26,10.2,26.3,20.5c0.4,11.3-6.1,17.1-16.9,17.4c-10.5,0.3-21.9-13-22-24.9
		C529,9014.9,533.3,9010.7,541.6,9010.4z"/>
	<path class="st0" d="M639.5,9109.1c-0.2-8.3,3.4-13,12-13.5c12.4-0.7,27.6,11.1,26.9,21.7c-0.6,10.1-6.8,15.6-16.7,16.3
		C651.2,9134.3,639.9,9121.5,639.5,9109.1z"/>
	<path class="st0" d="M449.7,9058.1c-15,0-32.1-13-31-22.9c1-9.3,6.3-16.3,16.6-16.8c11-0.6,26.8,16.7,26.2,28.2
		C461.1,9055.6,455.2,9058,449.7,9058.1z"/>
	<path class="st0" d="M614.3,9164.2c10.6,1.6,21.5,4.4,21.7,18.7c0.1,9.2-5.2,15.1-15,15.5c-9.6,0.4-22.9-13.3-22.1-22.8
		C599.6,9166.8,606,9164.6,614.3,9164.2z"/>
	<path class="st0" d="M740.5,9128.1c10,1.5,20.1,4.6,20.4,17.9c0.2,10.2-5.5,16.8-16.1,15.7c-12.6-1.3-19.3-10.5-20.5-22
		C723.2,9129.6,731.6,9128.1,740.5,9128.1z"/>
	<path class="st0" d="M591.6,9069.5c9.2,1.2,19.1,1.6,19.3,12.2c0.2,11.3-9.7,13.3-18.7,13.7c-8.9,0.4-17.5-3.1-17.5-12.9
		C574.7,9072.1,584.5,9071.1,591.6,9069.5z"/>
	<path class="st0" d="M677.4,9256.8c-9.7-1.1-18.6-3.6-18.4-13.3c0.2-10.9,10.2-12.9,19-12.7c8.1,0.2,17.8,1.7,17.3,12.3
		C694.9,9254,684.6,9254.8,677.4,9256.8z"/>
</g>
<path class="st0" d="M2672.5,11114.6c-78.7,3.7-136.1-57.3-167.3-128.5c-34.1-77.7-34.3-173,12.4-243.9
	c24.6-37.3,60.6-66.6,81.1-106.3c28.5-55.3,22.3-122.2,5.5-182.1c-16.8-59.9-43.2-117.2-53.9-178.5
	c-18.7-106.9,14.9-221.8,88.3-301.8c36.9-40.2,187.1-158,241-89.5c7.8,9.9,10.5,22.8,13,35.2c6.4,32.7,12.4,65.4,17.9,98.2
	c8.9,52.5,16.6,105.4,17.1,158.7c0.5,49.2-5.2,98.2-9,147.2c-13.2,173-2,348.2-31.2,519.2c-9.7,56.8-24.2,113.7-53.7,163.1
	c-29.5,49.4-75.8,91-131.7,104.5C2691.8,11112.7,2682,11114.1,2672.5,11114.6z"/>
<path class="st1" d="M2777.5,10590.2c-91.5-17.6-188.6,8.7-261.2,66.3c-53.2,42.1-149.4,126.2-85.1,196.3
	c18.2,19.8,45.1,29.7,71.9,32.4c37.1,3.7,69.8-3.9,106.6,3.5c40.8,8.3,80.7,23,117.6,42.1c41.1,21.2,79.2,48.3,122.6,64.1
	s95.2,18.4,133-8.1c52-36.4,57.8-112.8,39.9-173.7C2990,10701.6,2891.6,10612.2,2777.5,10590.2z"/>
<path class="st2" d="M546.3,11077.4c-137.4,4-216.9-42.9-214-165.9c4-167.3,35.8-333.1,67.4-498.1c5.8-30.4,12.2-62,32.5-87.2
	s58.8-42,91.4-30.5c26.5,9.4,41.8,34.6,46.3,59.3c4.5,24.7,0.5,50-0.1,75.1c-1.9,88.7,43,177.4,119.4,235.7
	c27.8,21.2,59.5,38.6,83.8,62.9c46.3,46.4,44.3,162.7,16.8,217.2C749.3,11026.5,646.9,11074.4,546.3,11077.4z"/>
<g>
	<path class="st1" d="M445,10896.3c-1.7,10.1-6.2,19-19.9,18.8c-12.1-0.2-19.2-7.6-19.5-17.8c-0.3-12,10-16.7,21.7-17.6
		C439.8,10878.8,444.2,10886.2,445,10896.3z"/>
	<path class="st1" d="M255.9,10700.6c3-9.1,3.9-20.5,18.4-20.4c12.2,0,20.8,6.8,21.2,18c0.4,10.9-7.8,16.5-19.6,17.1
		C264.8,10715.8,257.6,10710.9,255.9,10700.6z"/>
	<path class="st1" d="M357.3,10721.3c-2,10.8-5.7,20.9-20.4,21.1c-12,0.1-19.7-6.9-20.1-17.1c-0.4-12.7,10.6-17.4,22.9-18.6
		C351.2,10705.5,355.6,10712.6,357.3,10721.3z"/>
	<path class="st1" d="M453,10826.1c1-12.1,15.2-26.5,24.8-25.1c9,1.3,15.8,5.9,16,14.8c0.2,9-18.1,24.3-28.4,23.9
		C454.9,10839.2,453,10832.8,453,10826.1z"/>
	<path class="st1" d="M242.4,10783.4c-11.7-1.2-20.3-5.3-19.1-15.9c1-9.5,4.1-20.1,18.6-19.5c12.5,0.5,20.2,7.8,20.2,18.8
		C262,10777.9,252.7,10781.8,242.4,10783.4z"/>
	<path class="st1" d="M446.4,10753.8c0.4,11-10.7,23.9-21.5,24.2c-11.8,0.3-17.9-5.6-18.3-15.5c-0.4-9.7,13.6-20.1,26.1-20.2
		C441.6,10742.2,446.1,10746.2,446.4,10753.8z"/>
	<path class="st1" d="M342.9,10843.8c8.7-0.2,13.6,3.1,14.1,11c0.7,11.4-11.7,25.3-22.7,24.7c-10.6-0.6-16.4-6.3-17.1-15.4
		C316.5,10854.5,329.9,10844.1,342.9,10843.8z"/>
	<path class="st1" d="M396.3,10669.3c-0.1-13.8,13.7-29.5,24-28.5c9.8,0.9,17.1,5.8,17.7,15.3c0.6,10.1-17.5,24.6-29.5,24.1
		C399,10679.7,396.5,10674.3,396.3,10669.3z"/>
	<path class="st1" d="M285.2,10820.7c-1.7,9.7-4.6,19.8-19.6,20c-9.6,0.1-15.9-4.8-16.3-13.8c-0.4-8.8,14-21,23.9-20.4
		C282.5,10807.1,284.7,10813,285.2,10820.7z"/>
	<path class="st1" d="M323,10936.7c-1.6,9.2-4.8,18.5-18.8,18.8c-10.6,0.2-17.6-5.1-16.5-14.8c1.3-11.6,11-17.7,23.1-18.9
		C321.4,10920.8,323,10928.5,323,10936.7z"/>
	<path class="st1" d="M384.5,10799.8c-1.3,8.4-1.7,17.5-12.8,17.7c-11.9,0.2-13.9-8.9-14.3-17.2c-0.4-8.2,3.3-16.1,13.6-16.1
		C381.7,10784.2,382.8,10793.2,384.5,10799.8z"/>
	<path class="st1" d="M188.1,10878.6c1.1-8.9,3.8-17.1,14-16.9c11.4,0.2,13.5,9.4,13.3,17.5c-0.2,7.4-1.8,16.3-12.9,15.9
		C191,10894.8,190.1,10885.3,188.1,10878.6z"/>
</g>
<g>
	<g>
		<path class="st3" d="M2713.5,10811.5c-12.8,7.5-25.1,15.7-36.8,24.7c-11.6,8.8-22.4,18.6-33,28.5c-14.8,15.2-28.8,31.1-40.9,48.6
			c-2.8,4.1-5.5,8.2-8.2,12.3c-0.5,0.7-0.9,1.6-1.8,1.4c-1.2-0.3-0.4-1.3-0.4-2c-0.8-14.5-2.7-28.8-5.3-43.1
			c-4.1-22.7-9.9-45-15.4-67.4c-0.3-1.3-0.5-2.5-0.8-3.8c-4-15.7-8-31.4-11.9-47.2c-0.1-0.4,0.2-0.9,0.3-1.3
			c-2.7-6-3.4-12.4-4.2-18.8c-1.5-11.9-0.9-23.9-1.3-35.8c-0.3-8.9,2.4-16.8,5.1-24.9c1.3-4.9,2.4-9.8,3.2-14.7
			c2.8-17.7,2.4-35.6,1.4-53.4c-1.1-20.3-2.2-40.6-6.8-60.5c-2.1-9-4.6-17.9-9-26.8c-1.2,2.5-2.1,4.5-3,6.5
			c-11.9,28.1-14.7,57.4-11.6,87.4c1.2,11.6,3.3,23,5.8,34.4c2.4,10.4,5.6,20.6,8.5,30.9c2.9,7.7,5.3,15.2,4.8,23.8
			c-1.1,16.3,0.2,32.6,3.9,48.6c0.3,1.2,0.2,2.6,0.4,3.8c3.1,9.7,5.1,19.7,7.4,29.6c-4.7-9.3-10-18.3-13.9-27.9
			c-4.3-6.9-7.6-14.2-11.2-21.5c-8-16.4-17.3-32-30-45.2c-7-6.8-14.7-12.8-22.5-18.7c-5.1-2.3-9.5-6.1-15.1-7.8
			c0.1,9.9,2.7,18.9,5.3,28c1.2,2.1,2.1,4.3,2.6,6.7c0.9,1.7,1.8,3.3,2.6,5c8.3,17.1,20,31.6,32.7,45.5c3.9,4.2,8.4,7.8,11.7,12.6
			c5.1,3.8,9.1,8.8,13.7,13.1c8,7.7,16.1,15.1,25.8,20.7c1.1,0.6,1.8,1.4,2.1,2.6c5.4,21.9,11.2,43.7,15.8,66.3
			c-1.9-1.2-2.5-3.1-3.5-4.5c-12.5-17.8-28.4-32.6-43.6-47.9c-11.4-11.4-23.6-21.9-37.5-30.3c-9-5.5-18.4-10-28.2-13.6
			c-1.2-0.4-2.5-0.6-3.4-1.6c-3.8-0.3-7.1-2-10.8-2.9c-6.6-1.5-6.6-1.6-4.6,5.1c0.2,0.7,0.3,1.4,0.4,2.1c1.5,2.9,2.9,5.8,4.6,8.6
			c7.2,12.4,17.3,22.2,27.4,32.1c14.3,14.1,28.9,27.6,46.9,37.1c16.1,8.5,33.2,14.5,50.4,20.1c2.3,0.8,3.3,1.9,3.7,4.3
			c2.1,12,4.1,24.1,5.1,36.3c0.4,4.7,0.7,9.4,1,14.9c-1-0.9-1.4-1.1-1.7-1.5c-12.6-17.5-29.4-30-48.5-39.4
			c-28.6-14.1-59.1-22.8-89.6-31.1c-4.5-1.2-9.1-2.3-14.6-2.6c25.7,28.6,53.9,52.7,87.8,69.3c20.5,10,41.8,14.2,64.2,6.9
			c1.7-0.6,2.3,0,2.4,1.7c0.1,1.6-0.7,3.4,0.7,4.8c-1.4,0.7-0.6,1.9-0.6,2.9c-0.2,15.2-1.6,30.4-5,45.2c-1.3,5.4-2.8,10.8-4.2,16.3
			c0.5-0.1,0.9-0.3,1.4-0.4c-0.5-0.9,0.1-1.6,0.3-2.3c5.9-18.9,8.5-38.3,8.7-58.1c0-1.2,0.6-2.5-0.5-3.5c1-0.6,0.7-1.6,0.5-2.4
			c-0.5-2.8,0.8-3.6,3.3-3.7c16.4-0.9,30.7-7.2,44.1-16.3c6.1-4.2,11.5-9.2,17.2-14c0.4-0.4,0.7-0.9,1.1-1.3
			c18.3-19.3,35.4-39.6,48.1-63.1c4.8-8.8,8-18.2,9.5-28.1C2714.7,10810.4,2714.1,10811.1,2713.5,10811.5z"/>
		<path class="st3" d="M2587.2,10754.9c-5.6,14.6-11.3,29.1-16.9,43.7c-0.3,0.9-0.7,1.8-0.8,2.7c0,0.6,0.3,1.5,0.7,1.9
			c0.7,0.6,1.2-0.3,1.7-0.6c2.6-1.9,5.2-3.9,7.9-5.9c1.2-1.5,2.7-2.7,4.3-3.7c14.4-13.6,26.5-29.2,38.2-45c0.7-0.9,1.4-1.9,2.7-2.2
			c-0.7-1.3,0.4-1.9,1-2.7c7.1-9.4,11.3-20.1,14.1-31.5c2.4-9.8,4.4-19.8,6-29.7c0.8-5.1,0.8-10.7,2.1-15.7c0.8-2.8,3.2-5.7,2.6-8.7
			c-7.4-0.3-10.9,6.7-14.9,11.5c-5.3,6.4-10.9,12.2-15.6,19.1c-7.4,10.8-13.3,22.5-18.4,34.6
			C2597.3,10733.5,2592.1,10744.1,2587.2,10754.9z"/>
		<path class="st3" d="M2610.8,10807.7l0.3,0.2c0,0,0,0,0,0c0,0,0,0,0,0L2610.8,10807.7z"/>
		<path class="st3" d="M2613.5,10804c-0.5,1.4-1.3,2.7-2.4,3.9c-5,9.8-10.2,19.5-13.8,30c-3.7,10.6-6.3,21.4-7.2,32.5
			c-0.1,1.2-0.1,2.3-0.8,3.5c5.1-1.9,9.4-4.7,13.8-7.4c10.2-6.4,19.2-14.2,28-22.3c0.4-0.5,0.7-0.9,1.1-1.4
			c26.3-27.6,42.6-60,46.6-98.2c-0.2-3.6-0.4-7.2-1.7-10.7c-0.7-2-1.5-2.3-3.1-0.7c-3.5,3.6-7.1,7.1-10.6,10.7
			C2645.1,10762.5,2627.6,10781.9,2613.5,10804z"/>
	</g>
	<path class="st3" d="M2571.1,10799.9c7.1-14.4,20.9-24.4,29.9-37.7c14.2-20.9,15.8-48.2,29.2-69.7"/>
	<path class="st3" d="M2589.1,10874.1c8.5-9.5,17-19,24.5-29.3c19-25.8,32.1-56.6,56.3-77.6"/>
	<path class="st3" d="M2596.2,10930c18-6.8,32.6-20.3,45.6-34.5c13-14.1,25.2-29.3,40.6-40.9"/>
	<path class="st3" d="M2591.6,10931.5c-6.8,0.7-13.3-2.4-19.4-5.4c-31.5-15.4-63.3-29.9-95.6-43.6"/>
	<path class="st3" d="M2585.1,10873.7c-13.5-2.3-24.9-11.2-35.7-19.8c-23.7-19-47.5-37.9-71.2-56.9"/>
	<path class="st3" d="M2566.2,10797.5c-13.9-7.2-24.2-19.6-33.1-32.4c-3.7-5.4-7.3-10.9-10.8-16.5c-10-15.7-20-31.4-30-47"/>
	<path class="st3" d="M2552.5,10691.3c-0.7-44.7-2.3-89.4-5-134.1"/>
</g>
<g>
	<path class="st3" d="M826.6,10699.6c-2.3-1.6-7.5-1.8-10.5-2.3c-8.2-1.4-17.1,0.2-25.2,1.7c-15.1,2.8-28.3,7.6-41.5,14.6
		c-9.1,4.8-19.4,9.9-27.4,16c-3.5,2.7-7.6,6.7-9.1,10.7c-48.2,26.4-88.9,59.3-118.3,102c0.1-1.6,0.3-3.2,0.4-4.8
		c2.8-28.8,6.1-57.5,7.6-86.4c8.3-21.5,24.4-41.2,39.5-59.1c19.1-22.7,40.7-43.5,64.7-62.3c4.1-1,7.9-2.4,12.1-3.6
		c7-2.1,13.8-4.3,20.7-6.7c4.6-1.6,9.1-3.5,13.7-5.3c5.9-2.3,12.3-4.4,17.9-7.3c6.2-3.2,25.8-13.2,19.8-22.4
		c-1.6-2.5-4.2-2.1-6.9-1.7c-9.5,1.7-18.6,4.5-27.7,7.5c-12.3,4.1-24.7,10.5-33.7,19.1c-4,3.8-7.9,7.6-11.9,11.4
		c-1.8,1.7-4.3,3.5-5.4,5.7c-0.2,0.1-0.4,0.2-0.6,0.3c-23.9,19.6-46.1,40.6-65.4,63.8c-14,16.8-28.3,34.8-36.6,54.5
		c0.2-5.6,0.4-11.2,0.5-16.8c0.5-39,6.9-76,15.5-114.1c2.9-2.6,7.5-4.8,10.3-7.5c6.8-6.5,11.3-13.5,14.4-22c4.3-12,8.7-24.3,7.6-37
		c-1-10.8-3.1-25.2-10.4-34.3c-1.7,3.3-4.3,6.1-6.9,8.9c-4.9,5.2-9.2,10.1-13,16c-6.2,9.5-10.9,20.5-11,31.6
		c-0.1,9.8,0.3,19.5,2.3,29.2c0.9,4.4,2.6,8.4,4.1,12.6c0.1,0.2,0.1,0.3,0.1,0.5c0,0,0,0,0,0c-6.8,25.6-10.9,51.3-13.8,77.1
		c-4.7-11.2-8-22.9-16.1-32.6c-9.7-11.5-22.8-20.9-34.2-31c-1.5-3-2.6-8.4-2.7-9.3c-1.3-7-1.2-15.2-4.6-21.6
		c-6.2-11.5-15.9-21.9-26.8-30.3c-7.5-5.8-17.2-10.4-26.7-12.8c0.5,1.7,0.3,3.7,0.4,5.5c0.3,3.5,1.2,7,1.8,10.5
		c1.3,8.1,3.5,15.7,8.7,22.6c8.1,11.1,20.4,21,32.9,28.3c4.3,2.5,9.4,3.5,13.8,5.9c1,0.5,1.9,1.3,2.9,1.9
		c11.4,10.5,24.8,21.1,33.9,33.1c7.9,10.4,9.8,23.1,15.8,34.3c0.1,0.2,0.3,0.3,0.5,0.4c-4.8,45.1-6,90.6-10.6,136.1
		c-1.9,18.3-3.6,36.6-5,55.1c-7.9-14.7-16.2-29.3-27.5-42.3c-12.4-14.2-28.5-23.4-44.3-34.5c-0.6-0.4-1.3-0.9-1.9-1.3
		c-14.9-28.6-24.1-57.5-28.2-88.8c0.8-4.6,2.4-9.3,3.5-13.9c1.5-6.1,3.1-12.4,4.2-18.6c1.4-8.5,0.3-18.9-1.7-27.3
		c-1.6-6.5-3.6-13.7-7-19.6c-1.6-2.8-4.1-8.4-8.2-8.9c-3.7-0.5-5.8,3.7-7.1,6.1c-4.5,8.1-7.3,15.5-7.3,24.6
		c0,12.2,2.3,23.2,7.7,34.4c3.8,8.1,8.5,15.6,13,23.3c3,29.7,11.9,58.6,26.5,85.5c-28.4-19.3-56.3-34-92.8-39.4
		c-1-2.5-3.2-4.9-5.1-6.8c-4.1-4.4-8.4-8.8-12.7-13c-8.7-8.5-20.2-15.2-31.6-20.4c-5.4-2.5-11.7-4.1-17.6-5.6
		c-4.7-1.1-11.3-3.1-16.2-2.6c-0.1,15,7.2,27.8,21.1,37c11,7.2,21.5,13.2,35.7,13.2c7.9,0,16.1,0.4,24-0.5c0.1,0.1,0.2,0.2,0.3,0.2
		c39.1,6.6,67.3,22.8,97.7,43.1c0.1,0.1,0.3,0.2,0.4,0.3c2.2,1.5,4.4,3,6.7,4.5c15.3,10.4,29.3,19.8,40.8,33.2
		c-35.4-7.3-70.8-7.8-106.5-1.9c0,0,0,0-0.1,0c-0.1-0.1-0.2-0.3-0.4-0.4c-2.1-1.2-5.4-1-7.7-1.2c-4.8-0.4-9.5-0.3-14.3,0.2
		c-9.3,0.8-18.5,2.7-27.6,4.5c-11,2.1-23.8,6.2-31.4,13.8c5.5,5,12.6,6.2,20.6,6.7c7.7,0.5,15-0.2,22.6-1.3c6-0.9,12.4-1.2,17.5-4.3
		c5.5-3.4,10.7-7.5,15.9-11.2c1.3-1,5.6-3.7,5.5-5.8c35.8-5.6,71.7-4.5,107.1,2.8c0.2,0,0.3,0,0.5-0.1c0.6,0.7,1.2,1.4,1.8,2.2
		c9.4,12.2,16.6,25.6,23.6,39c-4.2,57.7-5.2,116,2.9,173.1c0.3,1.8,3.4,1.9,3.3,0c-5.1-72.9-4.4-145,2.2-217.8
		c29.4-42.2,70-79,120-102.4c3,1.2,8.8,1.7,11.5,1.7c10.9,0,21.7-1.2,32.5-2.3c15.7-1.5,30.2-4.2,44.8-9.7
		c11.9-4.5,20.7-12.1,24.5-23.2C828.6,10707.4,829.9,10701.9,826.6,10699.6z"/>
	<path class="st3" d="M712,10626.1c5.1-6.4,11.9-11.8,19.7-15.6c12.6-6.3,27.8-8.6,39.1-16.6"/>
	<path class="st3" d="M713.7,10742.1c11.6-9.5,28.7-11.2,43.9-15c15.4-3.9,29.9-10.6,42.4-19.5"/>
	<path class="st3" d="M452.2,10846.7c-3.1,0.2-5.6,2-8,3.7c-7.1,5-15.1,9.5-24.1,10.9c-8,1.2-16.2-0.2-24.3,0.4"/>
	<path class="st3" d="M412.7,10762.6c-11.8-1.3-22.1-7.2-32-12.9c-7.2-4.2-14.4-8.3-21.7-12.5c-2.4-1.4-4.9-2.8-6.4-5"/>
	<path class="st3" d="M482.7,10712.7c-1.9-5.4-3.7-10.9-5.6-16.3c-1.2-3.6-2.5-7.2-3-10.9c-0.7-4.5-0.3-9,0-13.6
		c0.5-7,1.1-14,1.6-21"/>
	<path class="st3" d="M547.5,10619.3c-6.2-3.7-12.6-7.5-16.6-13c-1.5-2-2.6-4.3-3.8-6.4c-5.2-9.4-12.2-18.1-20.6-25.6"/>
	<path class="st3" d="M619.2,10611.1c2.6-9,2.6-18.5,4.2-27.7c3-17.1,11.1-33.5,11.1-50.8"/>
</g>
<g>
	<path class="st4" d="M2211.2,3552.3c2.8-4.2,12.4-2.7,28,0.1c6.5,1.2,12.7,2.3,15.8,2.2c25.5-1.2,55.8-7.9,79.1-17.5
		c12.1-5,24.7-8.9,36.9-12.8c17.1-5.4,34.7-11,50.9-19.2c15.5-7.9,29.8-18.5,42.5-31.6c3.4-3.5,7.1-7.1,10.9-10.7
		c8.7-8.4,17.7-17.1,24.3-26.2c25.5-35.5,46.8-100.9,47.5-145.9l0.2-11.2c0.7-41.6,1.4-84.7-7.4-124.5
		c-6.5-29.3-16.9-67.1-39.9-99.1l-3.3-4.6c-13.5-18.8-27.5-38.3-39.5-58.5c-2.1-3.5-4.1-7-6.1-10.5c-6.7-11.8-13.7-24-22.8-33.7
		c-48.4-51.6-132.9-57.9-157.6-58.7l0.2-4.5c25.1,0.7,110.7,7.1,160.1,59.8c9.4,10.1,16.5,22.5,23.4,34.5c2,3.5,4,7,6,10.4
		c11.9,20,25.8,39.4,39.3,58.1l3.3,4.6c23.4,32.7,34,71,40.6,100.8c9,40.4,8.2,83.8,7.5,125.7l-0.2,11.2
		c-0.7,45.8-22.4,112.6-48.4,148.7c-6.8,9.5-15.9,18.3-24.8,26.8c-3.7,3.6-7.4,7.2-10.8,10.6c-13,13.4-27.7,24.4-43.5,32.4
		c-16.5,8.4-34.3,14-51.5,19.5c-12.1,3.8-24.7,7.8-36.6,12.7c-23.6,9.7-54.4,16.5-80.2,17.7c-3.5,0.2-9.9-1-16.6-2.2
		c-7.8-1.4-22.4-4.1-24.3-1.9L2211.2,3552.3z"/>
	<path class="st4" d="M2259.5,3268l0.4-4.4c11.7,1.2,22.7-2.1,29.3-8.8c5-5,7.6-11.8,7.8-20.1c0.3-11.7-5.1-28.4-13.5-34.7
		c-4.3-3.2-9.1-3.6-14.2-0.9l-1.6-4.1c6.3-3.2,12.5-2.8,17.9,1.3c9.8,7.3,15.5,25.7,15.2,38.5c-0.2,9.6-3.3,17.5-9.1,23.4
		C2284.3,3265.8,2272.5,3269.4,2259.5,3268z"/>
	<path class="st4" d="M2259.6,3301.2l1-4.3c12.1,3.3,24.9-6.6,35.2-14.5c1.4-1.1,2.8-2.2,4.1-3.2c16.1-12,17.7-25.6,15.1-49.5
		c-1.5-13.8-13.2-51-29.1-60.5c-4.8-2.9-9.5-2.9-14.2-0.2l-1.7-4c5.9-3.4,11.9-3.4,17.8,0.2c16.8,10,29.3,47.4,31.1,63.8
		c2.7,25.3,0.9,40.6-16.9,53.9c-1.3,1-2.7,2-4.1,3.1C2287,3294.4,2273.4,3304.9,2259.6,3301.2z"/>
	<path class="st4" d="M2247.3,3327.5l0.6-4.4c17.1,2.5,37.8-1.1,54-9.6c24.2-12.6,36-24.5,37.4-58.2c1.5-33.6-2.6-112.4-73-118
		l0.3-4.4c51.9,4.2,79.9,48.9,76.6,122.6c-1.6,35.8-14.6,49.1-39.7,62.1C2286.6,3326.3,2265.1,3330.1,2247.3,3327.5z"/>
	<path class="st4" d="M2235.3,3361.4c31.7-5.6,62.5-19.9,82.4-38.3c26.5-24.3,35.6-49.8,31.6-88.1c-0.5-5-1-10.4-1.4-16
		c-2.2-26-4.9-58.3-16.9-77.9c-15.1-24.6-41.2-40.4-70-42.1l0.3-4.5c29.9,1.8,57.2,18.2,72.9,43.9c12.5,20.5,15.3,53.5,17.5,80
		c0.5,5.6,0.9,11,1.4,15.9c4.2,40.1-5.4,66.8-33.1,92.2c-20.5,18.8-52,33.4-84.3,39.2L2235.3,3361.4z"/>
	<path class="st4" d="M2233.1,3385.6c4.5-2.3,10.3-3.2,15.9-4.1c5.1-0.8,10.4-1.6,14.7-3.5c6.6-2.9,13.4-7,19.9-11
		c3.9-2.4,7.9-4.8,11.9-7c22.7-12.5,53.9-33.8,73.8-64.6c12.7-19.7,15.3-52.2,6.9-86.7c-0.9-3.6-1.8-7.3-2.6-11.1
		c-7.4-31.6-15.1-64.3-38.5-83.6l-2.9-2.4c-22-18.2-46.9-38.8-74.4-40l0.2-4.5c28.7,1.2,54.1,22.3,76.5,40.9l2.9,2.4
		c24.4,20.2,32.3,53.7,39.9,86c0.9,3.7,1.7,7.4,2.6,11c8.7,35.9,5.9,69.7-7.5,90.6c-20.4,31.6-52.2,53.4-75.3,66
		c-3.8,2.1-7.8,4.5-11.7,6.9c-6.7,4.1-13.6,8.3-20.4,11.3c-4.7,2.1-10.2,2.9-15.6,3.7c-5.6,0.9-10.8,1.7-14.8,3.7L2233.1,3385.6z"/>
	<path class="st4" d="M2218.6,3413.8c1-1.3,4-2.1,18.9-4.9c5-1,9.8-1.9,12.2-2.6c6.5-1.8,12.9-2.9,19.1-4.1
		c13.4-2.5,26.1-4.8,38.9-12.7c50.3-30.7,79.3-59.1,88.9-86.7c9.5-27.3,7.7-72.8,1.2-103.6c-9.9-46.1-21.3-90.1-52.8-121.1
		c-10.9-10.7-24.5-16.7-37.6-21.8c-12.6-5-36.2-13.4-52.8-13.6l0.1-4.5c17.1,0.3,41.2,8.8,54,13.8c13.4,5.3,27.4,11.4,38.8,22.6
		c32.2,31.9,44.3,78.4,54,123.4c6.7,31.5,8.5,78.1-1.3,106.3c-10,28.7-39.6,57.8-90.8,89.1c-13.4,8.2-26.4,10.6-40.1,13.1
		c-6.1,1.1-12.4,2.3-18.8,4c-2.6,0.7-7.4,1.6-12.5,2.6c-6.2,1.2-15.5,3-16.9,3.8L2218.6,3413.8z"/>
	<path class="st4" d="M2220.7,3434.4c13.3-3.3,27.6-5.6,42.7-8c17.7-2.9,35.9-5.8,52.5-10.5c58.7-16.5,97.6-49.5,115.6-98
		c14.6-39.4-2.8-96.8-15.4-138.8c-1.1-3.6-2.2-7.1-3.1-10.5c-1-3.4-2.1-7.1-3.2-10.8c-10.3-35.6-24.4-84.4-51.5-102
		c-27-17.5-72-39-106.9-44.9l0.6-4.4c35.5,6,81,27.8,108.3,45.5c28.4,18.4,42.8,68.1,53.3,104.4c1.1,3.8,2.1,7.4,3.2,10.8
		c1,3.4,2.1,6.8,3.1,10.5c12.9,42.6,30.5,101,15.3,142c-18.5,49.9-58.3,83.8-118.3,100.7c-16.8,4.7-35.2,7.7-52.9,10.6
		c-15,2.4-29.2,4.7-42.4,8L2220.7,3434.4z"/>
	<path class="st4" d="M2210.4,3453.2l3.6-0.3c38.2-3.5,74.3-6.9,112.5-19.7l6.1-2c19.4-6.4,37.7-12.5,54.4-26.4
		c17.2-14.4,29.9-30,43.5-47.5l0.6-0.8c13-16.8,22.5-28.9,25.1-51.7c3-26.3-0.8-52.6-4.5-78.1l-1.2-8.4
		c-7.8-54.8-18.4-129.9-58.9-176.6c-2.2-2.6-4.5-5.3-6.8-8.2c-7.3-9-14.8-18.2-23.3-23.5c-5.4-3.4-12.1-5-18.5-6.5
		c-4.6-1.1-9.3-2.2-13.6-3.9c-5.4-2.2-11.1-4.8-17.2-7.5c-19.3-8.7-41.1-18.5-59.3-18.8l0.1-4.5c18.9,0.3,41.1,10.3,60.6,19.1
		c6.1,2.7,11.8,5.3,17.1,7.5c4.1,1.6,8.4,2.7,13,3.7c6.7,1.6,13.7,3.2,19.6,6.9c9,5.7,16.7,15.2,24.2,24.4c2.3,2.8,4.5,5.5,6.7,8.1
		c41.4,47.7,52.1,123.5,60,178.9l1.2,8.3c3.7,25.8,7.6,52.4,4.5,79.4c-2.8,24.2-12.5,36.7-26.1,54.1l-0.6,0.8
		c-13.7,17.7-26.6,33.5-44.1,48.2c-17.3,14.4-35.9,20.6-55.6,27.1l-6.1,2c-38.6,13-74.9,16.3-113.3,19.9l-3.6,0.3L2210.4,3453.2z"/>
	<path class="st4" d="M2204.7,3490.6c22.4-6.4,46-11.5,68.9-16.4c30.7-6.7,62.4-13.6,92.5-23.6c41.9-14,85.8-61.2,102.2-109.6
		c22-65.1,24.9-119,9.7-180.2c-13.2-53.3-40.1-110.6-75.6-161.4c-34.1-48.7-88.3-57.9-145.6-63.6l0.4-4.4
		c58.1,5.8,113.2,15.1,148.2,65.2c35.8,51.2,62.9,109.1,76.3,162.9c15.4,62.2,12.5,116.9-9.9,183c-16.8,49.6-61.8,97.9-104.8,112.3
		c-30.2,10.1-62.1,17.1-92.8,23.7c-22.8,4.9-46.3,10.1-68.6,16.4L2204.7,3490.6z"/>
	<path class="st4" d="M2196,3515.7c8-4.1,18-3.7,27.7-3.2c4.1,0.2,8,0.4,11.6,0.2c15.6-0.7,31.6-4.2,47-7.7c3.2-0.7,6.5-1.4,9.7-2.1
		c4.3-0.9,8.7-1.8,13.1-2.7c28.3-5.8,57.6-11.8,82.4-28.2c8.6-5.7,17.3-8.8,25.7-11.9c4.5-1.6,9.1-3.3,13.6-5.3
		c13.9-6.2,30.4-20.8,38.9-29c35.5-33.9,48.5-93.1,52.4-117c2.9-17.5,2.1-35.3,1.3-52.5c-0.2-4-0.4-8.1-0.5-12.1
		c-0.3-8.6,0-17.2,0.3-25.6c0.5-13.4,0.9-27.2-1-40.5c-5.6-38.8-23-70.4-37.5-93.7c-7.9-12.6-17.3-24.2-26.3-35.4
		c-12.1-15-24.7-30.5-34-48.8c-9.6-18.8-18.4-33.3-32.9-47.2c-11.5-11.1-25.2-14.7-39.7-18.6c-5.7-1.5-11.7-3.1-17.4-5.2
		c-8.9-3.2-19.5-4.9-29.8-6.6c-15.5-2.5-31.4-5.1-42.9-12.8l2-3.9c10.9,7.2,26.5,9.8,41.5,12.2c10.4,1.7,21.2,3.5,30.4,6.8
		c5.6,2,11.5,3.6,17.2,5.1c14.3,3.8,29,7.7,41.3,19.5c14.9,14.3,24.2,29.7,33.7,48.4c9.1,17.9,21.5,33.2,33.5,48.1
		c9.1,11.3,18.6,23,26.6,35.8c14.8,23.6,32.5,55.8,38.2,95.5c2,13.7,1.5,27.8,1,41.4c-0.3,8.3-0.6,16.9-0.3,25.3
		c0.1,4,0.3,8,0.5,12.1c0.8,17.5,1.6,35.5-1.4,53.5c-4,24.4-17.3,84.8-53.8,119.7c-8.8,8.3-25.6,23.3-40,29.7
		c-4.7,2.1-9.3,3.8-13.9,5.4c-8.6,3.1-16.8,6-24.9,11.5c-25.4,16.8-55.1,22.9-83.7,28.7c-4.4,0.9-8.7,1.8-13,2.7
		c-3.2,0.7-6.4,1.4-9.7,2.1c-15.6,3.4-31.7,7-47.6,7.7c-3.8,0.2-7.9,0-11.9-0.2c-9.2-0.4-18.8-0.8-25.9,2.8L2196,3515.7z"/>
</g>
<g>
	<path class="st1" d="M493.6,3464.1c32.9-20.2,18.1-37.5-10.2-17.9C455.3,3465.8,470.7,3478.1,493.6,3464.1z"/>
	<path class="st1" d="M529.5,3358.5c-22.7,25.8-64.4,36.2-16.5-17.9C560.8,3286.5,569.1,3313.4,529.5,3358.5z"/>
	<path class="st1" d="M411,3464.9c-25.2,30.9-69.6,25.9-20.3-25.3C440,3388.4,453,3413.6,411,3464.9z"/>
	<path class="st1" d="M436.5,3358.5c-21.8,21.4-14.5,44.9,7.8,21.4C466.5,3356.6,474.6,3321.1,436.5,3358.5z"/>
	<path class="st1" d="M483.8,3269.8c-25.5,23.5-25.7,65.3,10,29.3C529.5,3263,536.9,3220.7,483.8,3269.8z"/>
	<path class="st1" d="M420.1,3303c-32.6,36.5-57.5,27.7-13.3-21.2C451,3232.8,452.8,3266.5,420.1,3303z"/>
	<path class="st1" d="M334.6,3334.2c-24.9,24.2-50.3,13.6-10.5-21.4C363.9,3277.7,367.4,3302.3,334.6,3334.2z"/>
	<path class="st1" d="M354.9,3380.7c-46.1,39.8-34.9,73,10,28.7C409.8,3365.2,409.8,3333.3,354.9,3380.7z"/>
</g>
<g>
	<path class="st5" d="M286.4,9174.7c1.7-3.7,11.7-5.8,28-8.9c6.8-1.3,13.2-2.5,16.3-3.6c25-9,53.5-23.2,74.2-37.1
		c10.8-7.2,22.3-14,33.5-20.5c15.6-9.1,31.7-18.5,45.8-29.3c13.4-10.3,24.9-22,34.2-35c2.5-3.4,5.2-7,8.1-10.7
		c6.5-8.5,13.2-17.2,17.4-25.5c16.3-32.1,20.6-83,9.7-113.6l-2.7-7.6c-10-28.3-20.4-57.6-39.4-81.6c-14-17.7-34.1-39.8-65.2-54
		l-4.4-2c-18.3-8.4-37.3-17-54.4-26.8c-2.9-1.7-5.8-3.4-8.7-5.1c-9.7-5.8-19.8-11.8-31.3-15.4c-61.5-19.3-147.2,3.5-172,10.9l-1-3.1
		c25.1-7.5,112.1-30.6,174.8-10.9c12,3.8,22.2,9.9,32.1,15.8c2.9,1.7,5.8,3.4,8.7,5.1c17,9.7,35.9,18.3,54.1,26.6l4.5,2
		c31.8,14.5,52.2,37,66.4,54.9c19.3,24.4,29.8,53.9,39.8,82.4l2.7,7.6c11.1,31.1,6.7,83.1-9.9,115.8c-4.3,8.6-11.2,17.4-17.8,26
		c-2.8,3.6-5.5,7.2-8,10.6c-9.5,13.2-21.3,25.3-35,35.8c-14.3,11-30.5,20.4-46.3,29.6c-11.1,6.5-22.6,13.2-33.2,20.3
		c-21,14.1-49.9,28.5-75.3,37.6c-3.5,1.3-10.1,2.5-17.1,3.8c-8.2,1.5-23.4,4.4-24.6,6.5L286.4,9174.7z"/>
	<path class="st5" d="M261.4,8967.4l-0.7-3.1c12-2.9,22.1-8.7,27-15.3c3.6-5,4.5-10.4,2.6-16c-2.7-8-12.4-17.5-22.4-19.1
		c-5.1-0.8-10,0.5-14.4,3.9l-2.6-2.2c5.4-4.2,11.7-5.9,18.2-4.9c11.6,1.8,22.1,12.4,25.1,21.1c2.3,6.5,1.2,12.8-3.1,18.7
		C285.5,8958,274.7,8964.2,261.4,8967.4z"/>
	<path class="st5" d="M270,8989.8l-0.2-3.2c12.9-1.7,23.1-12.4,31.3-21.1c1.1-1.2,2.2-2.4,3.3-3.5c12.9-13.3,11.1-22.9,2.3-38.3
		c-5-8.8-26.2-30.2-44.5-31.5c-5.5-0.4-10.2,1.1-14.2,4.4l-2.7-2.1c5-4.2,11-6.1,17.8-5.6c19.3,1.4,41.4,22.6,47.4,33.1
		c9.2,16.2,11.3,27.1-3,41.8c-1.1,1.1-2.1,2.2-3.3,3.4C295.5,8976.5,284.7,8987.9,270,8989.8z"/>
	<path class="st5" d="M264.5,9011.5l-0.6-3.2c17.7-3.8,37.3-12.9,51.3-23.8c20.8-16.2,29.5-28,22.3-51.3
		c-7.2-23.1-31.5-75-103.1-56.2l-0.8-3.1c52.8-13.8,92.1,7.4,107.8,58.2c7.6,24.7-2,37.8-23.6,54.6
		C303.4,8998.1,282.9,9007.6,264.5,9011.5z"/>
	<path class="st5" d="M261.3,9038.2c30.1-14,57.1-33.5,72.2-52.2c20.1-24.9,22.7-45,8.8-69.6c-1.8-3.2-3.6-6.7-5.6-10.3
		c-8.9-16.8-19.9-37.8-36.8-47.1c-21.3-11.8-51.4-14-80.5-6l-0.9-3.1c30.3-8.4,61.6-6,83.9,6.3c17.8,9.8,29,31.2,38,48.3
		c1.9,3.6,3.7,7.1,5.5,10.3c14.4,25.7,11.8,46.8-9.3,72.8c-15.5,19.2-43.2,39.2-73.9,53.5L261.3,9038.2z"/>
	<path class="st5" d="M265.4,9055.2c3.9-3,9.5-5.5,14.8-7.8c4.9-2.2,9.9-4.4,13.7-7c5.8-4.1,11.5-9,17-13.8c3.3-2.9,6.7-5.8,10-8.5
		c19.4-15.7,45-40,56.9-67.2c7.6-17.4,1.8-40.1-15.4-60.7c-1.8-2.2-3.6-4.4-5.5-6.6c-15.5-18.9-31.6-38.5-59.8-44.1l-3.5-0.7
		c-26.6-5.2-56.6-11.2-84.4-3.2l-0.9-3.1c28.9-8.4,59.6-2.3,86.7,3l3.4,0.7c29.5,5.8,46,25.8,61.9,45.2c1.8,2.2,3.6,4.4,5.4,6.6
		c17.9,21.4,23.8,45.1,15.8,63.5c-12.2,27.9-38.3,52.7-58,68.7c-3.3,2.7-6.6,5.6-9.9,8.4c-5.6,4.9-11.4,9.9-17.4,14.1
		c-4.2,2.9-9.4,5.2-14.5,7.5c-5.3,2.4-10.3,4.6-13.8,7.3L265.4,9055.2z"/>
	<path class="st5" d="M258.1,9078.9c0.7-1.2,3.5-2.7,17.5-9.4c4.7-2.3,9.2-4.4,11.5-5.6c6-3.3,12.1-6.1,17.9-8.9
		c12.7-6,24.8-11.6,35.5-21c42.1-36.8,63.8-65.3,66.2-87c2.4-21.4-11-51.6-25.5-70.2c-21.7-27.9-44.4-53.9-83.7-64.8
		c-13.6-3.8-28.7-3.4-43-2.7c-13.8,0.7-39.5,2.6-56,7.7l-1-3c17.1-5.3,43.3-7.3,57.3-8c14.7-0.7,30.3-1.1,44.5,2.8
		c40.3,11.2,64.3,38.7,85.5,66c14.8,19.1,28.5,50,26,72.1c-2.5,22.5-24.6,51.7-67.5,89.1c-11.2,9.8-23.5,15.6-36.6,21.7
		c-5.8,2.7-11.8,5.5-17.7,8.7c-2.4,1.3-6.9,3.5-11.7,5.8c-5.9,2.8-14.7,7-15.8,8L258.1,9078.9z"/>
	<path class="st5" d="M265.6,9092.1c12.4-6.5,26-12.6,40.4-19.1c16.8-7.6,34.3-15.4,49.6-23.9c54.2-30,84.5-64.6,89.9-103.1
		c4.4-31.2-27.6-64.4-51-88.7c-2-2.1-4-4.1-5.8-6.1c-1.9-2-3.9-4.1-5.9-6.3c-19.4-20.7-46-49.1-77.6-52.3
		c-31.4-3.2-81.7-3.3-118,3.9l-0.5-3.2c36.8-7.3,87.8-7.2,119.5-4c33,3.3,60.1,32.2,79.9,53.4c2.1,2.2,4,4.3,5.9,6.3
		c1.9,1.9,3.8,4,5.8,6c23.8,24.6,56.3,58.4,51.8,90.8c-5.6,39.6-36.5,75.2-91.9,105.8c-15.5,8.6-33,16.5-50,24.1
		c-14.3,6.5-27.9,12.5-40.2,19L265.6,9092.1z"/>
	<path class="st5" d="M260.1,9108.1l3.5-1.4c37.2-14.6,72.3-28.5,107-49.3l5.6-3.3c17.6-10.5,34.3-20.5,47.3-35.2
		c13.5-15.2,22-29.8,31.1-46l0.4-0.7c8.7-15.5,14.9-26.7,11.7-42.9c-3.7-18.7-14.3-35.2-24.6-51.2l-3.3-5.2
		c-21.8-34.5-51.8-81.7-104.1-100.2c-2.9-1-5.8-2.2-8.9-3.3c-9.6-3.7-19.4-7.5-29.2-8.4c-6.3-0.6-13.3,0.5-20.1,1.6
		c-4.8,0.7-9.8,1.5-14.5,1.7c-5.9,0.3-12.3,0.3-19.1,0.4c-21.4,0.3-45.7,0.7-63.9,6.3l-1-3c18.9-5.8,43.6-6.2,65.3-6.5
		c6.7-0.1,13.1-0.2,19-0.4c4.5-0.2,9.1-0.9,14-1.7c7.1-1.1,14.4-2.2,21.3-1.6c10.4,0.9,20.6,4.9,30.4,8.7c3,1.2,5.9,2.3,8.8,3.3
		c53.4,18.9,83.7,66.6,105.8,101.5l3.3,5.2c10.4,16.2,21.1,32.9,24.9,52.1c3.4,17.2-3,28.8-12,44.8l-0.4,0.7
		c-9.1,16.3-17.8,31.1-31.5,46.6c-13.5,15.3-30.5,25.4-48.4,36.1l-5.5,3.3c-35.1,21.1-70.4,35-107.7,49.7l-3.5,1.4L260.1,9108.1z"/>
	<path class="st5" d="M264.1,9135.1c20.7-11.5,42.9-22.5,64.3-33.1c28.8-14.3,58.7-29.1,86-45.6c38.1-22.9,69.7-68.7,73.5-106.7
		c5.2-51-5.8-88.3-36.7-124.7c-26.9-31.7-68.4-61.8-116.8-84.6c-46.5-21.9-102.8-10.7-161.3,3.8l-0.7-3.1
		c59.4-14.7,116.6-26.1,164.4-3.5c48.9,23.1,90.7,53.4,117.9,85.5c31.4,37,42.5,74.8,37.3,126.6c-3.9,38.9-36.4,85.9-75.4,109.3
		c-27.5,16.5-57.4,31.4-86.3,45.8c-21.4,10.6-43.5,21.6-64.1,33L264.1,9135.1z"/>
	<path class="st5" d="M261.9,9154.9c6.9-5.3,17-8.2,26.7-11c4.1-1.2,8-2.3,11.6-3.6c15.4-5.5,30.3-13,44.8-20.2c3-1.5,6.1-3,9.1-4.5
		c4.1-2,8.2-4,12.3-6c26.7-13,54.3-26.4,74.8-45.4c7.1-6.6,15-11.5,22.6-16.2c4-2.5,8.2-5.1,12.2-7.9c12.3-8.6,24.9-23.8,31.3-32
		c26.7-34.2,24.3-78.3,22.1-95.7c-1.6-12.7-7-24.5-12.2-35.8c-1.2-2.7-2.4-5.3-3.6-8c-2.5-5.7-4.4-11.6-6.3-17.4
		c-3-9.2-6.1-18.6-11.4-27c-15.5-24.4-41-40.1-61.5-51.1c-11.1-6-23.4-10.8-35.3-15.4c-15.9-6.2-32.4-12.7-46.4-22.1
		c-14.4-9.6-26.9-16.6-44.9-21.3c-14.3-3.8-28.9-1.9-44.3,0.2c-6.1,0.8-12.4,1.6-18.7,2.1c-9.7,0.7-20.7,2.9-31.4,5.1
		c-16,3.2-32.6,6.6-46.1,5.1l1-3.2c12.7,1.4,28.9-1.9,44.5-5c10.8-2.2,22-4.5,32-5.2c6.1-0.4,12.4-1.3,18.4-2.1
		c15.2-2,30.9-4.1,46.1-0.1c18.5,4.9,31.8,12.2,46,21.8c13.7,9.2,29.9,15.5,45.7,21.7c12,4.7,24.4,9.5,35.7,15.6
		c20.8,11.2,46.7,27.3,62.6,52.2c5.5,8.6,8.6,18.2,11.7,27.6c1.9,5.7,3.8,11.6,6.2,17.2c1.2,2.7,2.4,5.3,3.6,8
		c5.3,11.5,10.7,23.5,12.4,36.5c2.3,17.7,4.6,62.8-22.8,97.9c-6.6,8.4-19.5,23.9-32.2,32.9c-4.1,2.9-8.3,5.5-12.4,8.1
		c-7.8,4.9-15.1,9.4-21.9,15.7c-21,19.5-48.9,33.1-76,46.2c-4.1,2-8.2,4-12.3,6c-3,1.5-6,3-9.1,4.5c-14.6,7.3-29.7,14.9-45.4,20.5
		c-3.7,1.3-7.9,2.5-11.9,3.7c-9.3,2.7-18.9,5.4-25,10.2L261.9,9154.9z"/>
</g>
<g>
	<g>
		<path class="st6" d="M2557.2,8026.1c-19.9-5.7-40.1-10.1-60.5-13.3c-20.1-3.2-40.4-4.6-60.7-5.7c-29.7-0.2-59.3,1-88.7,5.7
			c-6.8,1.1-13.6,2.4-20.4,3.6c-1.1,0.2-2.5,0.6-3.2-0.5c-0.9-1.5,1-1.7,1.7-2.4c13.9-14.8,26.5-30.5,38.4-46.9
			c19-26.1,35.9-53.5,53.2-80.7c1-1.5,2-3,3-4.5c12-19.2,24-38.4,36.1-57.6c0.3-0.5,1-0.6,1.6-0.9c3.5-8.4,9.3-15.4,14.9-22.4
			c10.5-13,23.2-24,34.9-35.9c8.7-8.9,19.3-13.8,30.1-18.9c6.2-3.4,12.2-7,18-11c20.6-14.3,38.2-32,55.3-50.2
			c19.4-20.7,38.8-41.5,54.5-65.4c7.1-10.8,13.6-22,18.4-35c-3.6,1.3-6.6,2.2-9.5,3.3c-39.8,15.1-72.1,40.6-99.5,72.8
			c-10.5,12.4-20.1,25.5-29.1,39.1c-8.3,12.5-15.4,25.6-23,38.4c-5,10.3-10.2,20.1-19.4,27.8c-17.5,14.7-32.7,31.7-45.2,50.9
			c-1,1.5-2.3,2.7-3.5,4.1c-6.8,12.5-15,24.2-22.7,36.2c4.9-13.7,8.7-27.8,14.7-41c2.8-10.9,7-21.4,10.9-32
			c8.8-23.9,15.5-48.3,16.7-74c0.1-13.7-1.3-27.2-2.9-40.8c-2.6-7.4-3-15.5-6.7-22.8c-9.9,9.7-16.5,21-23.1,32.4
			c-1,3.2-2.3,6.3-4.3,9.1c-0.8,2.5-1.6,5-2.5,7.4c-9.2,24.8-12.6,50.7-14.3,77c-0.5,8,0.2,16-1.4,23.9c1.1,8.8,0,17.7,0,26.5
			c0,15.5,0.3,30.9,4.1,46c0.4,1.7,0.3,3.1-0.6,4.7c-17,26.6-33.3,53.6-51.7,79.9c-0.7-3.1,0.7-5.5,1.2-7.9
			c6-29.8,5.5-60.1,6.2-90.3c0.5-22.5-0.7-45-5.6-67.1c-3.1-14.3-7.6-28.2-13.6-41.6c-0.7-1.6-1.9-3.1-1.7-5
			c-3.3-4.1-4.8-9.2-7.5-13.6c-4.8-8.1-4.8-8.1-9.6,0.2c-0.5,0.8-1.1,1.6-1.6,2.4c-1.4,4.3-3,8.6-4.3,13
			c-5.5,19.2-5.7,38.9-5.9,58.6c-0.4,28,0.1,55.9,7.9,83.1c7,24.4,17.4,47.5,28.4,70.3c1.5,3.1,1.2,5.2-0.7,7.9
			c-10.1,13.8-20.4,27.4-31.7,40.3c-4.4,5-8.9,9.8-14,15.5c-0.1-1.9-0.3-2.5-0.2-3.1c5.5-29.6,1.8-58.6-7.1-87
			c-13.4-42.4-34.1-81.6-55.2-120.5c-3.1-5.7-6.5-11.4-11.5-17.2c-4,53.5-1,105.3,14.9,155.6c9.6,30.4,26.1,55.9,55.1,71.5
			c2.2,1.2,2.2,2.3,0.7,4.1c-1.5,1.7-4.1,2.6-4.2,5.3c-2-0.8-2.5,1.3-3.5,2.2c-15.6,14.5-32.2,27.7-50.5,38.6
			c-6.7,4-13.6,7.7-20.4,11.5c0.6,0.3,1.1,0.7,1.7,1c0.4-1.3,1.7-1.5,2.7-2c24.8-12.3,46.9-28.5,67.1-47.3c1.2-1.1,3.1-1.8,3-3.9
			c1.6,0.5,2.3-0.9,2.9-1.7c2.3-3.3,4.4-2.6,7-0.2c16.7,15.6,37,24.1,59.1,28.7c10.1,2.1,20.4,2.8,30.7,3.8c0.8-0.1,1.6-0.2,2.4-0.2
			c37.2-0.2,74.1-2.5,110.2-12.4c13.5-3.7,26.1-9.5,37.5-17.6C2559.5,8026.4,2558.2,8026.4,2557.2,8026.1z"/>
		<path class="st6" d="M2492.2,7844c-20.1,8.4-40.3,16.7-60.4,25.1c-1.2,0.5-2.5,1-3.5,1.8c-0.7,0.6-1.2,1.7-1.2,2.6
			c0,1.3,1.4,1,2.3,1.1c4.5,0.8,9,1.5,13.6,2.2c2.7-0.2,5.3,0.1,7.9,0.8c27.6,1.4,55-1.5,82.3-5c1.6-0.2,3.3-0.4,4.8,0.5
			c0.6-2,2.4-1.4,3.7-1.6c16.4-1.9,31.3-8.1,45.5-16.2c12.3-7,24.2-14.6,35.8-22.7c5.9-4.1,11.6-9.6,17.9-13
			c3.6-1.9,8.8-2.3,11.3-5.8c-6.8-7.7-17.3-4.6-26-3.9c-11.6,0.9-22.8,0.8-34.4,2.7c-18.1,3-35.6,8.3-52.8,14.9
			C2523.6,7833.5,2507.9,7838.5,2492.2,7844z"/>
		<path class="st6" d="M2461.8,7918.9l0.1,0.4c0,0,0,0,0,0c0,0,0,0,0,0L2461.8,7918.9z"/>
		<path class="st6" d="M2468.1,7918c-2,0.9-4,1.3-6.2,1.3c-14.7,4.4-29.5,8.6-43.6,15c-14.2,6.5-27.6,14.3-39.8,24.1
			c-1.3,1-2.4,2.2-4.2,2.6c6.8,3.3,13.8,5,20.9,6.8c16.3,4.2,32.9,5.6,49.6,6.6c0.8-0.1,1.6-0.2,2.4-0.2
			c53.3-0.2,101.7-14.9,144.1-47.8c3.5-3.7,6.9-7.4,9.2-12c1.3-2.7,0.8-3.8-2.4-3.8c-7,0-14-0.2-21-0.3
			C2540.5,7909.8,2504.1,7910.9,2468.1,7918z"/>
	</g>
	<path class="st6" d="M2431.3,7871.3c21.5-6.8,44.8-2.5,67-6.3c34.8-5.9,63.9-30.7,98.5-37.9"/>
	<path class="st6" d="M2373.8,7961.1c17.8-0.6,35.6-1.2,53.2-3.5c44.4-5.8,88.1-22.3,132.8-18.2"/>
	<path class="st6" d="M2324.3,8022.4c24.2,11.6,52,13.2,78.8,12.7s53.9-2.9,80.4,1.5"/>
	<path class="st6" d="M2318.3,8019.1c-7.2-6.2-10.4-15.8-13.3-24.9c-14.9-46.6-31-92.8-48.4-138.6"/>
	<path class="st6" d="M2370.4,7956.8c-10.7-15.9-12.8-36-14.5-55.1c-3.8-42.3-7.6-84.5-11.4-126.8"/>
	<path class="st6" d="M2429,7864.1c-6.2-20.9-3.6-43.4,0.8-64.7c1.9-9,4-17.9,6.2-26.8c6.2-25.2,12.3-50.5,18.5-75.7"/>
	<path class="st6" d="M2522.8,7747.6c44.5-43.9,88-88.8,130.5-134.7"/>
</g>
<path class="st2" d="M335.3,5654.8c61.8-87,132.3-111,217.6-43.1c115.9,92.3,217.7,200.8,319.1,309c18.7,19.9,37.9,40.8,46.2,66.9
	c8.2,26.1,1.9,58.9-21.6,72.8c-19.1,11.3-44,7.3-63.6-3.2c-19.6-10.5-35.4-26.5-52.8-40.3c-61.6-48.8-145.2-68.7-222.2-52.7
	c-28,5.8-55.2,16.1-83.7,18c-54.5,3.7-135.4-60-160.9-106.2C275.6,5807.5,290,5718.4,335.3,5654.8z"/>
<g>
	<g>
		<path class="st6" d="M481.3,6235.7c-12.5-16.8-26.1-32.7-40.6-47.8c-14.3-14.9-29.7-28.5-45.3-41.9
			c-23.8-18.4-48.3-35.6-74.9-49.8c-6.2-3.3-12.4-6.4-18.6-9.6c-1-0.5-2.4-1-2.3-2.3c0.2-1.7,1.8-0.7,2.8-0.9
			c20.2-3.4,40-8.3,59.7-14.2c31.3-9.4,61.7-21.1,92.3-32.3c1.7-0.6,3.5-1.2,5.2-1.8c21.5-8.1,42.9-16.2,64.4-24.2
			c0.5-0.2,1.2,0.1,1.8,0.2c8-4.7,16.9-6.7,25.7-8.9c16.4-4,33.4-5,50.1-7.5c12.5-1.8,24,0.7,35.8,3.2c7,1.1,14.1,1.9,21.2,2.2
			c25.4,1.1,50.4-2.3,75.3-6.5c28.4-4.8,56.7-9.6,84-19.2c12.3-4.3,24.4-9.3,36.3-16.9c-3.7-1.2-6.6-2.3-9.6-3.2
			c-41.3-12.2-83-11.6-124.7-2.4c-16.1,3.5-31.8,8.2-47.4,13.7c-14.3,5-28.1,11.2-42.1,16.8c-10.3,5.2-20.5,9.9-32.6,10.5
			c-23.1,1.1-45.8,5.4-67.7,13.3c-1.7,0.6-3.5,0.7-5.3,1.1c-13.1,5.9-26.9,10.3-40.5,15.2c12.4-8,24.1-17,37-24
			c9-7.1,18.8-13,28.4-19.1c21.7-13.9,42.2-29.4,58.8-49.3c8.5-10.9,15.7-22.7,22.7-34.6c2.5-7.5,7.1-14.3,8.6-22.5
			c-13.9,1.7-26.2,6.8-38.5,11.9c-2.8,2-5.8,3.7-9,4.7c-2.2,1.5-4.4,3-6.6,4.4c-22.7,14.3-41.3,33.1-58.8,53.2
			c-5.3,6.1-9.7,13-15.8,18.4c-4.5,7.8-10.9,14.2-16.3,21.4c-9.5,12.5-18.7,25.1-25,39.5c-0.7,1.6-1.7,2.7-3.4,3.4
			c-30,11-59.7,22.7-90.6,32.7c1.4-2.9,3.9-4,5.8-5.6c23.1-20.4,41.3-45,60.4-68.9c14.3-17.8,27-36.7,36.7-57.5
			c6.3-13.5,11.2-27.4,14.6-41.8c0.4-1.7,0.4-3.6,1.7-5.1c-0.1-5.3,1.7-10.4,2.3-15.6c1.1-9.5,1.1-9.5-7.9-5.7
			c-0.9,0.4-1.9,0.6-2.8,0.9c-3.8,2.6-7.7,5.1-11.4,7.8c-16.2,12-28.4,27.8-40.8,43.6c-17.5,22.3-34.2,45-44.6,71.7
			c-9.3,24-15.1,48.9-20.3,74c-0.7,3.4-2.2,5-5.4,5.9c-16.6,4.9-33.2,9.6-50.2,13c-6.6,1.3-13.2,2.4-20.8,3.8
			c1.1-1.6,1.3-2.2,1.8-2.6c22.7-20.5,37.4-46,47.6-74.4c15.2-42.4,22.6-86.6,29.5-130.9c1-6.5,1.7-13.2,1.3-20.9
			c-36.1,40.6-65.4,84.1-83.5,134.5c-10.9,30.3-13.2,61,0.5,91.4c1.1,2.4,0.4,3.2-2,3.7c-2.2,0.4-4.9-0.5-6.7,1.7
			c-1.2-1.9-2.8-0.5-4.1-0.4c-21.5,2.1-42.9,2.6-64.4,0.1c-7.9-0.9-15.7-2.2-23.5-3.3c0.3,0.6,0.5,1.2,0.8,1.9
			c1.1-0.8,2.3-0.2,3.3,0.1c27.5,5.3,55.2,5.8,83.1,3.1c1.6-0.2,3.6,0.5,4.9-1.3c1,1.4,2.4,0.7,3.4,0.4c3.9-1.2,5.1,0.6,5.7,4.1
			c3.9,22.9,15,42.1,29.9,59.4c6.8,7.9,14.8,14.8,22.4,21.9c0.7,0.4,1.4,0.8,2.1,1.3c30,22.7,61.2,43.4,96.3,57.6
			c13.1,5.3,26.8,8.4,41,8.9C483.1,6237.4,482,6236.6,481.3,6235.7z"/>
		<path class="st6" d="M540.9,6049.2c-21.3-5.6-42.7-11.2-64-16.8c-1.3-0.3-2.6-0.8-3.9-0.7c-0.9,0-2,0.6-2.5,1.3
			c-0.8,1.1,0.6,1.7,1.2,2.3c3.2,3.4,6.4,6.7,9.6,10.1c2.3,1.5,4.2,3.3,5.8,5.5c21.4,18.1,45.2,32.6,69.3,46.5
			c1.4,0.8,2.9,1.7,3.5,3.4c1.7-1.2,2.8,0.3,4,1c14.4,8.5,30.1,12.7,46.6,14.9c14.2,1.9,28.5,3.1,42.8,3.7
			c7.2,0.3,15.2-0.6,22.3,0.5c4.1,0.6,8.5,3.6,12.6,2.3c-0.7-10.4-11.1-14.3-18.6-19.1c-9.8-6.4-18.8-13.4-29.3-18.9
			c-16.4-8.6-33.8-15.2-51.6-20.4C572.6,6060,556.8,6054.4,540.9,6049.2z"/>
		<path class="st6" d="M470.4,6090.9l-0.2,0.4c0,0,0,0,0,0c0,0,0,0,0,0L470.4,6090.9z"/>
		<path class="st6" d="M476,6094c-2.1-0.5-4.1-1.4-5.8-2.7c-14.5-5.5-29-11.2-44.3-14.7c-15.4-3.5-31-5.4-46.9-5
			c-1.6,0-3.3,0.3-5-0.5c3.4,6.8,8.1,12.5,12.6,18.2c10.5,13.3,23,24.7,35.8,35.8c0.7,0.4,1.4,0.8,2.1,1.3
			c43,32.5,91,50.4,145.4,49.9c5.1-0.8,10.1-1.7,14.8-4c2.7-1.4,3-2.5,0.4-4.5c-5.7-4.3-11.2-8.8-16.7-13.2
			C539.3,6131.8,509.3,6110.4,476,6094z"/>
	</g>
	<path class="st6" d="M475.1,6033.9c21.4,7.7,37.6,25.5,57.8,36.1c31.6,16.6,70.3,14.5,102.6,29.9"/>
	<path class="st6" d="M373.6,6070.9c14.7,10.4,29.4,20.8,45,29.8c39.3,22.6,84.7,36.1,118.1,66.8"/>
	<path class="st6" d="M296.1,6089.8c12.4,24.2,33.7,42.5,55.7,58.6c21.9,16.1,45.2,30.7,63.9,50.6"/>
	<path class="st6" d="M293.3,6083.5c-2-9.4,1.3-19.1,4.6-28.2c16.6-46.7,32-93.8,46.1-141.3"/>
	<path class="st6" d="M373.5,6065.3c1.1-19.4,11.8-36.8,22.2-53.2c22.9-36.4,45.7-72.7,68.6-109.1"/>
	<path class="st6" d="M477.6,6026.6c7.9-20.6,23.7-37.2,40.3-51.7c7-6.1,14.2-11.9,21.4-17.8c20.4-16.6,40.9-33.1,61.3-49.7"/>
	<path class="st6" d="M624.6,5990.4c62.8-8,125.3-17.5,187.7-28.4"/>
</g>
<path class="st1" d="M2813.4,1748c0,45.5-0.2,91.1,0.1,136.6c0.1,10.4-2.1,16.5-14.1,14.2c-63.9-12.1-117.1-38.6-142.2-103.8
	c-21.9-56.9,1-129.3,52.8-166.7c24.1-17.4,50.6-29.2,79.5-35.7c19-4.3,23.5-0.9,23.7,18.7C2813.6,1656.9,2813.4,1702.4,2813.4,1748z
	"/>
<g>
	<path class="st0" d="M2768.6,1864.6c7.7,1.1,14.5,4.1,14.3,13.3c-0.2,8.1-5.8,12.8-13.6,13c-9.2,0.2-12.7-6.7-13.4-14.5
		C2755.2,1868.1,2760.9,1865.1,2768.6,1864.6z"/>
	<path class="st0" d="M2619.4,1991.1c-7-2-15.6-2.6-15.6-12.3c0-8.2,5.2-13.9,13.7-14.2c8.3-0.2,12.6,5.2,13,13.1
		C2630.9,1985.1,2627.3,1990,2619.4,1991.1z"/>
	<path class="st0" d="M2635.1,1923.2c8.3,1.4,15.9,3.8,16.1,13.6c0.1,8-5.3,13.2-13.1,13.4c-9.7,0.3-13.3-7.1-14.1-15.3
		C2623.1,1927.3,2628.5,1924.4,2635.1,1923.2z"/>
	<path class="st0" d="M2715.1,1859.2c-9.2-0.7-20.2-10.1-19.2-16.6c1-6,4.5-10.6,11.3-10.7c6.8-0.1,18.5,12.1,18.2,19
		C2725.1,1858,2720.2,1859.3,2715.1,1859.2z"/>
	<path class="st0" d="M2682.6,2000.1c-0.9,7.8-4.1,13.5-12.1,12.8c-7.3-0.7-15.3-2.7-14.8-12.5c0.4-8.3,5.9-13.5,14.3-13.5
		C2678.3,1987,2681.3,1993.2,2682.6,2000.1z"/>
	<path class="st0" d="M2660,1863.7c8.4-0.3,18.2,7.2,18.5,14.4c0.2,7.9-4.3,12-11.9,12.2c-7.4,0.2-15.3-9.1-15.4-17.5
		C2651.1,1866.8,2654.1,1863.9,2660,1863.7z"/>
	<path class="st0" d="M2728.6,1932.9c-0.2-5.8,2.4-9.1,8.4-9.4c8.7-0.5,19.3,7.8,18.9,15.2c-0.4,7.1-4.8,11-11.7,11.4
		C2736.8,1950.6,2728.8,1941.6,2728.6,1932.9z"/>
	<path class="st0" d="M2595.5,1897.1c-10.5,0-22.5-9.1-21.7-16.1c0.7-6.5,4.4-11.4,11.6-11.8c7.7-0.4,18.8,11.7,18.4,19.7
		C2603.5,1895.3,2599.3,1897,2595.5,1897.1z"/>
	<path class="st0" d="M2710.9,1971.5c7.4,1.1,15.1,3.1,15.2,13.1c0.1,6.4-3.7,10.6-10.5,10.9c-6.7,0.3-16-9.3-15.5-16
		C2700.6,1973.3,2705.1,1971.8,2710.9,1971.5z"/>
	<path class="st0" d="M2799.4,1946.2c7,1,14.1,3.2,14.3,12.6c0.2,7.1-3.9,11.8-11.3,11c-8.9-0.9-13.5-7.4-14.4-15.4
		C2787.3,1947.3,2793.1,1946.2,2799.4,1946.2z"/>
	<path class="st0" d="M2695,1905.1c6.4,0.9,13.4,1.1,13.5,8.6c0.2,7.9-6.8,9.3-13.1,9.6c-6.3,0.2-12.3-2.2-12.2-9.1
		C2683.1,1907,2690,1906.2,2695,1905.1z"/>
	<path class="st0" d="M2755.1,2036.4c-6.8-0.8-13-2.5-12.9-9.3c0.2-7.7,7.1-9,13.4-8.9c5.7,0.1,12.5,1.2,12.2,8.6
		C2767.4,2034.5,2760.2,2035.1,2755.1,2036.4z"/>
</g>
<g>
	<path class="st0" d="M2847,1185.1c-2.1,3.2-10.3,2.6-23.5,1.2c-5.5-0.6-10.8-1.1-13.4-0.8c-21.3,2.1-46.3,8.5-65.3,16.6
		c-9.9,4.2-20.2,7.8-30.2,11.2c-14,4.8-28.5,9.7-41.6,16.5c-12.6,6.5-24,15-33.9,25.3c-2.6,2.7-5.5,5.5-8.5,8.4
		c-6.8,6.6-13.9,13.4-18.9,20.4c-19.4,27.3-33.7,76.4-31.8,109.4l0.5,8.3c1.7,30.6,3.4,62.3,13,91.1c7,21.2,17.8,48.4,38.8,70.9
		l3,3.2c12.4,13.2,25.1,26.8,36.3,41.1c1.9,2.4,3.8,4.9,5.7,7.4c6.3,8.3,12.8,17,20.9,23.7c43.4,35.6,114.4,36.2,135.2,35.6l0.1,3.3
		c-21,0.7-93.1,0-137.4-36.3c-8.4-6.9-15.1-15.7-21.4-24.2c-1.9-2.5-3.7-4.9-5.6-7.4c-11-14.1-23.8-27.7-36.1-40.8l-3-3.2
		c-21.4-22.9-32.4-50.5-39.5-72.1c-9.7-29.3-11.5-61.1-13.2-92l-0.5-8.2c-1.9-33.7,12.6-83.7,32.4-111.5
		c5.2-7.3,12.4-14.2,19.3-20.9c2.9-2.8,5.8-5.6,8.4-8.3c10.2-10.5,21.8-19.2,34.7-25.9c13.4-7,28-11.9,42.1-16.7
		c10-3.4,20.2-6.9,30-11.1c19.3-8.2,44.7-14.7,66.2-16.8c3-0.3,8.3,0.3,14,0.8c6.6,0.7,19,2,20.4,0.2L2847,1185.1z"/>
	<path class="st0" d="M2821.9,1396.3l-0.1,3.3c-9.9-0.3-18.9,2.6-24.1,7.9c-3.9,3.9-5.7,9-5.4,15.1c0.4,8.6,5.8,20.6,13.2,24.8
		c3.8,2.2,7.8,2.2,11.9,0l1.5,2.9c-5.1,2.7-10.3,2.7-15.1-0.1c-8.6-4.9-14.4-18.1-14.8-27.5c-0.3-7.1,1.8-13,6.4-17.6
		C2801.3,1399.1,2811,1395.9,2821.9,1396.3z"/>
	<path class="st0" d="M2820.1,1371.9l-0.6,3.2c-10.3-1.8-20.5,6-28.7,12.3c-1.1,0.9-2.2,1.7-3.3,2.5c-12.8,9.6-13.4,19.6-10,37.1
		c2,10.1,13.8,36.8,27.7,43.1c4.2,1.9,8.1,1.7,11.9-0.6l1.7,2.8c-4.7,2.8-9.8,3-14.9,0.7c-14.6-6.5-27.2-33.4-29.5-45.4
		c-3.7-18.5-2.9-29.8,11.2-40.4c1.1-0.8,2.1-1.6,3.3-2.5C2797.6,1378.2,2808.4,1369.8,2820.1,1371.9z"/>
	<path class="st0" d="M2829,1352l-0.2,3.3c-14.5-1.1-31.6,2.6-44.7,9.6c-19.6,10.4-28.8,19.7-28.2,44.6c0.6,24.8,8.3,82.4,67.6,83.2
		l0,3.3c-43.7-0.6-69.5-32.1-70.8-86.4c-0.6-26.4,9.6-36.7,29.9-47.5C2796.1,1354.7,2813.9,1350.9,2829,1352z"/>
	<path class="st0" d="M2837.2,1326.5c-26.2,5.7-51.2,17.6-67,32c-20.8,19.1-27.1,38.3-21.7,66.2c0.7,3.6,1.4,7.6,2.1,11.7
		c3.2,19,7.3,42.6,18.4,56.4c14,17.4,36.7,27.7,60.9,27.6l0,3.3c-25.2,0.1-48.9-10.7-63.5-28.8c-11.6-14.5-15.7-38.6-19-57.9
		c-0.7-4.1-1.4-8-2.1-11.6c-5.7-29.2,0.9-49.3,22.7-69.3c16.1-14.8,41.7-27,68.5-32.8L2837.2,1326.5z"/>
	<path class="st0" d="M2837.7,1308.6c-3.7,1.9-8.5,2.9-13.1,3.8c-4.2,0.8-8.6,1.7-12.1,3.3c-5.4,2.4-10.8,5.8-16.1,9.1
		c-3.1,1.9-6.4,3.9-9.5,5.7c-18.3,10.2-43.3,27.4-58.3,51c-9.6,15.1-10,39-1.1,64c0.9,2.6,1.9,5.3,2.8,8c8,22.9,16.2,46.5,36.8,59.6
		l2.5,1.6c19.4,12.3,41.4,26.3,64.5,25.9l0.1,3.3c-24.1,0.5-46.5-13.8-66.3-26.4l-2.5-1.6c-21.6-13.7-30-37.9-38.1-61.3
		c-0.9-2.7-1.9-5.3-2.8-8c-9.3-25.9-8.8-50.9,1.4-66.9c15.4-24.2,40.8-41.7,59.5-52.1c3.1-1.7,6.3-3.7,9.4-5.6
		c5.4-3.3,10.9-6.7,16.5-9.3c3.8-1.7,8.4-2.6,12.8-3.5c4.6-0.9,9-1.7,12.2-3.4L2837.7,1308.6z"/>
	<path class="st0" d="M2848.4,1287.2c-0.8,1-3.3,1.7-15.5,4.5c-4.2,1-8.1,1.9-10.1,2.5c-5.4,1.6-10.6,2.8-15.7,3.9
		c-11.1,2.5-21.6,4.8-31.9,11.1c-40.4,25-63.2,47.2-69.8,67.9c-6.4,20.5-2.5,53.8,4.7,76.1c10.8,33.4,22.8,65.2,50.8,86.5
		c9.7,7.4,21.4,11.1,32.7,14.2c10.8,3.1,31,8.1,44.9,7.5l0.1,3.3c-14.4,0.6-35-4.5-46-7.6c-11.5-3.2-23.6-7.1-33.7-14.8
		c-28.7-21.9-41.4-55.5-51.9-88.1c-7.4-22.8-11.3-57-4.7-78.1c6.8-21.5,30.1-44.4,71.2-69.8c10.8-6.6,21.5-9,32.9-11.6
		c5.1-1.1,10.3-2.3,15.5-3.8c2.1-0.6,6.1-1.5,10.3-2.5c5.1-1.2,12.8-3,13.9-3.6L2848.4,1287.2z"/>
	<path class="st0" d="M2845.4,1272.2c-11,3.1-22.8,5.4-35.3,7.9c-14.6,2.9-29.8,6-43.4,10.2c-48.3,14.9-79.1,41-91.5,77.5
		c-10.1,29.6,7.6,71,20.5,101.2c1.1,2.6,2.2,5.1,3.2,7.6c1,2.5,2.1,5.1,3.2,7.8c10.6,25.7,25,60.8,48.7,72.5
		c23.6,11.6,62.4,25.2,92,27.9l-0.3,3.3c-30-2.7-69.3-16.5-93.1-28.2c-24.8-12.2-39.5-48-50.3-74.2c-1.1-2.7-2.2-5.3-3.2-7.8
		c-1-2.4-2.1-4.9-3.2-7.5c-13.1-30.7-31-72.7-20.5-103.5c12.8-37.5,44.3-64.3,93.6-79.6c13.8-4.3,29-7.3,43.7-10.3
		c12.5-2.5,24.2-4.9,35.1-7.9L2845.4,1272.2z"/>
	<path class="st0" d="M2853.1,1257.9l-3,0.4c-31.8,4.4-61.9,8.6-93.2,19.8l-5,1.8c-15.9,5.6-30.9,11-44.1,22
		c-13.7,11.4-23.4,23.5-33.8,37l-0.5,0.6c-10,12.9-17.2,22.3-18.2,39.1c-1.1,19.4,3.5,38.6,8,57.2l1.5,6.1
		c9.5,39.9,22.5,94.5,59,126.9c2,1.8,4,3.7,6.1,5.7c6.6,6.2,13.4,12.7,20.8,16.2c4.7,2.2,10.4,3.1,15.9,3.9
		c3.9,0.6,7.9,1.1,11.6,2.2c4.6,1.4,9.6,3,14.8,4.7c16.6,5.5,35.4,11.6,50.7,11l0.1,3.3c-15.9,0.7-35-5.6-51.8-11.2
		c-5.2-1.7-10.2-3.3-14.7-4.7c-3.5-1-7.2-1.6-11.1-2.1c-5.7-0.8-11.6-1.7-16.8-4.2c-7.8-3.7-14.8-10.4-21.6-16.8
		c-2.1-2-4.1-3.9-6.1-5.6c-37.2-33-50.4-88.3-60-128.6l-1.5-6.1c-4.5-18.8-9.2-38.2-8.1-58.1c1-17.9,8.5-27.6,18.9-41l0.5-0.6
		c10.6-13.6,20.4-25.9,34.3-37.5c13.7-11.4,29-16.8,45.1-22.6l5-1.8c31.6-11.4,61.8-15.6,93.8-20l3-0.4L2853.1,1257.9z"/>
	<path class="st0" d="M2855.8,1230.2c-18.4,5.7-37.9,10.6-56.8,15.4c-25.3,6.4-51.5,12.9-76.2,21.8c-34.3,12.3-68.5,49-79.6,85.4
		c-14.9,48.9-14.4,88.6,1.6,132.8c14,38.5,39.6,79.3,72.1,115c31.2,34.2,77.1,38.3,125.4,39.7l-0.1,3.3c-49-1.5-95.7-5.7-127.7-40.8
		c-32.8-35.9-58.6-77.1-72.8-116c-16.3-44.9-16.8-85.3-1.7-134.9c11.4-37.3,46.5-74.9,81.6-87.5c24.8-8.9,51.1-15.5,76.5-21.9
		c18.8-4.7,38.3-9.6,56.6-15.3L2855.8,1230.2z"/>
	<path class="st0" d="M2861.7,1211.3c-6.4,3.4-14.9,3.6-23,3.7c-3.4,0.1-6.7,0.1-9.7,0.4c-13,1.3-26.2,4.6-38.9,7.9
		c-2.7,0.7-5.3,1.4-8,2c-3.6,0.9-7.2,1.8-10.8,2.6c-23.4,5.6-47.6,11.4-67.5,24.6c-6.9,4.6-14,7.3-20.9,9.9
		c-3.6,1.4-7.4,2.8-11.1,4.5c-11.3,5.2-24.3,16.7-31,23.1c-27.9,26.6-35.6,70.7-37.6,88.4c-1.5,13,0.2,26,1.7,38.6
		c0.4,3,0.7,5.9,1.1,8.9c0.7,6.3,0.9,12.7,1.1,18.8c0.3,9.8,0.7,20,3,29.7c6.8,28.2,23.1,50.6,36.5,67c7.3,8.9,15.8,17,24,24.7
		c11,10.4,22.3,21.2,31.1,34.2c9,13.4,17.2,23.6,30.1,33.1c10.3,7.6,21.9,9.6,34.2,11.8c4.9,0.8,9.9,1.7,14.9,3
		c7.6,1.9,16.6,2.7,25.3,3.4c13.1,1.1,26.6,2.3,36.7,7.4l-1.5,2.9c-9.5-4.8-22.7-5.9-35.5-7c-8.8-0.8-18-1.5-25.8-3.5
		c-4.8-1.2-9.8-2.1-14.6-2.9c-12.2-2.1-24.7-4.3-35.6-12.4c-13.2-9.8-21.9-20.6-30.9-33.9c-8.6-12.7-19.8-23.4-30.6-33.7
		c-8.3-7.9-16.8-16-24.2-25c-13.7-16.7-30.2-39.5-37.2-68.3c-2.4-10-2.8-20.3-3.1-30.3c-0.2-6.1-0.4-12.4-1.1-18.6
		c-0.3-2.9-0.7-5.9-1.1-8.8c-1.6-12.8-3.2-26-1.7-39.4c2-18.1,9.9-63.1,38.6-90.5c6.9-6.5,20.2-18.3,31.9-23.7
		c3.8-1.7,7.6-3.2,11.3-4.6c7-2.7,13.7-5.2,20.3-9.6c20.4-13.6,44.9-19.4,68.6-25.1c3.6-0.9,7.2-1.7,10.8-2.6c2.7-0.7,5.3-1.3,8-2
		c12.9-3.3,26.1-6.7,39.4-8c3.2-0.3,6.6-0.4,10-0.4c7.8-0.1,15.8-0.3,21.5-3.3L2861.7,1211.3z"/>
</g>
<g>
	<path class="st7" d="M2738.4,6228.2c-3.7,1.8-7.2,8.4-9.7,11.8c-7,9.5-10.1,22-12.7,33.4c-5,21.2-6,41.4-3.8,63
		c1.5,15,2.6,31.5,6.7,46c1.8,6.2,5.1,14.3,10.1,19c9.2,79.8,32.6,154.3,76.9,221.3c-2.2-1.3-4.5-2.5-6.7-3.8
		c-40.2-23.4-80-47.4-121.1-69.2c-26.3-25.4-45.2-59.6-62.1-91.1c-21.4-40-38.7-81.9-51.5-125.4c1-5.9,1.3-11.8,2.1-18
		c1.2-10.4,2.1-20.6,2.8-31.1c0.5-7,0.4-14.1,0.6-21.1c0.3-9.2,1-18.7,0.3-27.8c-0.9-10.1-3.6-42.1-20.6-40.7
		c-4.5,0.4-5.6,3.9-6.6,7.7c-3.3,13.3-4.8,26.9-5.9,40.5c-1.5,18.6,0.3,38.8,7.4,56.1c3.1,7.7,6.3,15.3,9.5,23
		c1.4,3.5,2.5,7.9,5,10.8c0,0.3,0,0.6,0.1,0.9c14.1,44,31.2,86.8,53.3,127.5c16,29.5,33.4,60.1,57.2,84.3c-8-4.2-16.1-8.3-24.2-12.2
		c-56.4-27.5-106.4-61.1-156.6-98.4c-2.1-5.5-2.5-12.9-4.7-18.3c-5.4-13.2-12.8-23.8-23.2-33.5c-14.8-13.8-30.1-27.9-49.3-35.1
		c-16.3-6.1-38.6-13.4-56.2-10.4c3.8,4.5,6.3,9.7,8.8,15c4.7,9.9,9.1,18.7,15.4,27.7c10.1,14.5,23.2,28.1,39.3,35.8
		c14.2,6.8,28.6,13,43.8,17.2c7,1.9,13.7,2.4,20.8,3.5c0.3,0,0.6,0.1,0.8,0.2c0,0,0,0,0,0c33.1,26.3,68,49.3,103.7,70.7
		c-19.1-1.6-38.1-5.6-57.1-1.8c-22.6,4.5-44.2,14.7-65.8,22.4c-5.2-0.2-13.8-2.5-15.2-2.9c-11-3.1-22.8-8.9-34.2-9
		c-20.5,0-41.4,5.3-60.2,13.3c-12.9,5.6-25.4,14.8-34.7,25.3c2.7,0.5,5.6,2.2,8.3,3.2c5.3,2,11,3.3,16.4,5
		c12.6,3.9,24.9,6.3,38.1,4.5c21.1-2.7,42.9-11.7,61-22.6c6.3-3.8,10.8-9.6,16.9-13.5c1.4-0.9,3-1.6,4.6-2.4
		c22.1-7.3,45.6-17.2,68.7-20.5c20-2.9,39.5,3.4,59.4,3.4c0.4,0,0.7-0.1,0.9-0.3c62.8,37.2,128.1,70,191.6,107.3
		c25.4,15,51.1,29.8,77.1,44.3c-26.1-0.1-52.4,0.4-78.1,6c-28.2,6.1-51.3,20.3-77,32.9c-1,0.5-2,1-3.1,1.5
		c-50.6-0.7-98.2-8.9-146.2-25.2c-6.3-4.2-12.1-9.4-18.1-14.1c-8-6.2-16.1-12.5-24.5-18.1c-11.5-7.7-27.2-13.4-40.7-16.6
		c-10.4-2.5-22-4.9-32.7-4.6c-5.1,0.1-14.6-0.5-17.9,4.3c-3,4.4,1.9,10,4.5,13.2c9.1,11.3,18.2,20,31.4,26.2
		c17.7,8.4,35.1,13,54.7,13.9c14.1,0.6,27.8,0,41.8-0.6c45,16.7,92.5,25.1,140.4,25.1c-45.2,23-83.5,48.5-113.4,91.4
		c-4.2-0.4-9,0.7-13,1.8c-8.8,2.3-17.9,4.6-26.7,7.3c-17.6,5.3-34.2,15.3-48.8,26.4c-6.9,5.2-13.1,12-18.7,18.6
		c-4.5,5.2-11.3,12.3-13.5,18.9c21.7,10.4,44.8,10,66.5-1.5c17.2-9.1,32.2-18.3,40.7-36.5c4.7-10.2,10.3-20.3,13.8-31
		c0.2-0.1,0.4-0.1,0.5-0.3c33.2-45.4,73.8-70.2,121.8-95.1c0.3-0.1,0.5-0.2,0.7-0.4c3.5-1.8,7-3.6,10.6-5.4
		c24.4-12.4,46.5-23.8,73-29.3c-32,40.2-54.2,85-67.2,134.7c0,0,0,0.1,0,0.1c-0.3,0.1-0.5,0.1-0.8,0.2c-3,1.8-4.7,6.2-6.4,9.1
		c-3.4,5.8-6.1,12-8.4,18.4c-4.5,12.5-7.2,25.4-10.1,38.3c-3.5,15.5-5.4,34.6,1,49.7c10.5-3.6,16.6-11.9,22.2-21.7
		c5.4-9.5,8.8-19.3,11.8-29.7c2.3-8.3,5.8-16.6,4.3-25.2c-1.6-9.4-4.4-18.8-6.7-28c-0.6-2.3-2-9.8-5.1-11
		c13.5-49.6,36.8-94.7,68.9-134.9c0.2-0.2,0.2-0.5,0.2-0.7c1.5-0.3,2.9-0.6,4.3-0.8c23.5-3.6,47.3-3.5,71-3.3
		c81.4,45.1,165.5,86.5,253.5,115.5c2.8,0.9,4.8-3.1,2-4.2c-109.2-43.6-213.6-94.3-315.4-152.8c-43.6-66.7-72.6-143.7-76.5-223.8
		c3.6-3,7.8-10,9.5-13.6c6.6-13.9,11.3-28.6,16.4-43.1c7.3-21.1,12.1-41.5,12.9-63.8c0.7-18.3-5-34.8-18.9-47.2
		C2750.8,6231,2743.7,6225.7,2738.4,6228.2z"/>
	<path class="st7" d="M2562.1,6323.9c-6.2-11-9.9-23.3-10.9-35.9c-1.5-20.5,4.2-41.4-0.4-61.3"/>
	<path class="st7" d="M2731.9,6401.7c-6.9-21.4,1.1-44.3,4.7-66.4c3.6-22.4,2.7-45.5-2.7-67.5"/>
	<path class="st7" d="M2725.9,6807.6c-1.6,4.1-0.5,8.6,0.5,12.8c3,12.5,4.7,25.8,1.3,38.3c-3.1,11.1-10,20.6-14.2,31.3"/>
	<path class="st7" d="M2579.8,6800.2c-9,14.1-23.8,23.3-38.1,32c-10.4,6.4-20.8,12.7-31.2,19.1c-3.5,2.1-7.1,4.3-11.1,4.7"/>
	<path class="st7" d="M2549.5,6676.5c-9-1.4-18.1-2.8-27.1-4.1c-6-0.9-11.9-1.8-17.7-3.7c-6.9-2.2-13.3-5.8-19.7-9.4
		c-9.8-5.5-19.7-11-29.5-16.5"/>
	<path class="st7" d="M2452.8,6529.3c-9.1,5.4-18.5,10.9-29,12.2c-3.9,0.5-7.8,0.4-11.7,0.4c-16.9,0.2-33.7,3.1-49.7,8.6"/>
	<path class="st7" d="M2484.2,6432.2c-11.6-9.5-25.2-16.1-37.7-24.5c-23-15.5-42-37.3-67.1-49.1"/>
</g>
<path class="st0" d="M3019.9,4792.8c87.5-2.9,138.2,31.2,136.3,120.5c-2.6,121.5-22.8,241.9-42.9,361.8c-3.7,22.1-7.8,45-20.7,63.4
	c-12.9,18.3-37.4,30.5-58.2,22.1c-16.9-6.8-26.6-25.1-29.5-43.1s-0.3-36.3,0-54.5c1.2-64.5-27.4-128.9-76.1-171.2
	c-17.7-15.4-37.9-28-53.4-45.7c-29.5-33.7-28.2-118.2-10.7-157.8C2890.6,4829.8,2955.9,4795,3019.9,4792.8z"/>
<g>
	<path class="st2" d="M2576.4,5209c1.6-10.9,5.8-20.4,18.7-20.1c11.3,0.3,18,8.1,18.3,19.1c0.3,12.9-9.4,17.9-20.4,18.8
		C2581.3,5227.8,2577.1,5219.8,2576.4,5209z"/>
	<path class="st2" d="M2754.3,5418.9c-2.8,9.8-3.7,21.9-17.3,21.9c-11.5,0-19.6-7.3-20-19.3c-0.3-11.7,7.4-17.7,18.4-18.3
		C2745.9,5402.6,2752.7,5407.8,2754.3,5418.9z"/>
	<path class="st2" d="M2658.9,5396.7c1.9-11.6,5.3-22.4,19.2-22.6c11.3-0.1,18.5,7.4,18.9,18.4c0.4,13.6-10,18.7-21.5,19.9
		C2664.6,5413.6,2660.5,5406.1,2658.9,5396.7z"/>
	<path class="st2" d="M2568.8,5284.3c-1,12.9-14.3,28.4-23.3,27c-8.5-1.4-14.9-6.4-15-15.9c-0.2-9.6,17.1-26,26.7-25.6
		C2567.1,5270.2,2568.9,5277.1,2568.8,5284.3z"/>
	<path class="st2" d="M2767,5330c11,1.3,19.1,5.7,18,17.1c-1,10.2-3.8,21.6-17.5,20.9c-11.7-0.6-19-8.3-19-20.2
		C2748.5,5336,2757.3,5331.7,2767,5330z"/>
	<path class="st2" d="M2575.1,5361.8c-0.4-11.8,10.1-25.7,20.2-26c11.1-0.3,16.8,6,17.2,16.7c0.3,10.4-12.8,21.6-24.6,21.7
		C2579.6,5374.2,2575.4,5370,2575.1,5361.8z"/>
	<path class="st2" d="M2672.5,5265.3c-8.1,0.2-12.8-3.4-13.3-11.8c-0.7-12.3,11-27.2,21.4-26.5c9.9,0.6,15.4,6.7,16.1,16.5
		C2697.3,5253.8,2684.6,5264.9,2672.5,5265.3z"/>
	<path class="st2" d="M2622.2,5452.5c0,14.8-12.9,31.7-22.6,30.6c-9.2-1-16.1-6.2-16.6-16.4c-0.6-10.8,16.4-26.4,27.8-25.8
		C2619.6,5441.3,2622,5447.1,2622.2,5452.5z"/>
	<path class="st2" d="M2726.8,5290.1c1.6-10.5,4.4-21.2,18.5-21.4c9.1-0.1,14.9,5.2,15.3,14.8c0.4,9.4-13.1,22.6-22.5,21.8
		C2729.3,5304.6,2727.2,5298.4,2726.8,5290.1z"/>
	<path class="st2" d="M2691.1,5165.7c1.5-9.9,4.5-19.8,17.7-20.1c10-0.2,16.5,5.5,15.5,15.9c-1.2,12.5-10.4,19-21.7,20.3
		C2692.7,5182.7,2691.2,5174.5,2691.1,5165.7z"/>
	<path class="st2" d="M2633.3,5312.5c1.2-9,1.6-18.8,12.1-19c11.2-0.2,13.1,9.6,13.5,18.5c0.4,8.8-3.1,17.2-12.8,17.2
		C2636,5329.2,2634.9,5319.5,2633.3,5312.5z"/>
	<path class="st2" d="M2818.1,5227.9c-1.1,9.5-3.6,18.3-13.1,18.1c-10.8-0.2-12.7-10-12.5-18.8c0.2-8,1.7-17.5,12.1-17.1
		C2815.3,5210.6,2816.2,5220.8,2818.1,5227.9z"/>
</g>
<path class="st2" d="M585.9,4594.2c22.2-16.4,30.7-46.1,30-73.6c-0.7-26.6-8.7-53.1-5.5-79.5c3.2-26.4,23.8-54.1,50.3-51.7
	c25.5,2.4,47.2,31.3,71.3,22.6c9.3-3.3,15.8-11.7,20.4-20.4c19.7-36.7,12.7-85.8-16.4-115.6c-21.9-22.5-52.9-33.1-81.3-46.5
	c-28.4-13.5-57.2-33.1-66-63.2c-10.3-35.4,10.2-75-3-109.4c-6.7-17.5-21.3-30.7-36.6-41.6c-59-41.6-145.7-53-201.3-7
	c-20,16.6-34.5,39-45.9,62.4c-40.5,83.1-46,178.3-50.7,270.6c-2.9,55.9-33.4,268.1,61.4,250.9c49-8.9,81.2-25.6,132.6-10.4
	C488.7,4594.6,543.2,4625.7,585.9,4594.2z"/>
<g>
	<path class="st1" d="M298.9,4746.1c1.7-2.6,8.5-2.1,19.4-1c4.6,0.5,8.9,0.9,11,0.7c17.5-1.7,38.2-7,53.8-13.7
		c8.1-3.5,16.7-6.4,24.9-9.2c11.5-3.9,23.5-8,34.3-13.6c10.4-5.4,19.8-12.4,27.9-20.8c2.2-2.3,4.6-4.6,7-6.9
		c5.6-5.4,11.5-11.1,15.6-16.9c16-22.5,27.8-63,26.2-90.2l-0.4-6.8c-1.4-25.3-2.8-51.4-10.7-75.1c-5.8-17.5-14.7-40-32-58.4
		l-2.5-2.6c-10.2-10.9-20.7-22.1-29.9-33.9c-1.6-2-3.1-4.1-4.7-6.1c-5.2-6.9-10.5-14-17.2-19.5c-35.8-29.4-94.4-29.9-111.5-29.3
		l-0.1-2.7c17.3-0.6,76.8,0,113.3,29.9c7,5.7,12.4,13,17.7,20c1.5,2,3.1,4.1,4.6,6.1c9.1,11.6,19.6,22.8,29.8,33.7l2.5,2.6
		c17.7,18.9,26.7,41.7,32.6,59.4c8,24.1,9.4,50.4,10.8,75.9l0.4,6.8c1.6,27.8-10.4,69.1-26.7,92c-4.3,6-10.2,11.7-15.9,17.2
		c-2.4,2.3-4.8,4.6-7,6.9c-8.4,8.7-18,15.8-28.6,21.4c-11,5.7-23.1,9.8-34.7,13.8c-8.2,2.8-16.7,5.7-24.7,9.1
		c-15.9,6.8-36.8,12.1-54.6,13.9c-2.4,0.2-6.9-0.2-11.6-0.7c-5.5-0.6-15.7-1.6-16.8-0.2L298.9,4746.1z"/>
	<path class="st1" d="M319.6,4572l0.1-2.7c8.1,0.3,15.6-2.1,19.9-6.5c3.2-3.2,4.7-7.4,4.5-12.5c-0.3-7.1-4.8-17-10.9-20.5
		c-3.1-1.8-6.4-1.8-9.8,0l-1.3-2.4c4.2-2.2,8.5-2.2,12.4,0.1c7.1,4.1,11.9,14.9,12.2,22.7c0.3,5.8-1.5,10.7-5.2,14.5
		C336.6,4569.6,328.6,4572.3,319.6,4572z"/>
	<path class="st1" d="M321,4592.1l0.5-2.7c8.5,1.5,16.9-5,23.7-10.2c0.9-0.7,1.8-1.4,2.7-2.1c10.6-7.9,11.1-16.2,8.2-30.6
		c-1.6-8.3-11.4-30.4-22.8-35.5c-3.5-1.6-6.7-1.4-9.8,0.5l-1.4-2.3c3.9-2.3,8.1-2.5,12.3-0.6c12,5.4,22.4,27.6,24.4,37.4
		c3,15.2,2.4,24.6-9.3,33.3c-0.9,0.6-1.8,1.3-2.7,2.1C339.7,4586.9,330.7,4593.8,321,4592.1z"/>
	<path class="st1" d="M313.7,4608.5l0.2-2.7c11.9,0.9,26.1-2.2,36.9-7.9c16.1-8.6,23.8-16.2,23.2-36.8c-0.5-20.4-6.9-68-55.7-68.6
		l0-2.7c36.1,0.5,57.3,26.5,58.4,71.3c0.5,21.7-7.9,30.3-24.7,39.2C340.9,4606.2,326.2,4609.4,313.7,4608.5z"/>
	<path class="st1" d="M307,4629.5c21.6-4.7,42.3-14.5,55.2-26.4c17.2-15.8,22.4-31.6,17.9-54.6c-0.6-3-1.1-6.2-1.7-9.6
		c-2.7-15.6-6-35.1-15.1-46.5c-11.5-14.3-30.3-22.8-50.2-22.7l0-2.7c20.8-0.1,40.3,8.8,52.3,23.8c9.6,11.9,13,31.8,15.7,47.8
		c0.6,3.4,1.1,6.6,1.7,9.6c4.7,24.1-0.8,40.6-18.7,57.1c-13.3,12.2-34.4,22.3-56.5,27.1L307,4629.5z"/>
	<path class="st1" d="M306.5,4644.3c3-1.6,7-2.4,10.8-3.1c3.5-0.7,7.1-1.4,10-2.7c4.4-2,8.9-4.8,13.3-7.5c2.6-1.6,5.3-3.2,7.9-4.7
		c15.1-8.4,35.7-22.6,48.1-42c7.9-12.5,8.2-32.2,0.9-52.8c-0.8-2.2-1.5-4.4-2.3-6.6c-6.6-18.9-13.3-38.4-30.3-49.1l-2.1-1.3
		c-16-10.2-34.1-21.7-53.2-21.3l-0.1-2.7c19.9-0.4,38.4,11.4,54.7,21.7l2.1,1.3c17.8,11.3,24.7,31.2,31.4,50.5
		c0.8,2.2,1.5,4.4,2.3,6.6c7.6,21.4,7.2,42-1.1,55.2c-12.7,19.9-33.7,34.4-49,43c-2.6,1.4-5.2,3.1-7.8,4.6c-4.4,2.7-9,5.6-13.6,7.6
		c-3.2,1.4-6.9,2.2-10.6,2.9c-3.8,0.7-7.4,1.4-10.1,2.8L306.5,4644.3z"/>
	<path class="st1" d="M297.8,4661.9c0.7-0.8,2.7-1.4,12.8-3.7c3.4-0.8,6.7-1.5,8.3-2c4.4-1.3,8.8-2.3,13-3.2c9.2-2,17.8-4,26.3-9.2
		c33.3-20.6,52.2-38.9,57.5-56c5.3-16.9,2.1-44.4-3.8-62.8c-8.9-27.5-18.8-53.7-41.9-71.3c-8-6.1-17.7-9.1-26.9-11.7
		c-8.9-2.5-25.6-6.7-37.1-6.2l-0.1-2.7c11.8-0.5,28.8,3.7,37.9,6.3c9.5,2.7,19.5,5.8,27.8,12.2c23.7,18,34.1,45.8,42.8,72.6
		c6.1,18.8,9.3,47,3.9,64.4c-5.6,17.8-24.8,36.6-58.7,57.5c-8.9,5.5-17.7,7.4-27.1,9.5c-4.2,0.9-8.5,1.9-12.8,3.2
		c-1.7,0.5-5,1.3-8.5,2.1c-4.2,1-10.6,2.4-11.5,3L297.8,4661.9z"/>
	<path class="st1" d="M300.2,4674.3c9.1-2.5,18.8-4.5,29.1-6.5c12.1-2.4,24.5-4.9,35.8-8.4c39.8-12.3,65.2-33.8,75.4-63.9
		c8.3-24.4-6.2-58.5-16.9-83.4c-0.9-2.2-1.8-4.2-2.6-6.2c-0.9-2-1.7-4.2-2.7-6.4c-8.7-21.2-20.6-50.2-40.2-59.8
		c-19.4-9.5-51.5-20.8-75.9-23l0.2-2.7c24.8,2.2,57.2,13.6,76.8,23.3c20.5,10,32.6,39.6,41.5,61.2c0.9,2.2,1.8,4.4,2.7,6.4
		c0.8,2,1.7,4.1,2.6,6.2c10.8,25.3,25.6,60,16.9,85.4c-10.5,31-36.5,53-77.2,65.6c-11.4,3.5-23.9,6-36.1,8.5
		c-10.3,2.1-20,4-28.9,6.5L300.2,4674.3z"/>
	<path class="st1" d="M293.9,4686.1l2.5-0.3c26.2-3.6,51-7.1,76.8-16.4l4.1-1.5c13.1-4.6,25.5-9,36.4-18.2
		c11.3-9.4,19.3-19.4,27.9-30.5l0.4-0.5c8.3-10.7,14.2-18.4,15-32.3c0.9-16-2.9-31.9-6.6-47.1l-1.2-5c-7.8-32.9-18.5-78-48.6-104.6
		c-1.6-1.5-3.3-3.1-5.1-4.7c-5.4-5.1-11.1-10.4-17.1-13.3c-3.9-1.9-8.6-2.5-13.1-3.2c-3.2-0.5-6.5-0.9-9.5-1.8
		c-3.8-1.1-7.9-2.5-12.2-3.9c-13.7-4.5-29.2-9.6-41.8-9.1l-0.1-2.7c13.1-0.5,28.8,4.6,42.7,9.2c4.3,1.4,8.4,2.8,12.2,3.9
		c2.9,0.8,5.9,1.3,9.2,1.8c4.7,0.7,9.6,1.4,13.9,3.4c6.5,3.1,12.2,8.5,17.8,13.8c1.7,1.6,3.4,3.2,5,4.6
		c30.7,27.2,41.5,72.8,49.4,106l1.2,5c3.7,15.5,7.6,31.5,6.7,47.9c-0.8,14.7-7,22.7-15.6,33.8l-0.4,0.5
		c-8.7,11.2-16.8,21.3-28.3,30.9c-11.3,9.4-23.9,13.9-37.2,18.6l-4.1,1.5c-26.1,9.4-51,12.8-77.4,16.5l-2.5,0.3L293.9,4686.1z"/>
	<path class="st1" d="M291.7,4708.9c15.2-4.7,31.3-8.8,46.8-12.7c20.9-5.2,42.5-10.7,62.8-18c28.3-10.2,56.5-40.4,65.7-70.4
		c12.3-40.3,11.9-73.1-1.4-109.5c-11.5-31.8-32.6-65.4-59.5-94.8c-25.7-28.2-63.6-31.6-103.4-32.8l0.1-2.7
		c40.4,1.2,78.9,4.7,105.3,33.7c27,29.6,48.4,63.6,60,95.7c13.5,37.1,13.9,70.3,1.4,111.2c-9.4,30.7-38.3,61.8-67.3,72.2
		c-20.4,7.3-42.1,12.8-63.1,18c-15.5,3.9-31.5,7.9-46.7,12.6L291.7,4708.9z"/>
	<path class="st1" d="M286.8,4724.5c5.3-2.8,12.3-2.9,19-3c2.8-0.1,5.5-0.1,8-0.3c10.8-1,21.6-3.8,32.1-6.5c2.2-0.6,4.4-1.1,6.6-1.7
		c3-0.7,5.9-1.4,8.9-2.2c19.3-4.6,39.2-9.4,55.7-20.3c5.7-3.8,11.6-6,17.3-8.2c3-1.1,6.1-2.3,9.2-3.7c9.3-4.3,20-13.8,25.6-19.1
		c23-21.9,29.3-58.3,31-72.9c1.2-10.7-0.1-21.4-1.4-31.8c-0.3-2.4-0.6-4.9-0.9-7.3c-0.6-5.2-0.8-10.4-0.9-15.5
		c-0.3-8.1-0.6-16.5-2.5-24.5c-5.6-23.3-19-41.7-30.1-55.3c-6-7.3-13-14-19.8-20.4c-9-8.6-18.4-17.5-25.6-28.2
		c-7.4-11-14.2-19.4-24.8-27.3c-8.5-6.3-18.1-7.9-28.2-9.7c-4-0.7-8.2-1.4-12.3-2.5c-6.3-1.6-13.7-2.2-20.9-2.8
		c-10.8-0.9-21.9-1.9-30.2-6.1l1.2-2.4c7.8,4,18.7,4.9,29.2,5.8c7.3,0.6,14.8,1.3,21.3,2.9c4,1,8.1,1.7,12.1,2.4
		c10,1.7,20.4,3.5,29.4,10.2c10.9,8.1,18.1,17,25.5,28c7.1,10.5,16.3,19.3,25.3,27.8c6.8,6.5,13.9,13.2,20,20.7
		c11.3,13.7,24.9,32.6,30.7,56.3c2,8.2,2.3,16.8,2.6,25c0.2,5,0.4,10.3,0.9,15.3c0.3,2.4,0.6,4.9,0.9,7.3
		c1.3,10.6,2.7,21.5,1.4,32.5c-1.7,14.9-8.1,52.1-31.8,74.6c-5.7,5.4-16.6,15.1-26.3,19.6c-3.1,1.4-6.3,2.6-9.3,3.8
		c-5.8,2.2-11.3,4.3-16.7,7.9c-16.8,11.2-37,16-56.5,20.7c-3,0.7-5.9,1.4-8.9,2.2c-2.2,0.5-4.4,1.1-6.6,1.7
		c-10.6,2.7-21.6,5.5-32.5,6.6c-2.6,0.3-5.5,0.3-8.3,0.4c-6.4,0.1-13,0.2-17.8,2.7L286.8,4724.5z"/>
</g>
<path class="st0" d="M460.7,2662C301,2659,208.5,2693.5,212,2783.8c4.7,122.9,41.6,244.6,78.4,365.9c6.8,22.4,14.2,45.5,37.7,64.1
	c23.6,18.5,68.3,30.9,106.2,22.4c30.8-6.9,48.6-25.4,53.9-43.6c5.3-18.2,0.5-36.7-0.1-55.1c-2.2-65.2,50-130.3,138.8-173.1
	c32.3-15.5,69.2-28.3,97.4-46.2c53.9-34.1,51.5-119.5,19.6-159.5C696.7,2699.4,577.6,2664.1,460.7,2662z"/>
<g>
	<path class="st2" d="M2529.3,8226.2c1.6-10.9,5.8-20.4,18.7-20.1c11.3,0.3,18,8.1,18.3,19.1c0.3,12.9-9.4,17.9-20.4,18.8
		C2534.3,8245,2530.1,8237,2529.3,8226.2z"/>
	<path class="st2" d="M2707.3,8436.1c-2.8,9.8-3.7,21.9-17.3,21.9c-11.5,0-19.6-7.3-20-19.3c-0.3-11.7,7.4-17.7,18.4-18.3
		C2698.9,8419.8,2705.7,8425,2707.3,8436.1z"/>
	<path class="st2" d="M2611.9,8413.9c1.9-11.6,5.3-22.4,19.2-22.6c11.3-0.1,18.5,7.4,18.9,18.4c0.4,13.6-10,18.7-21.5,19.9
		C2617.6,8430.8,2613.5,8423.2,2611.9,8413.9z"/>
	<path class="st2" d="M2521.8,8301.5c-1,12.9-14.3,28.4-23.3,27c-8.5-1.4-14.9-6.4-15-15.9c-0.2-9.6,17.1-26,26.7-25.6
		C2520.1,8287.4,2521.9,8294.3,2521.8,8301.5z"/>
	<path class="st2" d="M2720,8347.2c11,1.3,19.1,5.7,18,17.1c-1,10.2-3.8,21.6-17.5,20.9c-11.7-0.6-19-8.3-19-20.2
		C2701.5,8353.1,2710.3,8348.9,2720,8347.2z"/>
	<path class="st2" d="M2528.1,8379c-0.4-11.8,10.1-25.7,20.2-26c11.1-0.3,16.8,6,17.2,16.7c0.3,10.4-12.8,21.6-24.6,21.7
		C2532.5,8391.4,2528.4,8387.2,2528.1,8379z"/>
	<path class="st2" d="M2625.4,8282.4c-8.1,0.2-12.8-3.4-13.3-11.8c-0.7-12.3,11-27.2,21.4-26.5c9.9,0.6,15.4,6.7,16.1,16.5
		C2650.3,8270.9,2637.6,8282.1,2625.4,8282.4z"/>
	<path class="st2" d="M2575.1,8469.6c0,14.8-12.9,31.7-22.6,30.6c-9.2-1-16.1-6.2-16.6-16.4c-0.6-10.8,16.4-26.4,27.8-25.8
		C2572.6,8458.4,2575,8464.3,2575.1,8469.6z"/>
	<path class="st2" d="M2679.7,8307.3c1.6-10.5,4.4-21.2,18.5-21.4c9.1-0.1,14.9,5.2,15.3,14.8c0.4,9.4-13.1,22.6-22.5,21.8
		C2682.3,8321.8,2680.1,8315.5,2679.7,8307.3z"/>
	<path class="st2" d="M2644.1,8182.8c1.5-9.9,4.5-19.8,17.7-20.1c10-0.2,16.5,5.5,15.5,15.9c-1.2,12.5-10.4,19-21.7,20.3
		C2645.7,8199.9,2644.1,8191.7,2644.1,8182.8z"/>
	<path class="st2" d="M2586.3,8329.7c1.2-9,1.6-18.8,12.1-19c11.2-0.2,13.1,9.6,13.5,18.5c0.4,8.8-3.1,17.2-12.8,17.2
		C2588.9,8346.4,2587.9,8336.7,2586.3,8329.7z"/>
	<path class="st2" d="M2771.1,8245.1c-1.1,9.5-3.6,18.3-13.1,18.1c-10.8-0.2-12.7-10-12.5-18.8c0.2-8,1.7-17.5,12.1-17.1
		C2768.3,8227.8,2769.1,8238,2771.1,8245.1z"/>
</g>
<g>
	<path class="st1" d="M287.3,1550c2.6-4,12.8-3.4,29.5-2c6.9,0.6,13.5,1.2,16.8,0.8c26.6-3,57.9-11.5,81.6-22
		c12.3-5.5,25.2-10.1,37.7-14.6c17.5-6.2,35.5-12.7,51.9-21.5c15.6-8.4,29.8-19.3,42-32.3c3.3-3.5,6.9-7,10.5-10.7
		c8.5-8.4,17.2-17.1,23.4-26c23.9-34.6,40.9-96.4,37.9-137.9l-0.7-10.3c-2.7-38.4-5.4-78.1-17.9-114.1c-9.2-26.5-23.2-60.5-50-88.2
		l-3.8-4c-15.7-16.3-32-33.2-46.3-50.8c-2.4-3-4.8-6.1-7.2-9.2c-8-10.4-16.3-21.1-26.6-29.3c-55-43.9-144.2-43.4-170.2-42.2
		l-0.2-4.1c26.4-1.2,116.8-1.7,173,43.1c10.7,8.6,19.2,19.5,27.3,30c2.4,3.1,4.8,6.1,7.2,9.1c14.1,17.5,30.3,34.3,46,50.6l3.8,4
		c27.3,28.3,41.5,62.8,50.9,89.7c12.7,36.5,15.5,76.5,18.2,115.2l0.7,10.3c3,42.3-14.3,105.3-38.7,140.5c-6.4,9.2-15.3,18-23.8,26.6
		c-3.6,3.6-7.2,7.1-10.4,10.6c-12.6,13.4-27,24.5-43.1,33.1c-16.7,9-34.9,15.5-52.5,21.8c-12.4,4.4-25.3,9-37.4,14.4
		c-24,10.7-55.7,19.2-82.8,22.3c-3.7,0.4-10.5-0.2-17.6-0.8c-8.4-0.7-23.9-2.1-25.6,0.1L287.3,1550z"/>
	<path class="st1" d="M314.9,1284.7l0.1-4.1c12.4,0.3,23.6-3.6,30.1-10.3c4.8-5,7-11.4,6.5-19.1c-0.7-10.8-7.7-25.8-17-30.9
		c-4.8-2.7-9.8-2.6-15,0.2l-2-3.6c6.4-3.5,12.9-3.5,18.9-0.2c10.9,6,18.4,22.5,19.1,34.3c0.6,8.9-2,16.3-7.7,22.2
		C340.7,1280.7,328.6,1284.9,314.9,1284.7z"/>
	<path class="st1" d="M317.6,1315.2l0.7-4.1c13,2.1,25.6-7.9,35.8-16c1.4-1.1,2.8-2.2,4.1-3.2c15.9-12.3,16.5-24.9,11.8-46.7
		c-2.7-12.6-18-46-35.5-53.5c-5.3-2.3-10.2-2-15,0.9l-2.1-3.5c5.9-3.6,12.2-4,18.7-1.2c18.4,7.9,34.7,41.4,37.9,56.4
		c4.9,23.1,4.2,37.3-13.4,50.9c-1.3,1-2.7,2.1-4,3.2C345.8,1306.9,332.4,1317.6,317.6,1315.2z"/>
	<path class="st1" d="M306.9,1340.3l0.2-4.1c18.2,1.1,39.6-3.9,55.9-12.9c24.3-13.4,35.8-25.2,34.5-56.4
		c-1.2-31.1-11.9-103.3-86.3-103.2l0-4.1c54.9-0.1,87.8,39,90.4,107.2c1.2,33.1-11.4,46.3-36.7,60.2
		C348,1336.3,325.7,1341.4,306.9,1340.3z"/>
	<path class="st1" d="M297,1372.5c32.8-7.6,64-23.1,83.4-41.4c25.8-24.3,33.3-48.5,26-83.5c-1-4.5-1.9-9.5-2.8-14.6
		c-4.4-23.7-9.9-53.3-24.1-70.4c-17.8-21.6-46.6-34.1-76.9-33.5l-0.1-4.1c31.6-0.6,61.5,12.5,80.1,35c14.8,18,20.4,48.1,24.9,72.3
		c1,5.1,1.9,10,2.8,14.6c7.6,36.6-0.3,61.9-27.2,87.3c-20,18.8-51.9,34.7-85.3,42.4L297,1372.5z"/>
	<path class="st1" d="M296.7,1394.9c4.6-2.5,10.6-3.7,16.4-4.9c5.3-1.1,10.8-2.3,15.1-4.3c6.7-3.2,13.5-7.5,20-11.7
		c3.9-2.5,7.9-5.1,11.9-7.3c22.8-13.2,53.8-35.1,72.2-65c11.8-19.1,11.8-49.2,0.2-80.3c-1.2-3.3-2.4-6.6-3.7-10
		c-10.4-28.5-21.1-58.1-47.2-74.1l-3.2-2c-24.5-15.1-52.4-32.2-81.4-31.3l-0.1-4.1c30.2-1,58.6,16.5,83.7,31.9l3.2,2
		c27.3,16.8,38.3,47,48.9,76.2c1.2,3.3,2.4,6.7,3.7,9.9c12.1,32.4,11.9,63.7-0.5,83.9c-18.8,30.6-50.5,53-73.7,66.4
		c-3.9,2.2-7.9,4.8-11.7,7.2c-6.7,4.3-13.6,8.6-20.5,11.9c-4.8,2.3-10.5,3.5-16,4.6c-5.8,1.2-11.2,2.3-15.3,4.5L296.7,1394.9z"/>
	<path class="st1" d="M283.7,1422c1-1.3,4.1-2.2,19.4-6c5.2-1.3,10.1-2.5,12.6-3.3c6.7-2.1,13.3-3.7,19.7-5.2
		c13.9-3.3,27-6.4,39.8-14.6c50.3-32,78.5-60.3,86.3-86.5c7.7-25.8,2.2-67.6-7.2-95.4c-14.1-41.7-29.7-81.3-65.3-107.6
		c-12.3-9.1-27.1-13.5-41.2-17.3c-13.6-3.6-39.1-9.6-56.5-8.6l-0.2-4.1c18-1,43.9,5,57.8,8.7c14.5,3.9,29.7,8.4,42.6,17.9
		c36.4,26.9,52.9,68.9,66.7,109.6c9.6,28.5,15.2,71.3,7.3,97.9c-8.1,27.2-36.9,56.2-88,88.8c-13.4,8.5-26.8,11.7-41.1,15.1
		c-6.3,1.5-12.8,3.1-19.4,5.1c-2.6,0.8-7.6,2-12.9,3.3c-6.4,1.6-16.1,3.9-17.4,4.8L283.7,1422z"/>
	<path class="st1" d="M287.7,1440.7c13.7-4,28.5-7.2,44.2-10.6c18.3-4,37.2-8,54.3-13.6c60.3-19.6,98.4-52.9,113.3-98.9
		c12.1-37.3-10.8-88.9-27.5-126.6c-1.4-3.3-2.8-6.4-4.2-9.4c-1.3-3.1-2.7-6.4-4.2-9.7c-13.7-32-32.5-75.9-62.4-90
		c-29.8-14.1-78.7-30.5-115.9-33.3l0.3-4.1c37.7,2.9,87.3,19.5,117.4,33.7c31.3,14.8,50.5,59.5,64.5,92.1c1.4,3.4,2.8,6.6,4.2,9.7
		c1.3,3,2.7,6.2,4.2,9.4c17,38.3,40.2,90.7,27.7,129.5c-15.3,47.3-54.4,81.5-116,101.5c-17.3,5.6-36.3,9.7-54.7,13.7
		c-15.6,3.4-30.3,6.5-43.9,10.5L287.7,1440.7z"/>
	<path class="st1" d="M278.3,1458.8l3.8-0.6c39.9-6.1,77.5-11.9,116.5-26.6l6.2-2.3c19.8-7.4,38.5-14.3,54.9-28.4
		c16.9-14.5,28.9-29.9,41.8-47l0.6-0.8c12.3-16.4,21.2-28.3,22.1-49.4c1-24.4-5.1-48.4-11.1-71.6l-1.9-7.6
		c-12.6-49.9-29.9-118.2-76.3-158.1c-2.5-2.2-5.1-4.6-7.8-7c-8.4-7.7-17-15.6-26.4-19.9c-6-2.7-13.1-3.7-20-4.6
		c-4.9-0.6-9.9-1.3-14.6-2.6c-5.8-1.6-12.1-3.6-18.7-5.6c-20.9-6.5-44.6-14-63.8-12.9l-0.2-4.1c19.9-1.1,44,6.4,65.2,13.1
		c6.6,2.1,12.8,4,18.6,5.6c4.4,1.2,9.1,1.8,14,2.5c7.2,0.9,14.6,1.9,21.2,4.9c9.9,4.5,18.8,12.7,27.4,20.6c2.6,2.4,5.2,4.8,7.7,6.9
		c47.3,40.8,64.8,109.8,77.6,160.2l1.9,7.6c6,23.5,12.3,47.7,11.2,72.8c-1,22.4-10.2,34.7-22.9,51.7l-0.6,0.8
		c-13,17.3-25.1,32.8-42.4,47.7c-17,14.6-36,21.7-56.2,29.1l-6.2,2.3c-39.4,14.8-77.3,20.6-117.4,26.8l-3.8,0.6L278.3,1458.8z"/>
	<path class="st1" d="M275.5,1493.6c23-7.5,47.4-14,70.9-20.3c31.7-8.4,64.4-17.2,95.2-28.7c42.8-16.1,85.1-62.7,98.3-108.6
		c17.8-61.6,16.5-111.4-4.5-166.6c-18.2-48.1-51.1-98.8-92.5-142.9c-39.7-42.3-97.4-46.6-158-47.6l0.1-4.1
		c61.5,1,120.1,5.4,161,48.9c41.8,44.5,75,95.7,93.4,144.3c21.3,56.1,22.7,106.7,4.6,169.2c-13.6,47-56.9,94.8-100.8,111.3
		c-30.9,11.6-63.8,20.4-95.5,28.8c-23.5,6.3-47.8,12.7-70.7,20.2L275.5,1493.6z"/>
	<path class="st1" d="M268.4,1517.5c8-4.4,18.6-4.7,28.8-5.1c4.3-0.1,8.4-0.3,12.2-0.7c16.3-1.8,32.8-6.3,48.7-10.6
		c3.4-0.9,6.7-1.8,10-2.7c4.5-1.2,9-2.3,13.5-3.5c29.3-7.5,59.5-15.2,84.2-32.1c8.5-5.9,17.5-9.4,26.1-12.8
		c4.6-1.8,9.3-3.7,13.9-5.9c14.1-6.7,30.2-21.4,38.5-29.6c34.5-33.8,43.3-89.3,45.5-111.6c1.6-16.3-0.7-32.6-2.9-48.4
		c-0.5-3.7-1-7.4-1.5-11.1c-1-7.9-1.4-15.9-1.8-23.6c-0.6-12.3-1.3-25.1-4.3-37.2c-9-35.3-29.9-63.1-47-83.4
		c-9.3-11-20.1-21-30.5-30.6c-13.9-12.9-28.4-26.2-39.6-42.4c-11.6-16.6-22-29.3-38.4-41c-13-9.3-27.7-11.7-43.1-14.1
		c-6.1-1-12.5-2-18.7-3.5c-9.6-2.3-20.9-3.1-31.8-3.9c-16.4-1.2-33.4-2.4-46.1-8.6l1.8-3.7c12,5.9,28.6,7,44.6,8.2
		c11.1,0.8,22.6,1.6,32.5,4c6.1,1.4,12.4,2.4,18.4,3.4c15.3,2.4,31.1,4.9,44.9,14.8c16.8,12,27.9,25.5,39.4,42
		c11,15.8,25.3,29,39.1,41.7c10.5,9.7,21.4,19.7,30.9,31c17.5,20.6,38.7,49,47.9,85c3.2,12.5,3.8,25.4,4.5,38
		c0.4,7.7,0.8,15.6,1.8,23.3c0.5,3.7,1,7.4,1.5,11.1c2.2,16,4.5,32.6,2.9,49.4c-2.2,22.7-11.2,79.4-46.7,114.2
		c-8.5,8.3-25,23.4-39.6,30.4c-4.7,2.3-9.5,4.2-14.1,6c-8.8,3.5-17.1,6.8-25.3,12.4c-25.3,17.4-55.9,25.2-85.5,32.7
		c-4.5,1.1-9,2.3-13.5,3.5c-3.3,0.9-6.6,1.8-10,2.7c-16.1,4.3-32.7,8.8-49.3,10.7c-4,0.4-8.3,0.6-12.5,0.7
		c-9.7,0.3-19.8,0.6-26.9,4.5L268.4,1517.5z"/>
</g>
<path class="st0" d="M1081.6,6855.9c-7.3,15.2-18,39.3-30.4,51.4c-21.1,20.9-62.8,22.1-90.8,24.7c-46.8,4.3-111.5-0.2-153,25.7
	c-31,19.3-58.3,63.9-65.4,98.9c-6.1,29.9-2.1,56.7-18.7,84.6c-8.6,14.4-19,26.6-26.1,41.9c-8.8,18.9-13,41-24.5,58.9
	c-34.7,53.9-115.1-5.4-159.7-19c-71.7-21.9-112.9,82.3-129.6,134.2c-20,62.3,20.3,89.8,76.7,108.5c60.4,20.1,125.5,22.8,188.3,29.5
	c77.1,8.2,160.2,40.1,238.4,21c91.4-22.3,159.3-79,179.7-170.9c23.2-104.9,57.2-205.3,59-314.2c0.6-35.5,20.4-144.3-23.5-166.6
	c-17-8.6-36,1-45.9,15"/>
<g>
	<path class="st8" d="M570.3,7030.4c5.3,22.7,15.3,43.9,25.1,65c2.9,6.3,5.9,12.6,8.9,18.9c-6.2-9.4-12.8-18.4-19.9-27.1
		c-38.8-57.6-91-106.1-151.4-140.5c4.9,7.7,9.8,15.4,14.6,23c10.1,15.9,20.2,31.8,32.5,46.1c34.1,39.5,83.2,63.9,119.9,100.6
		c1.3,2.6,2.6,5.1,3.9,7.5c3.1,6,6.1,12,9,18.1c-2.2-2.4-4.6-4.7-7.1-6.8c-7-5.6-15-9.8-23-13.8c-21.6-11-43.4-21.8-65.2-32.5
		c-28.5-13.9-58.1-27.7-89.8-29.5c18.3,9.5,31.4,26.2,45.6,41.2c14.2,14.9,31.5,29,52,30.5c9.7,0.7,19.5-1.6,29.2-1.4
		c12.8,0.3,25.1,4.8,37.1,9.3c6.8,2.5,13.6,5.1,19.7,9.1c2.6,1.7,5,3.8,7.1,6.1c3,6.9,5.9,14,8.5,21c4,10.6,7.8,21.6,11.2,32.7
		c-10.5-11.1-25.9-16.6-40.1-21.1c-11.7-3.7-23.6-7-35.3-10.7c-38.4-12.1-75.4-28.3-112-45.1c28.9,14.8,35.7,56.9,65.1,70.8
		c11.3,5.3,24.3,5.6,36.1,9.6c11.3,3.8,21.4,11.1,33.2,12.6c12.7,1.7,25.6-3.4,38.2-1.4c8.9,1.4,16.9,6.5,22.3,13.6
		c2.8,12.6,4.8,25.3,5.6,37.9c0.3,4,0.5,8,0.6,12c-2.9-4.7-7.4-9.1-9.8-11.3c-8.1-7.3-18.1-12.4-28.8-14.3c-11.3-2-23-0.6-34.2-3.2
		c-16.8-3.9-30.6-16.1-47.3-20.6c-11.1-3-22.8-2.3-34.2-3.4c-11.4-1.1-23.4-4.6-30.6-13.6c9.8,13.2,19.6,26.5,31.3,38
		c11.7,11.5,25.5,21.3,41.2,26.2c19.2,6,39.8,4.3,59.9,4.4c10.5,0.1,21.1,0.7,31.3,3.1c4.3,1,16.5,7.9,21.4,6.8
		c0,25.7-2.6,51.3-8,76.5c-0.6,2.7-1.2,5.5-0.7,8.2c0.5,2.7,2.5,5.4,5.3,5.7c2.4,0.3,4.8-1.3,6.2-3.3c1.4-2.1,1.9-4.6,2.3-7
		c6-31.3,6.6-61.8,3.9-92.5c0.1-0.1,0.2-0.2,0.3-0.3c2.6-3.3,3.6-8.8,5.9-12.5c2.7-4.5,6-8.6,9.5-12.4c9.4-10,20.6-18,29.7-28.3
		c11.1-12.5,24.4-32.4,36.8-43.6c10.4-9.3,18-10.7,27.4-21c10-11.1,14.5-26.2,15.2-41.1c0.8-14.9-1.8-29.7-4.4-44.4
		c-1.3,11.8-7.3,22.6-15,31.7c-7.7,9-16.9,16.6-25.9,24.3c-19.9,17.3-38.5,36.4-53.3,58.3c-14,20.7-24.5,44.1-28.5,68.8
		c-0.9-7.1-2-14.3-3.3-21.4c-1.7-9.7-3.7-19.3-6.2-28.8c0.7-2.5,1.6-5,2.7-7.3c5-10.5,12.8-19.2,19-29c17-27,20.2-60.2,22.9-92.1
		c1.7-20.1,3.4-40.3,1.9-60.4c-1.6-20.1-6.6-40.3-17.3-57.4c6.7,18.8-0.6,39.6-9.8,57.3c-9.2,17.7-20.6,35.1-22.8,54.9
		c-1.9,17.1,3.3,34.1,5.3,51.2c2.9,24.4-0.7,48.8-4.7,73.1c-7.1-24.3-17-47.7-29.3-69.8c-1.2-8.9-1.2-18.3-1.8-25.4
		c-1.3-16-1.9-32.1-4.2-48c-3.9-28.1-12.3-55.4-20.8-82.6c-4.2-13.7-8.5-27.4-15.4-40c-6.9-12.5-16.7-23.9-29.6-30.2
		c10.1,18.1,14.1,38.8,16.5,59.3C564.6,6989.5,565.6,7010.3,570.3,7030.4z"/>
	<g>
		<path class="st2" d="M506.7,7245.8c9,0.4,17.7,3.3,25.2,8.3c2.6,1.7,5.1,3.8,7.4,5.7c3.2,2.6,6.4,5.2,10,7.2
			c11.2,6.2,24.1,5.5,37.8,4.7c8.5-0.5,17.3-1,25.7,0.3c13.5,2.1,26.3,9.3,35.1,19.7l-2.2,1.9c-8.4-9.8-20.6-16.7-33.4-18.7
			c-8.1-1.3-16.8-0.8-25.1-0.3c-13.5,0.8-27.4,1.6-39.4-5.1c-3.8-2.1-7.1-4.8-10.4-7.5c-2.3-1.9-4.7-3.9-7.2-5.5
			c-7-4.7-15.2-7.4-23.7-7.8L506.7,7245.8z"/>
	</g>
	<g>
		<path class="st2" d="M500.3,7166.5c9.7,4,18.9,9.3,27.9,14.6c16.1,9.3,31.2,18.2,48.9,19.9c4.7,0.4,9.5,0.4,14.1,0.3
			c4.9-0.1,9.9-0.2,14.9,0.3c11.9,1.2,21.3,6.3,25.7,14l-2.5,1.5c-4-6.9-12.5-11.4-23.5-12.6c-4.8-0.5-9.7-0.4-14.5-0.3
			c-4.7,0.1-9.6,0.2-14.5-0.3c-18.3-1.8-34.4-11.2-50.1-20.2c-8.9-5.2-18.1-10.5-27.5-14.4L500.3,7166.5z"/>
	</g>
	<g>
		<path class="st2" d="M461.6,7073.3c11.6,1.6,20.8,9.8,27.6,16.8c1.4,1.5,2.8,3,4.2,4.5c5.8,6.2,11.7,12.6,19,16.6
			c9.4,5.2,20.5,6.4,31.3,7.6c3.3,0.4,6.6,0.7,9.9,1.2c19.4,2.8,38.3,9.8,54.8,20.4l-1.6,2.5c-16.1-10.4-34.7-17.3-53.6-20
			c-3.2-0.5-6.5-0.8-9.8-1.2c-11.1-1.2-22.5-2.4-32.4-7.9c-7.7-4.3-13.8-10.9-19.8-17.2c-1.4-1.5-2.8-3-4.2-4.5
			c-6.4-6.7-15.2-14.5-25.9-16L461.6,7073.3z"/>
	</g>
	<g>
		<path class="st2" d="M466.6,6985.7l1.5-2.5c10.9,6.5,20.7,14.6,29.2,24.1c2.5,2.8,5,5.8,7.3,8.7c3.2,3.9,6.4,7.9,10,11.6
			c4.5,4.7,9.6,8.9,14.6,13l1.6,1.4c23,19.2,45.2,39.9,65.9,61.5l-2.1,2c-20.7-21.5-42.8-42.2-65.7-61.3l-1.6-1.3
			c-5-4.2-10.2-8.5-14.8-13.2c-3.6-3.7-6.9-7.8-10.1-11.7c-2.3-2.9-4.7-5.8-7.2-8.6C486.8,6999.9,477.3,6992,466.6,6985.7z"/>
	</g>
	<g>
		<path class="st2" d="M572.7,6970.3l2.7-1.1c3.2,8.1,6.6,16.5,7.9,25.3c0.3,1.9,0.5,3.8,0.7,5.7c0.3,2.9,0.6,5.8,1.2,8.6
			c0.9,4,2.6,8,4.1,11.8l0.5,1.2c11.3,27.4,19.2,56.2,23.4,85.6l-2.9,0.4c-4.1-29.1-11.9-57.7-23.2-84.9l-0.5-1.2
			c-1.6-3.9-3.3-8-4.3-12.3c-0.7-3-1-6-1.3-9c-0.2-1.9-0.4-3.7-0.7-5.6C579.1,6986.5,575.8,6978.3,572.7,6970.3z"/>
	</g>
	<g>
		<path class="st2" d="M679.5,7033.5l2.9-0.5c2.9,16.4-2.6,32.5-7.9,48.1c-4.3,12.7-8.8,25.9-8.7,39.2c0,4.6,0.7,9.3,1.3,13.8
			c0.6,4.4,1.2,8.9,1.3,13.4c0.4,16.7-5.9,33.1-11.5,47.5l-2.7-1.1c5.5-14.2,11.7-30.2,11.3-46.4c-0.1-4.4-0.7-8.8-1.2-13.1
			c-0.6-4.6-1.2-9.4-1.3-14.2c-0.1-13.8,4.4-27.2,8.9-40.1C677.2,7064.2,682.3,7049.1,679.5,7033.5z"/>
	</g>
	<g>
		<path class="st2" d="M662.5,7270.9c23.5-40.3,46.7-70.1,73-93.7l1.3-1.2c8.3-7.4,16.9-15.1,18.6-25.6l2.9,0.5
			c-1.9,11.5-11.2,19.9-19.5,27.3l-1.3,1.1c-26,23.4-49,53-72.4,93L662.5,7270.9z"/>
	</g>
</g>
<g>
	<g>
		<path class="st6" d="M2504.8,135.1c20.6,12.9,41.9,24.4,64,34.7c21.7,10.1,44.1,18.3,66.6,26.2c33.4,9.9,67.2,18.2,101.9,22.4
			c8,1,16.1,1.7,24.2,2.6c1.4,0.1,3.1,0.1,3.4,1.6c0.5,2-1.6,1.6-2.6,2.2c-20.4,12.1-39.8,25.9-58.5,40.4
			c-29.9,23.3-57.9,48.7-86.2,73.7c-1.6,1.4-3.2,2.7-4.9,4.1c-19.8,17.8-39.6,35.5-59.4,53.2c-0.5,0.4-1.4,0.4-2.1,0.6
			c-6.6,8.4-15.5,14.4-24,20.4c-16.1,11.3-34,19.5-51,29.1c-12.8,7.2-26.3,9.3-40.1,11.6c-8.1,1.8-16,3.9-23.9,6.5
			c-27.9,9.4-53.5,23.7-78.7,38.7c-28.7,17.1-57.3,34.2-82.7,56c-11.5,9.9-22.5,20.4-32.1,33.5c4.5-0.2,8.1-0.3,11.7-0.6
			c49.8-4.1,94.5-22.4,135.9-49.8c15.9-10.6,31-22.3,45.5-34.7c13.4-11.4,25.7-23.9,38.5-35.9c9-10,18-19.3,30.9-25
			c24.5-10.9,47.2-25.1,67.6-42.8c1.6-1.4,3.5-2.3,5.3-3.4c11.7-11.9,24.8-22.4,37.4-33.4c-10,13.9-18.9,28.5-30,41.5
			c-6.7,11.4-14.9,21.9-22.7,32.6c-17.7,24.2-33.2,49.4-42.9,78c-4.6,15.4-7.4,31.1-10,46.9c0.5,9.2-1.6,18.5,0.2,27.9
			c14.3-7.7,25.4-18.4,36.6-29c2.2-3.3,4.7-6.4,7.8-8.9c1.8-2.5,3.4-5.1,5.3-7.5c18.5-25,30.7-53.1,41.2-82.2
			c3.2-8.8,5-18.1,9.3-26.5c1.6-10.3,5.8-20,8.6-29.9c5-17.5,9.7-35,10.4-53.2c0.1-2.1,0.7-3.6,2.2-5c27.8-24.5,55-49.6,84.3-73.4
			c-0.3,3.8-2.6,5.9-3.9,8.5c-16.4,31.7-25.7,66-36.4,99.8c-7.9,25.3-13.8,51-15.5,77.5c-1.1,17.2-0.6,34.3,1.8,51.4
			c0.3,2,1.1,4.1,0.3,6.2c2.4,5.7,2.5,11.9,4,17.8c2.8,10.7,2.7,10.7,10.9,2.9c0.8-0.8,1.8-1.5,2.7-2.2c3-4.4,6.2-8.7,9.1-13.2
			c12.5-19.8,19-42,25.8-64.2c9.6-31.5,18.1-63.1,18.1-96.3c0-29.8-4.2-59.2-9.2-88.5c-0.7-4,0.3-6.3,3.4-8.7
			c15.9-12.3,31.9-24.3,48.9-35.1c6.6-4.2,13.2-8.2,20.9-12.9c-0.5,2.1-0.5,2.9-0.8,3.5c-15.9,31.6-21.1,65.5-20.2,100.4
			c1.3,52.2,11.9,103.2,23.1,153.9c1.6,7.5,3.7,15,7.4,23.2c21.9-59.1,35.4-118.4,33.8-180.5c-1-37.4-11.3-71.5-38.9-98.6
			c-2.1-2.1-1.8-3.3,0.6-4.8c2.2-1.4,5.4-1.6,6.5-4.6c2.1,1.6,3.3-0.6,4.6-1.3c22.3-11.3,45.3-20.8,69.5-27.2
			c8.9-2.3,17.8-4.2,26.8-6.4c-0.5-0.6-1.1-1.1-1.6-1.7c-0.9,1.3-2.4,1.1-3.6,1.3c-32,5.8-62.2,16.9-91.1,31.6
			c-1.7,0.9-4.1,1-4.7,3.4c-1.6-1.1-2.9,0.3-3.8,1c-3.7,2.9-5.8,1.5-7.9-2c-13.8-23.1-33.9-39.2-57.3-51.6
			c-10.7-5.7-22.2-9.8-33.4-14.2c-0.9-0.2-1.9-0.3-2.8-0.6c-42-11.9-84.5-21.2-128.4-21.8c-16.4-0.2-32.5,2.2-48.1,7.6
			C2502.2,134.1,2503.7,134.4,2504.8,135.1z"/>
		<path class="st6" d="M2518.8,361.8c25.4-2.9,50.9-5.8,76.3-8.7c1.5-0.2,3.1-0.3,4.5-0.9c0.9-0.4,1.9-1.5,2.2-2.5
			c0.4-1.5-1.3-1.6-2.2-2c-4.8-2.3-9.7-4.6-14.6-6.9c-3.1-0.7-5.9-1.8-8.6-3.4c-30.7-10.6-62.5-16.2-94.5-21.2
			c-1.9-0.3-3.8-0.6-5.2-2.2c-1.3,2-3.1,0.9-4.7,0.6c-19.1-3.2-37.9-1.1-56.6,3.5c-16.1,3.9-32.1,8.6-47.8,13.9
			c-8,2.7-16.2,7-24.4,8.8c-4.6,1-10.6-0.3-14.6,2.9c5.2,10.9,18,10.8,28.1,12.9c13.3,2.8,26,6.6,39.6,8.1
			c21.4,2.4,42.9,2.2,64.4,0.4C2480,363.4,2499.4,362.8,2518.8,361.8z"/>
		<path class="st6" d="M2577.5,287.2l0-0.5c0,0,0,0,0,0c0,0,0,0,0,0L2577.5,287.2z"/>
		<path class="st6" d="M2570.1,286.1c2.5-0.3,5-0.2,7.4,0.5c18.1-0.1,36.1,0,54-2.8c18.2-2.7,35.8-7.2,52.8-14.3
			c1.7-0.7,3.4-1.7,5.6-1.6c-6.6-5.9-14-10.1-21.3-14.4c-17-10-35.3-17-53.8-23.6c-0.9-0.2-1.9-0.3-2.8-0.5
			c-60.2-17.1-119.6-16.3-178.1,7.1c-5.1,3-10.2,6.1-14.3,10.5c-2.4,2.6-2.2,4,1.4,5c7.9,2.3,15.8,4.8,23.6,7.2
			C2485.8,271.8,2527.2,282.4,2570.1,286.1z"/>
	</g>
	<path class="st6" d="M2596.4,350.7c-26.4,0.7-51.4-11.7-77.6-14.7c-41.2-4.7-82.1,13.8-123.4,10.7"/>
	<path class="st6" d="M2690.5,268.1c-20.2-5.1-40.5-10.2-61.2-13.3c-52-7.9-106.7-3.5-155.7-22.6"/>
	<path class="st6" d="M2766.4,215.1c-23.5-21-54.3-31.8-84.8-39.9c-30.5-8.1-61.8-14.2-90.3-27.8"/>
	<path class="st6" d="M2772.1,220.7c6.1,9.4,6.6,21.2,6.9,32.4c1.7,57.4,4.8,114.8,9.5,172.1"/>
	<path class="st6" d="M2693,274.1c6.9,21.5,2.7,44.7-1.6,66.9c-9.4,48.9-18.9,97.8-28.3,146.8"/>
	<path class="st6" d="M2596.7,359.6c0.2,25.6-10,50.1-21.9,72.8c-5,9.5-10.4,18.9-15.7,28.2c-15.1,26.5-30.3,53-45.4,79.5"/>
	<path class="st6" d="M2452.9,460.5c-64.5,35.1-128.2,71.6-191,109.5"/>
</g>
</svg>
