<svg xmlns="http://www.w3.org/2000/svg" width="101" height="100" viewBox="0 0 101 100">
    <g fill="none" fill-rule="evenodd">
        <circle cx="50.833" cy="50" r="50" fill="#FFECE9"/>
        <g fill-rule="nonzero" transform="rotate(-45 58.481 14.324)">
            <path fill="#495059" d="M50.3 13.524a.823.823 0 0 1-.582-1.405l1.45-1.451a9.174 9.174 0 0 1 3.918-2.317.823.823 0 1 1 .459 1.581 7.522 7.522 0 0 0-3.213 1.9l-1.45 1.451a.821.821 0 0 1-.583.241z"/>
            <circle cx="29.018" cy="12.529" r="5.724" fill="#F5D7B7"/>
            <circle cx="29.018" cy="12.529" r="5.724" fill="#F5D7B7" opacity=".1"/>
            <circle cx="50.471" cy="33.982" r="5.724" fill="#F5D7B7"/>
            <circle cx="50.471" cy="33.982" r="5.724" fill="#F5D7B7" opacity=".1"/>
            <circle cx="11.027" cy="51.973" r="11.027" fill="#F9B888"/>
            <ellipse cx="39.356" cy="23.643" fill="#FBE4BF" rx="16.9" ry="16.53" transform="rotate(-45 39.356 23.643)"/>
            <g fill="#F28B74" transform="translate(27.988 13.5)">
                <ellipse cx="4.273" cy="4.347" rx="2.679" ry="3.364" transform="rotate(-45 4.273 4.347)"/>
                <ellipse cx="17.166" cy="17.24" rx="2.679" ry="3.364" transform="rotate(135 17.166 17.24)"/>
            </g>
            <g fill="#495059">
                <path d="M36.84 19.127a.823.823 0 0 1-.582-1.405.773.773 0 0 0 .228-.55.773.773 0 0 0-.228-.55.772.772 0 0 0-.55-.228.772.772 0 0 0-.55.228.823.823 0 1 1-1.164-1.164 2.408 2.408 0 0 1 1.714-.71c.648 0 1.257.252 1.715.71.457.458.71 1.067.71 1.714s-.253 1.256-.71 1.714a.82.82 0 0 1-.583.241zM46.96 29.247a.823.823 0 0 1-.582-1.405.773.773 0 0 0 .228-.55.778.778 0 0 0-1.328-.55.823.823 0 0 1-1.164-1.164 2.427 2.427 0 0 1 3.428 0c.458.457.71 1.066.71 1.714 0 .647-.252 1.256-.71 1.714a.821.821 0 0 1-.582.24zM40.49 25.584a3.075 3.075 0 0 1-3.067-3.286.823.823 0 0 1 1.642.113 1.43 1.43 0 0 0 1.524 1.524.823.823 0 0 1 .113 1.642c-.07.005-.141.007-.211.007z"/>
            </g>
            <path fill="#D27E6C" d="M14.288 31.046c6.73.081 21.94 1.683 30.696 6.254a3.045 3.045 0 0 1 1.443 3.773c-1.373 3.659-4.998 9.065-8.315 12.318a8.361 8.361 0 0 1-6.325 2.368c-9.254-.526-29.673-5.226-31.161-8.273-1.511-3.094 3.236-11.055 8.91-15a8.149 8.149 0 0 1 4.752-1.44z"/>
            <path fill="#D2DC6B" d="M14.288 31.046c6.73.081 21.94 1.683 30.696 6.254a3.045 3.045 0 0 1 1.443 3.773c-1.373 3.659-4.998 9.065-8.315 12.318a8.361 8.361 0 0 1-6.325 2.368c-9.254-.526-29.673-5.226-31.161-8.273-1.511-3.094 3.236-11.055 8.91-15a8.149 8.149 0 0 1 4.752-1.44z" opacity=".1"/>
            <path fill="#F2A874" d="M31.954 48.712c-.08-6.73-1.683-21.94-6.254-30.696a3.045 3.045 0 0 0-3.773-1.443c-3.659 1.373-9.065 4.998-12.318 8.315a8.361 8.361 0 0 0-2.368 6.325c.526 9.254 5.226 29.673 8.273 31.161 3.094 1.511 11.055-3.236 15-8.91a8.15 8.15 0 0 0 1.44-4.752z"/>
            <g fill="#000" opacity=".1">
                <path d="M12.656 42.225a.823.823 0 0 1-.806-.661c-.07-.35-.398-2.494-.398-2.91a.823.823 0 0 1 1.647-.004c.008.272.282 2.177.365 2.59a.823.823 0 0 1-.808.985zm.443-3.57zM21.615 27.267a.825.825 0 0 1-.781-1.086c.06-.18.223-.525.591-1.277.102-.209.198-.405.233-.482a.823.823 0 1 1 1.5.679c-.045.099-.137.287-.254.525-.16.33-.46.943-.51 1.08a.82.82 0 0 1-.779.561zM25.445 43.305a.82.82 0 0 1-.412-.111c-.403-.234-1.527-.877-1.892-1.043a.823.823 0 1 1 .683-1.498c.504.23 1.88 1.027 2.035 1.117a.823.823 0 0 1-.414 1.535zM19.805 57.109a.823.823 0 0 1-.823-.823c0-.454-.119-2.164-.176-2.986l-.037-.55a.823.823 0 1 1 1.643-.099l.037.535c.086 1.253.179 2.629.179 3.1a.823.823 0 0 1-.823.823zM36.063 42.765a.824.824 0 0 1-.274-1.6c.316-.11 1.056-.554 1.546-.848.716-.429.954-.567 1.19-.614a.824.824 0 0 1 .404 1.593c-.123.059-.482.274-.748.434-.643.385-1.372.822-1.844.988a.823.823 0 0 1-.274.047zm2.786-1.448h-.001z"/>
            </g>
        </g>
    </g>
</svg>
