<svg xmlns="http://www.w3.org/2000/svg" width="101" height="100" viewBox="0 0 101 100">
    <g fill="none" fill-rule="evenodd">
        <circle cx="50.5" cy="50" r="50" fill="#E5EEDA"/>
        <path fill="#73BF73" fill-rule="nonzero" d="M17 34h63.416v33.724H17z"/>
        <path stroke="#DCFAC1" d="M21.5 38.5h46v25h-46z"/>
        <path stroke="#DCFAC1" stroke-linecap="square" d="M21.5 46.5h48M34.5 38.5v25M47.25 38.5v25M60.25 38.5v25M21.5 55.5h48"/>
        <path fill="#618C61" fill-rule="nonzero" d="M83.86 64.158l-4.66-5.501h-7.738l-4.66 5.501V31.842c0-4.301 3.826-7.801 8.529-7.801 4.703 0 8.53 3.5 8.53 7.8v32.317z"/>
        <path fill="#B0E482" fill-rule="nonzero" d="M75.33 71.959H17.056V33.973h50.831-50.831v33.723H75.33c2.133 0 3.868-1.587 3.868-3.538 0-1.95-1.735-3.538-3.868-3.538s-3.869 1.587-3.869 3.538h-4.66c0-4.301 3.826-7.8 8.529-7.8 4.703 0 8.53 3.499 8.53 7.8s-3.827 7.801-8.53 7.801z"/>
        <path fill="#618C61" fill-rule="nonzero" d="M66.802 31.842c0-4.301 3.826-7.801 8.529-7.801 4.703 0 8.53 3.5 8.53 7.8v5.786H66.77l.03-5.785z"/>
    </g>
</svg>
