<svg xmlns="http://www.w3.org/2000/svg" width="100" height="100" viewBox="0 0 100 100">
    <g fill="none" fill-rule="evenodd">
        <circle cx="50" cy="50" r="50" fill="#FCECDC"/>
        <g fill-rule="nonzero">
            <path fill="#FFDE76" d="M67.97 31.03A23.843 23.843 0 0 0 51 24a23.843 23.843 0 0 0-16.97 7.03A23.843 23.843 0 0 0 27 48c0 6.41 2.496 12.438 7.03 16.97A23.843 23.843 0 0 0 51 72c6.41 0 12.438-2.496 16.97-7.03A23.843 23.843 0 0 0 75 48c0-6.41-2.496-12.438-7.03-16.97z"/>
            <path fill="#FFF" d="M51 41.875a24.037 24.037 0 0 1-17.888-7.999 1.407 1.407 0 0 1 2.096-1.875A21.221 21.221 0 0 0 51 39.062a21.221 21.221 0 0 0 15.792-7.061 1.406 1.406 0 1 1 2.096 1.875A24.038 24.038 0 0 1 51 41.875zM67.84 64.468c-.386 0-.77-.158-1.048-.469A21.222 21.222 0 0 0 51 56.937 21.22 21.22 0 0 0 35.208 64a1.407 1.407 0 0 1-2.096-1.876A24.037 24.037 0 0 1 51 54.125a24.036 24.036 0 0 1 17.888 7.999 1.407 1.407 0 0 1-1.048 2.344z"/>
        </g>
        <path stroke="#FFB641" stroke-linecap="round" stroke-linejoin="round" stroke-width="3" d="M69 39c2.667 5.272 2.667 10.605 0 16"/>
    </g>
</svg>
