<svg xmlns="http://www.w3.org/2000/svg" width="100" height="100" viewBox="0 0 100 100">
    <g fill="none" fill-rule="evenodd">
        <circle cx="50" cy="50" r="50" fill="#FCECDC"/>
        <g fill-rule="nonzero">
            <path fill="#F9D63C" d="M63.072 65.68H36.928a2.23 2.23 0 0 1-2.221-2.238V37.085a2.23 2.23 0 0 1 2.22-2.239h26.145a2.23 2.23 0 0 1 2.22 2.24v26.356a2.23 2.23 0 0 1-2.22 2.239z"/>
            <path fill="#FF9D00" d="M34.707 49.144v-12.06a2.23 2.23 0 0 1 2.221-2.238h26.144a2.23 2.23 0 0 1 2.221 2.239v12.06c0 .617-7.646 5.676-15.293 5.676-7.646 0-15.293-5.058-15.293-5.677z"/>
            <g fill="#FFC29C">
                <path d="M61.867 34.847H38.133v-3.685c0-6.59 5.299-11.932 11.836-11.932h.064c6.537 0 11.836 5.342 11.836 11.932v3.685zM41.696 80.807c-2.346 0-4.248-1.917-4.248-4.282V65.68h8.495v10.845c0 2.365-1.901 4.282-4.247 4.282zM58.304 80.807c-2.346 0-4.248-1.917-4.248-4.282V65.68h8.495v10.845c0 2.365-1.901 4.282-4.247 4.282zM30.502 57.744h-.084c-2.323 0-4.206-1.898-4.206-4.24v-14.19c0-2.341 1.883-4.24 4.206-4.24h.084c2.322 0 4.205 1.899 4.205 4.24v14.19c0 2.342-1.882 4.24-4.205 4.24zM69.542 57.744h-.004c-2.345 0-4.246-1.916-4.246-4.28v-14.11c0-2.363 1.901-4.28 4.246-4.28h.004c2.345 0 4.246 1.916 4.246 4.28v14.11c0 2.364-1.901 4.28-4.246 4.28z"/>
            </g>
            <path fill="#CC830E" d="M46.252 43.277h7.496a1.881 1.881 0 0 0 1.874-1.89 1.881 1.881 0 0 0-1.874-1.888h-7.496a1.881 1.881 0 0 0-1.873 1.889c0 1.043.838 1.889 1.873 1.889zM46.252 49.322h7.496a1.881 1.881 0 0 0 1.874-1.889 1.881 1.881 0 0 0-1.874-1.889h-7.496a1.881 1.881 0 0 0-1.873 1.889c0 1.043.838 1.889 1.873 1.889z"/>
        </g>
    </g>
</svg>
