<svg xmlns="http://www.w3.org/2000/svg" width="100" height="100" viewBox="0 0 100 100">
    <g fill="none" fill-rule="evenodd">
        <circle cx="50" cy="50" r="50" fill="#FCECDC"/>
        <g fill-rule="nonzero">
            <path fill="#FFDE76" d="M66.62 48.69a1.99 1.99 0 0 1-.122-2.11 14.61 14.61 0 0 0 1.75-7.028c-.038-8.09-6.696-14.655-14.75-14.55-7.952.102-14.367 6.61-14.367 14.62 0 3.243 1.05 6.24 2.83 8.664.768 1.048.714 2.5-.154 3.467-1.319 1.468-4.159 2.421-10.175-1.621a3.996 3.996 0 0 0-2.228-.684 3.996 3.996 0 0 0-3.944 3.422C24.394 60.044 24.258 76 44.137 76h7.05c18.644 0 23.61-15.957 15.432-27.31z"/>
            <g fill="#FFB641">
                <path d="M41.807 51.753a3.67 3.67 0 0 1-1.611 1.051c2.427.586 3.85-.131 4.676-1.05.868-.968.922-2.42.153-3.468a14.6 14.6 0 0 1-2.83-8.663c0-7.554 5.704-13.769 13.02-14.541a14.504 14.504 0 0 0-1.717-.08c-7.953.102-14.367 6.61-14.367 14.62a14.6 14.6 0 0 0 2.829 8.664c.769 1.049.715 2.5-.153 3.467zM28.525 52.87a4.01 4.01 0 0 1 2.408-3.112c-.483-.201-1.001-.31-1.529-.31a3.996 3.996 0 0 0-3.945 3.423C24.394 60.044 24.26 76 44.137 76h3.065C27.323 76 27.46 60.044 28.525 52.87z"/>
                <path d="M31.597 59.3a2.6 2.6 0 0 0-.357 3.248c1.934 3.011 6.779 8.595 16.103 8.595 5.678 0 11.682-3.567 12.8-9.473.923-4.877-1.909-10.84-7.471-10.583-4.076.188-6.46 3.727-9.904 5.363a23.373 23.373 0 0 1-7.704 2.123c-1.268.125-2.447-.286-3.467.726z"/>
            </g>
            <path fill="#38484A" d="M62.13 36.04a.767.767 0 0 1-.745-.593l-.369-1.567a.766.766 0 1 1 1.491-.354l.37 1.567a.77.77 0 0 1-.747.947z"/>
            <path fill="#FFB641" d="M66.02 31.872s.317 4.566-1.788 6.634c-2.106 2.067 1.403 5.31 5.568 2.255a5.284 5.284 0 0 1 1.803-.873 1.75 1.75 0 0 0 .08-3.365 4.34 4.34 0 0 0-1.836-.132s2.518-2.206 1.896-4.757c-.201-.825-1.176-1.168-1.868-.68-.895.63-2.285 1.294-3.855.918z"/>
        </g>
    </g>
</svg>
