<svg xmlns="http://www.w3.org/2000/svg" xmlns:xlink="http://www.w3.org/1999/xlink" width="100" height="100" viewBox="0 0 100 100">
    <defs>
        <path id="a" d="M.01.103h64.904V48H.01z"/>
    </defs>
    <g fill="none" fill-rule="evenodd">
        <circle cx="50" cy="50" r="50" fill="#FCECDC"/>
        <g transform="translate(18 28)">
            <mask id="b" fill="#fff">
                <use xlink:href="#a"/>
            </mask>
            <path fill="#FAB52A" d="M25.56 35.494v-4.235l-11.862 3.327s.863-5.04 7.047-6.805c1.876-.505 3.498-.505 4.816-.252V10.086h5.93c-.658-1.966-1.266-3.529-1.773-4.588-.862-1.764-1.774-.605-3.752 1.11-1.42 1.159-5.018 3.73-10.443 5.141-5.424 1.462-9.783 1.06-11.608.757-2.586-.454-3.954-1.008-3.802.958.101 1.714.507 4.385 1.47 7.965 2.028 7.662 8.77 22.433 21.544 19.005 3.347-.907 5.73-2.671 7.351-4.94h-4.917zM6.45 21.529l9.073-2.369s-.253 3.478-3.65 4.386c-3.395.857-5.424-2.017-5.424-2.017z" mask="url(#b)"/>
            <path fill="#FFDE76" d="M59.88 10.439c-2.433.403-8.212.957-15.36-.958-7.147-1.916-11.913-5.243-13.789-6.806-2.686-2.218-3.852-3.73-4.967-1.411-1.014 2.067-2.332 5.394-3.6 10.082C19.428 21.48 17.4 42.854 34.28 47.341c16.932 4.486 25.904-15.023 28.642-25.156 1.267-4.689 1.825-8.217 1.977-10.486.202-2.621-1.572-1.865-5.02-1.26zm-33.965 8.419s2.687-4.185 7.25-2.874c4.562 1.311 4.917 6.302 4.917 6.302l-12.167-3.428zm11.052 18.4c-7.959-2.32-9.176-8.62-9.176-8.62l21.342 5.898c0 .05-4.308 4.99-12.166 2.722zm7.705-12.855s2.585-4.134 6.945-2.874c4.36 1.311 4.714 6.302 4.714 6.302l-11.659-3.428z" mask="url(#b)"/>
            <path fill="#FFDE76" d="M37.575 37.41l-.608-.152c-7.959-2.32-9.176-8.62-9.176-8.62l11.254 3.125 5.78-22.232c-.102-.05-.203-.05-.305-.05-7.147-1.916-11.913-5.243-13.789-6.806-2.686-2.218-3.852-3.73-4.967-1.411-1.014 2.067-2.332 5.394-3.6 10.082-2.636 9.73-4.612 29.794 10.24 35.39l2.535.756 2.636-10.083zm-11.66-18.552s2.687-4.185 7.25-2.874c4.562 1.311 4.917 6.302 4.917 6.302l-12.167-3.428z" mask="url(#b)"/>
            <path fill="#FAB52A" d="M21.353 32.469l-7.655 2.167s.812-4.738 6.438-6.603l-4.36-16.284c-.1.051-.202.051-.354.101-5.424 1.463-9.784 1.059-11.608.756-2.586-.453-3.955-1.008-3.803.958.102 1.714.508 4.386 1.47 7.965 2.13 7.562 8.872 22.333 21.646 18.905l.305-.1-2.079-7.865zM6.45 21.529l9.074-2.369s-.253 3.478-3.65 4.386c-3.395.857-5.424-2.017-5.424-2.017z" mask="url(#b)"/>
        </g>
    </g>
</svg>
