<svg xmlns="http://www.w3.org/2000/svg" width="100" height="100" viewBox="0 0 100 100">
    <g fill="none" fill-rule="evenodd">
        <circle cx="50" cy="50" r="50" fill="#FCECDC"/>
        <g fill-rule="nonzero" transform="translate(14 43)">
            <path fill="#CC830E" d="M24.174 7.377h-8.805l2.38 7.634h4.044zM58.619 7.377h-8.805l2.38 7.634h4.044z"/>
            <ellipse cx="19.772" cy="16.981" fill="#999" rx="4.847" ry="4.925"/>
            <path fill="#666" d="M19.772 18.95c-1.07 0-1.94-.883-1.94-1.97 0-1.085.87-1.97 1.94-1.97 1.069 0 1.938.885 1.938 1.97 0 1.087-.87 1.97-1.938 1.97z"/>
            <ellipse cx="54.216" cy="16.981" fill="#999" rx="4.847" ry="4.925"/>
            <path fill="#666" d="M54.216 18.95c-1.068 0-1.938-.883-1.938-1.97 0-1.085.87-1.97 1.938-1.97 1.07 0 1.94.885 1.94 1.97 0 1.087-.87 1.97-1.94 1.97z"/>
            <path fill="#FF9D00" d="M62.62 9.84H11.368L1.58 5.315C.225 4.688-.374 3.065.243 1.687.859.31 2.458-.298 3.813.328l8.723 4.033h48.916L70.175.328c1.356-.626 2.954-.018 3.57 1.36.617 1.376.018 3-1.337 3.627L62.62 9.84z"/>
        </g>
    </g>
</svg>
