<svg xmlns="http://www.w3.org/2000/svg" width="100" height="100" viewBox="0 0 100 100">
    <g fill="none" fill-rule="evenodd">
        <circle cx="50" cy="50" r="50" fill="#FCE9BA"/>
        <g fill-rule="nonzero">
            <g fill="#F75B57">
                <path d="M39.955 29.84a2.686 2.686 0 0 1 3.813 0l5.296 5.326-3.813 3.833-5.296-5.324a2.721 2.721 0 0 1 0-3.834z"/>
                <path d="M36.142 33.675a2.686 2.686 0 0 1 3.813 0l5.296 5.324-3.813 3.834-5.296-5.324a2.722 2.722 0 0 1 0-3.834z"/>
                <g>
                    <path d="M36.142 65.585a2.722 2.722 0 0 1 0-3.834l5.296-5.325 3.813 3.834-5.296 5.325a2.686 2.686 0 0 1-3.813 0z"/>
                    <path d="M39.955 69.419a2.722 2.722 0 0 1 0-3.834l5.296-5.325 3.813 3.834-5.296 5.325a2.686 2.686 0 0 1-3.813 0z"/>
                </g>
            </g>
            <path fill="#F98282" d="M78.299 53.58l-8.987 9.038-3.05 3.067c-5.922 5.955-15.523 5.955-21.446 0L28.847 49.63l15.97-16.055c5.922-5.954 15.523-5.954 21.445 0l3.05 3.067 8.987 9.037c.33.332.61.694.838 1.078l-2.271 2.283a2.273 2.273 0 0 0-.662 1.608c0 .584.22 1.165.662 1.61l3.044-3.061a5.589 5.589 0 0 1-1.611 4.385z"/>
            <g fill="#F75B57">
                <path d="M33.112 49.63h-4.196c-4.924 0-8.916-4.014-8.916-8.965h4.196c4.924 0 8.916 4.013 8.916 8.964z"/>
                <path d="M33.112 49.63h-4.196c-4.924 0-8.916 4.013-8.916 8.964h4.196c4.924 0 8.916-4.013 8.916-8.965z"/>
            </g>
            <path fill="#F75B57" d="M78.299 53.58l-8.987 9.038a18.361 18.361 0 0 1-5.35-12.989c0-5.072 2.044-9.664 5.35-12.988l8.987 9.037c.33.332.61.694.838 1.078l-2.271 2.283a2.273 2.273 0 0 0-.662 1.608c0 .584.22 1.165.662 1.61l3.044-3.061a5.589 5.589 0 0 1-1.611 4.385z"/>
            <g transform="translate(67.494 46.523)">
                <ellipse cx="3.011" cy="3.106" fill="#FFF" rx="2.958" ry="2.975"/>
                <ellipse cx="3.011" cy="3.106" fill="#4D4D4D" rx="1.81" ry="1.82"/>
            </g>
            <path fill="#F75B57" d="M58.269 67.235h-9.366c0-4.015 3.237-7.27 7.23-7.27h6.041v3.344c0 2.168-1.748 3.926-3.905 3.926z"/>
        </g>
    </g>
</svg>
