<svg xmlns="http://www.w3.org/2000/svg" xmlns:xlink="http://www.w3.org/1999/xlink" width="100" height="100" viewBox="0 0 100 100">
    <defs>
        <path id="a" d="M5.15 55a6.306 6.306 0 0 0-3.008-3.88v-.09A4.248 4.248 0 0 1 0 47.34V7.66c0-1.58.862-2.958 2.142-3.69v-.217A6.303 6.303 0 0 0 4.935 0h23.976a6.306 6.306 0 0 0 3.007 3.88v.22a4.246 4.246 0 0 1 1.928 3.56v39.68c0 1.49-.767 2.8-1.928 3.56v.347A6.303 6.303 0 0 0 29.125 55H5.15z"/>
    </defs>
    <g fill="none" fill-rule="evenodd">
        <circle cx="50" cy="50" r="50" fill="#FCE9BA"/>
        <g transform="translate(33 23)">
            <mask id="b" fill="#fff">
                <use xlink:href="#a"/>
            </mask>
            <use fill="#DBDFDF" xlink:href="#a"/>
            <path fill="#AA582A" d="M0 24.104l33.846-11.313v19.825L0 43.93z" mask="url(#b)"/>
            <path stroke="#FFF" stroke-linecap="square" stroke-width="3" d="M-2.463 25.475l38.987-12.79M-2.463 45.514l38.987-12.791" mask="url(#b)"/>
        </g>
        <g stroke="#F2F5F5" stroke-linecap="round" stroke-linejoin="round" stroke-width="2.5">
            <path d="M38 29.859h4.784M48.068 29.859h13.567"/>
        </g>
        <g stroke="#F2F5F5" stroke-linecap="round" stroke-linejoin="round" stroke-width="2.5">
            <path d="M38 72.281h4.784M48.068 72.281h13.567"/>
        </g>
    </g>
</svg>
