<svg xmlns="http://www.w3.org/2000/svg" width="100" height="100" viewBox="0 0 100 100">
    <g fill="none" fill-rule="evenodd">
        <circle cx="50" cy="50" r="50" fill="#FCE9BA"/>
        <path fill="#FDF6E0" d="M80.461 44.97c-3.972-19.873-33.889-17.522-47.2-15.427a4.804 4.804 0 0 0-4.049 4.41l-1.59 20.32c-1.56.892-5.76 3.821-4.33 8.866.458 1.627 1.113 2.377 1.837 2.558.821.207 1.415.886 1.284 1.722-.412 2.628-1.062 7.134-1.112 9.873-.075 4.047 4.708 3.53 4.708 3.53s6.64-.439 2.814-5.886c-2.115-3.006-1.929-5.202 1.586-6.57l15.13-6.29c-.207 1.486-.037 4.723 2.723 4.91 1.903.125 5.15-.69 3.85-6.42a2.67 2.67 0 0 1 .011-1.228l21.468-8.927c2.136-.885 3.324-3.172 2.87-5.441z"/>
        <path fill="#E0AB36" d="M32.239 72.806a.981.981 0 0 0-.428.353c-.877-2.11-.187-3.71 2.593-4.794l15.13-6.288c-.122.887-.107 2.396.507 3.51l-17.802 7.219zm47.2-20.99c-1.178 2.448-3.565 3.304-3.64 3.328L56.4 63.009c.01-.695-.07-1.495-.287-2.443a2.67 2.67 0 0 1 .005-1.228l21.469-8.927a4.767 4.767 0 0 0 2.491-2.39c.096 1.418-.11 2.693-.639 3.795z"/>
        <path fill="#F4C44E" d="M80.461 45.025c-3.972-19.877-33.889-17.526-47.2-15.432-2.17.338-3.811 2.11-4.028 4.28 35.193-5.946 44.34 2.613 48.978 12.753.669 1.46.267 2.753-.483 3.766a4.846 4.846 0 0 0 2.733-5.367z"/>
        <path fill="#E0AB36" d="M35.376 29.392v3.559c.7-.096 1.379-.176 2.058-.252v-3.307c0-.131-.03-.258-.07-.372-.685.085-1.335.17-1.969.256-.005.04-.02.075-.02.116zM43.622 28.621v3.5c.705-.046 1.39-.082 2.065-.111V28.62c0-.105-.03-.2-.06-.292a86.52 86.52 0 0 0-1.97.105c-.009.066-.035.122-.035.187zM50.843 28.621v3.308a68.9 68.9 0 0 1 2.058.07v-3.378c0-.11-.03-.211-.06-.312a60.608 60.608 0 0 0-1.929-.055c-.04.116-.07.236-.07.367zM59.3 28.909c-.01.019-.024.03-.03.05l-1.228 3.529c.71.1 1.399.216 2.059.348l1.117-3.203c.047-.13.06-.262.056-.393a42.84 42.84 0 0 0-1.974-.331zM66.682 30.65c-.042.06-.092.116-.116.192l-1.244 3.434c.665.246 1.3.518 1.902.8l1.28-3.534c.02-.066.02-.132.03-.197a31.678 31.678 0 0 0-1.852-.695zM73.388 39.355l2.31-3.352c.006-.01.006-.016.011-.026-.48-.473-.987-.911-1.51-1.334-.071.055-.147.11-.203.19l-2.145 3.117c.55.449 1.059.922 1.537 1.405zM78.8 40.221a.992.992 0 0 0-.312.177l-2.517 2.15c.386.584.75 1.178 1.082 1.786l2.578-2.205a17.897 17.897 0 0 0-.831-1.908z"/>
        <path fill="#CD6E61" d="M56.652 43.705a2.76 2.76 0 0 1-1.47-.417 2.611 2.611 0 0 1-1.198-1.702c-.066-.332-.428-.539-.811-.464a2.767 2.767 0 0 1-2.055-.357 2.614 2.614 0 0 1-1.197-1.701.576.576 0 0 0-.267-.373.735.735 0 0 0-.549-.086 1.035 1.035 0 0 1-1.218-.8 1.036 1.036 0 0 1 .8-1.224 2.795 2.795 0 0 1 2.054.363 2.611 2.611 0 0 1 1.198 1.7.583.583 0 0 0 .267.37c.156.1.353.135.55.09 1.494-.298 2.95.618 3.246 2.063a.603.603 0 0 0 .267.369c.157.1.353.135.549.09a1.03 1.03 0 1 1 .418 2.018c-.196.042-.392.061-.584.061zM48.778 56.961c-.56 0-1.017-.447-1.033-1.006-.01-.61.217-1.208.635-1.641a2.112 2.112 0 0 1 1.5-.665c.046 0 .116-.081.116-.201a2.287 2.287 0 0 1 .58-1.587 2.129 2.129 0 0 1 1.55-.714c.05-.005.116-.081.116-.202a1.025 1.025 0 0 1 1.007-1.052h.024c.56 0 1.017.449 1.033 1.007.026 1.249-.932 2.281-2.135 2.306-.076.005-.116.126-.116.2.03 1.244-.926 2.277-2.129 2.308-.076.05-.121.1-.116.196a1.027 1.027 0 0 1-1.006 1.051h-.026zM34.801 51.953a1.02 1.02 0 0 1-.418-.087 1.036 1.036 0 0 1-.528-1.36 2.827 2.827 0 0 1 1.48-1.464 2.651 2.651 0 0 1 2.085.01.59.59 0 0 0 .458 0 .725.725 0 0 0 .388-.392c.618-1.395 2.214-2.05 3.569-1.456.308.136.69-.04.846-.398.226-.518.84-.755 1.359-.528.52.232.755.841.523 1.36-.608 1.394-2.209 2.049-3.564 1.455-.306-.142-.69.04-.845.397a2.81 2.81 0 0 1-1.481 1.465c-.68.282-1.42.277-2.084-.015a.574.574 0 0 0-.454.005.749.749 0 0 0-.392.393 1.03 1.03 0 0 1-.942.615z"/>
        <path fill="#F75B57" d="M43.326 56.197c0 2.904-3.137 5.261-6.878 5.261-4.426 0-5.841-.292-5.841-3.197 0-2.906 7.416-4.964 8.937-4.964 1.516 0 3.782-.005 3.782 2.9zM45.717 39.466c0 2.905-3.137 5.261-6.878 5.261-4.426 0-5.84-.291-5.84-3.196 0-2.905 7.416-4.965 8.936-4.965 1.516 0 3.782-.005 3.782 2.9zM68.71 44.582c0 2.905-3.137 5.26-6.872 5.26-4.426 0-5.845-.292-5.845-3.202 0-2.904 7.42-4.958 8.936-4.958 1.52 0 3.781-.006 3.781 2.9z"/>
        <path fill="#F18D8A" d="M60.634 46.927a1.029 1.029 0 1 1-2.058 0 1.03 1.03 0 0 1 2.058 0zM66.017 44.199c0 .568-.458 1.027-1.028 1.027a1.027 1.027 0 0 1-1.032-1.027 1.03 1.03 0 1 1 2.06 0zM64.662 46.792a1.028 1.028 0 1 1-2.058 0 1.029 1.029 0 0 1 2.058 0zM37.696 42.014a1.032 1.032 0 1 1-2.065-.003 1.032 1.032 0 0 1 2.065.003zM43.707 40.65a1.03 1.03 0 1 1-2.058 0 1.03 1.03 0 0 1 2.058 0zM40.385 39.617a1.029 1.029 0 1 1-2.059 0 1.03 1.03 0 1 1 2.059 0zM35.376 58.578c0 .57-.459 1.027-1.032 1.027a1.03 1.03 0 1 1 1.032-1.027zM38.728 56.182c0 .568-.462 1.032-1.032 1.032a1.034 1.034 0 0 1 0-2.065c.57 0 1.032.463 1.032 1.033zM40.385 58.24c0 .575-.458 1.032-1.028 1.032a1.026 1.026 0 0 1-1.03-1.032c0-.568.457-1.026 1.03-1.026.57 0 1.028.458 1.028 1.026z"/>
    </g>
</svg>
