<svg xmlns="http://www.w3.org/2000/svg" xmlns:xlink="http://www.w3.org/1999/xlink" width="100" height="100" viewBox="0 0 100 100">
    <defs>
        <path id="a" d="M.006.083H51v45.594H.006z"/>
    </defs>
    <g fill="none" fill-rule="evenodd">
        <circle cx="50" cy="50" r="50" fill="#FCE9BA"/>
        <g transform="translate(25 29.317)">
            <mask id="b" fill="#fff">
                <use xlink:href="#a"/>
            </mask>
            <path fill="#F1AE74" d="M46.468 15.598C43.205 8.857 43.858.083 43.858.083H7.142s.653 8.774-2.61 15.515c-3.03 6.261-8.638 21.172.336 25.9-.391 1.698-.537 3.65.261 4.09.714.394 2.029-.502 3.164-1.586a3.218 3.218 0 0 1 3.395-.662c2.458.96 7.156 2.343 13.812 2.343 6.655 0 11.353-1.384 13.81-2.344a3.218 3.218 0 0 1 3.397.662c1.135 1.085 2.45 1.981 3.164 1.587.799-.44.652-2.392.261-4.09 8.974-4.728 3.366-19.639.336-25.9" mask="url(#b)"/>
            <path fill="#EC9352" d="M14.037 26.197c-.05-5.083 3.476-9.503 8.421-10.5 14.843-2.99 21.633-8.858 21.633-8.859-.453-3.799-.233-6.755-.233-6.755H7.142s.653 8.774-2.61 15.515c-3.03 6.261-8.638 21.171.336 25.9-.391 1.698-.537 3.65.261 4.09.714.394 2.029-.502 3.164-1.586a3.218 3.218 0 0 1 3.395-.662c2.458.96 7.156 2.343 13.812 2.343 6.655 0 11.353-1.384 13.81-2.344-21.036 1.908-25.192-8.76-25.273-17.142" mask="url(#b)"/>
        </g>
        <path fill="#F7C89D" d="M69.17 33.769H32.15c-2.384 0-4.334-1.966-4.334-4.369 0-2.402 1.95-4.368 4.333-4.368h37.022c2.383 0 4.334 1.966 4.334 4.368 0 2.403-1.95 4.369-4.334 4.369"/>
        <path fill="#F1AE74" d="M42.498 29.4c0-2.402 1.95-4.368 4.334-4.368H32.149c-2.383 0-4.333 1.966-4.333 4.368 0 2.403 1.95 4.369 4.333 4.369h14.683c-2.384 0-4.334-1.966-4.334-4.369"/>
        <path fill="#C17D63" d="M50.533 37.06c.936 0 1.695 1.317 1.695 2.94 0 1.624-.759 2.94-1.695 2.94-.937 0-1.696-1.316-1.696-2.94 0-1.623.76-2.94 1.696-2.94M43.427 45.64c.632-.697 2.108-.373 3.296.723 1.189 1.096 1.64 2.549 1.008 3.245-.632.697-2.108.373-3.296-.723-1.189-1.096-1.64-2.55-1.008-3.246M53.27 49.611c-.632-.696-.18-2.149 1.008-3.245s2.664-1.42 3.296-.724c.632.697.181 2.15-1.007 3.246-1.189 1.096-2.665 1.42-3.297.723M43.427 52.604c.632-.696 2.108-.372 3.297.724 1.188 1.096 1.64 2.549 1.007 3.245-.632.696-2.108.372-3.296-.724-1.189-1.096-1.64-2.549-1.008-3.245M53.27 56.576c-.631-.696-.18-2.15 1.008-3.245 1.189-1.096 2.665-1.42 3.297-.724.632.696.18 2.15-1.008 3.245-1.188 1.096-2.664 1.42-3.296.724M43.428 59.57c.632-.697 2.107-.373 3.296.723 1.188 1.096 1.64 2.55 1.008 3.245-.632.697-2.108.373-3.297-.723-1.188-1.096-1.64-2.55-1.007-3.245M53.271 63.541c-.632-.696-.18-2.149 1.008-3.245s2.664-1.42 3.296-.723c.632.696.18 2.149-1.008 3.245s-2.664 1.42-3.296.723"/>
        <path fill="#AD6B56" d="M50.533 69.499a.773.773 0 0 1-.77-.776V46.31c0-.429.345-.776.77-.776.425 0 .77.347.77.776v22.413a.773.773 0 0 1-.77.776"/>
    </g>
</svg>
