<svg xmlns="http://www.w3.org/2000/svg" width="100" height="100" viewBox="0 0 100 100">
    <g fill="none" fill-rule="evenodd">
        <circle cx="50" cy="50" r="50" fill="#FCE9BA"/>
        <g fill-rule="nonzero">
            <path fill="#FFDE76" d="M55.119 23.266a.59.59 0 0 1-.42-.668c.078-.405.102-.828.064-1.262-.195-2.27-2.088-4.091-4.42-4.25-2.795-.19-5.124 1.965-5.124 4.65 0 .294.028.581.082.86a.59.59 0 0 1-.42.67c-1.263.394-2.179 1.547-2.179 2.91v2.946L50 31.77l7.298-2.647v-2.946c0-1.363-.916-2.516-2.18-2.91z"/>
            <path fill="#FFB641" d="M45.728 29.122v-2.946c0-1.363.915-2.516 2.179-2.91a.59.59 0 0 0 .42-.67 4.557 4.557 0 0 1-.082-.86c0-2.058 1.37-3.804 3.268-4.422a4.808 4.808 0 0 0-1.17-.228c-2.795-.19-5.123 1.965-5.123 4.65 0 .294.027.581.08.86a.59.59 0 0 1-.419.67c-1.263.394-2.178 1.547-2.178 2.91v2.946L50 31.77l1.513-.549-5.785-2.098z"/>
            <path fill="#C98B68" d="M57.298 28.2H42.702c-1.511 0-2.737 1.194-2.737 2.668v2.409L50 34.985l10.035-1.708v-2.409c0-1.474-1.226-2.669-2.737-2.669z"/>
            <path fill="#AE7D62" d="M42.991 33.277v-2.409c0-1.474 1.226-2.669 2.737-2.669h-3.026c-1.511 0-2.737 1.195-2.737 2.67v2.408L50 34.985l1.513-.258-8.522-1.45z"/>
            <path fill="#FFF" d="M36.553 75.192c-.62-3.199-.782-7.601.271-13.512a24.242 24.242 0 0 0 0-8.42c-2.836-15.924 3.141-20.9 3.141-20.9h20.07s5.977 4.976 3.141 20.9a24.242 24.242 0 0 0 0 8.42c1.053 5.91.89 10.313.271 13.512-.849 4.386-3.544 7.387-6.591 7.387H43.144c-3.047 0-5.742-3.001-6.591-7.387z"/>
            <path fill="#F3F1E0" d="M41.763 73.809c-.567-2.93-.47-6.58.29-10.849.64-3.592.64-7.389 0-10.981-.592-3.33-1.004-7.397-.32-10.859.448-2.26 1.848-3.794 3.42-3.794h-2.017c-1.572 0-2.973 1.535-3.42 3.794-.684 3.461-.273 7.53.32 10.859.64 3.592.64 7.39 0 10.981-.76 4.27-.858 7.919-.29 10.849.434 2.24 1.836 3.805 3.41 3.805h2.016c-1.573 0-2.975-1.565-3.409-3.805z"/>
        </g>
    </g>
</svg>
