<svg xmlns="http://www.w3.org/2000/svg" width="100" height="100" viewBox="0 0 100 100">
    <g fill="none" fill-rule="evenodd">
        <circle cx="50" cy="50" r="50" fill="#FCE9BA"/>
        <path fill="#FFFEFD" d="M68.431 31.771l-.78 10.587-17.933 3.06-17.934-3.06-.78-10.587a1.571 1.571 0 0 1 .405-1.162c.312-.306.718-.49 1.155-.49h34.308c.436 0 .842.184 1.154.49.28.306.436.734.405 1.162z"/>
        <path fill="#F6F4EC" d="M68.431 31.771l-.78 10.587-17.933 3.06V30.118h17.154c.436 0 .842.184 1.154.49.28.306.436.734.405 1.162z"/>
        <path fill="#DF4B47" d="M67.652 42.358l-2.153 29.505c-.156 2.386-2.214 4.354-4.647 4.354H38.583c-2.433 0-4.491-1.968-4.647-4.354l-2.152-29.505H38.8l2.651 2.6h4.055l2.651-2.6h4.679l3.119 1.53h3.119l3.118-1.53h5.459z"/>
        <path fill="#DF4B47" d="M67.652 42.358l-2.153 29.505c-.156 2.386-2.214 4.354-4.647 4.354H49.718v-33.86h3.119l3.119 1.53h3.119l3.118-1.53h5.459z"/>
        <path fill="#F4F8FD" d="M44.582 38.85a1.58 1.58 0 0 0-2.205 0l-3.576 3.508 4.679 3.06 4.678-3.06-3.576-3.508z"/>
        <path fill="#E8B3A7" d="M38.345 44.97l4.032 3.955a1.57 1.57 0 0 0 1.102.448c.4 0 .798-.15 1.103-.448l4.033-3.956c.609-.597.609-1.566 0-2.163l-.457-.448h-9.357l-.456.448a1.509 1.509 0 0 0 0 2.163zM55.956 70.79c-.4 0-.798-.149-1.103-.448l-4.033-3.956a1.509 1.509 0 0 1 0-2.163l4.033-3.956a1.58 1.58 0 0 1 2.205 0l4.033 3.956c.609.598.609 1.566 0 2.163l-4.033 3.956a1.57 1.57 0 0 1-1.102.449zM48.158 60.715H41.92c-.862 0-1.56-.684-1.56-1.53v-6.119c0-.845.698-1.53 1.56-1.53h6.238c.862 0 1.56.685 1.56 1.53v6.12c0 .845-.698 1.53-1.56 1.53z"/>
        <path fill="#9A483C" d="M54.396 24c-2.58 0-4.678 2.059-4.678 4.59v1.53h3.119v-1.53c0-.845.699-1.53 1.56-1.53.86 0 1.559.685 1.559 1.53v9.178c0 .846.697 1.53 1.559 1.53s1.56-.684 1.56-1.53V28.59c0-2.53-2.1-4.589-4.679-4.589z"/>
        <path fill="#FFF" d="M62.193 40.828c0-.406-.164-.795-.456-1.082l-3.12-3.06a1.58 1.58 0 0 0-2.204 0l-3.12 3.06a1.514 1.514 0 0 0-.456 1.082v1.53l4.678 3.06 4.678-3.06v-1.53z"/>
        <path fill="#F1AEA6" d="M54.396 51.537h6.238c.862 0 1.56-.685 1.56-1.53v-7.65h-9.357v7.65c0 .845.697 1.53 1.56 1.53z"/>
    </g>
</svg>
