<svg xmlns="http://www.w3.org/2000/svg" xmlns:xlink="http://www.w3.org/1999/xlink" width="100" height="100" viewBox="0 0 100 100">
    <defs>
        <path id="a" d="M.006.07h49.903v23.656H.006z"/>
    </defs>
    <g fill="none" fill-rule="evenodd">
        <circle cx="50" cy="50" r="50" fill="#C4E5DF"/>
        <path fill="#FFEABF" d="M68.893 29.087h-38.29a.74.74 0 0 0-.733.747v40.334c0 2.058 1.643 3.733 3.663 3.733h32.43c2.02 0 3.662-1.675 3.662-3.733V29.834a.74.74 0 0 0-.732-.747"/>
        <g transform="translate(25 35.854)">
            <mask id="b" fill="#fff">
                <use xlink:href="#a"/>
            </mask>
            <path fill="#304448" d="M49.177.07h-4.552v1.493h3.82v4.008c0 4.065-1.438 7.794-3.82 10.69-3.001 3.648-7.505 5.972-12.53 5.972a.74.74 0 0 0-.733.747.74.74 0 0 0 .732.746c4.882 0 9.31-2.012 12.531-5.263A18.271 18.271 0 0 0 49.91 5.57V.817a.74.74 0 0 0-.732-.747M17.815 22.233c-5.263 0-9.952-2.548-12.945-6.497A16.78 16.78 0 0 1 1.465 5.571V1.563H4.87V.07H.733A.74.74 0 0 0 0 .816v4.755c0 4.82 1.853 9.206 4.87 12.46 3.25 3.504 7.851 5.695 12.945 5.695a.74.74 0 0 0 .733-.746.74.74 0 0 0-.733-.747" mask="url(#b)"/>
        </g>
        <path fill="#56B8DC" d="M52.554 29.087h-14.78a.74.74 0 0 0-.733.747v16.53c0 1.809 1.444 3.281 3.22 3.281 1.775 0 3.22-1.472 3.22-3.281v-6.519c0-.9.718-1.632 1.6-1.632.884 0 1.602.732 1.602 1.632v3.728c0 1.855 1.481 3.365 3.302 3.365 1.82 0 3.301-1.51 3.301-3.365v-13.74a.74.74 0 0 0-.732-.746"/>
        <path fill="#56B8DC" d="M52.554 29.087h-14.78a.74.74 0 0 0-.733.747v4.268h16.245v-4.268a.74.74 0 0 0-.732-.747"/>
        <path fill="#40666D" d="M54.825 55.755h-9.741c-1.655 0-3.002 1.372-3.002 3.059 0 1.686 1.347 3.059 3.002 3.059h9.741c1.655 0 3.002-1.373 3.002-3.06 0-1.686-1.347-3.058-3.002-3.058"/>
        <path fill="#3B5559" d="M54.825 58.896h-9.741a2.995 2.995 0 0 1-2.62-1.57c-.243.44-.382.948-.382 1.488 0 1.686 1.347 3.059 3.002 3.059h9.741c1.655 0 3.002-1.373 3.002-3.06 0-.54-.139-1.047-.38-1.488a2.995 2.995 0 0 1-2.622 1.57"/>
        <path fill="#DBB6A6" d="M71.499 30.58H27.997a.74.74 0 0 1-.733-.746.74.74 0 0 1 .733-.747h43.502a.74.74 0 0 1 .732.747.74.74 0 0 1-.732.746"/>
    </g>
</svg>
