<svg xmlns="http://www.w3.org/2000/svg" xmlns:xlink="http://www.w3.org/1999/xlink" width="100" height="100" viewBox="0 0 100 100">
    <defs>
        <path id="a" d="M0 .006h23.475v20.408H0z"/>
        <path id="c" d="M0 .098h56.889v20.408H0z"/>
    </defs>
    <g fill="none" fill-rule="evenodd">
        <circle cx="50" cy="50" r="50" fill="#C4E5DF"/>
        <path fill="#734A28" d="M33.682 60.71c0 5.633-2.644 10.204-5.897 10.204H39.58c-3.254 0-5.897-4.572-5.897-10.204zM33.682 60.71c0-5.632 2.643-10.204 5.897-10.204H27.785c3.253 0 5.897 4.572 5.897 10.204z"/>
        <path fill="#B38F68" d="M72.992 50.506H39.58c3.252 0 5.896 4.572 5.896 10.204H78.89c0-5.632-2.644-10.204-5.897-10.204z"/>
        <path fill="#A87A4F" d="M69.061 60.71H45.475c0 5.633-2.644 10.204-5.896 10.204h33.413c3.253 0 5.897-4.571 5.897-10.204H69.06z"/>
        <path fill="#8A5C3A" d="M45.475 60.71h-7.862c0 3.552 1.351 5.72 1.966 6.093-.615-.372-1.966-2.54-1.966-6.093h-3.931c0 5.633 2.643 10.204 5.896 10.204s5.897-4.572 5.897-10.204z"/>
        <g transform="translate(22 50.5)">
            <mask id="b" fill="#fff">
                <use xlink:href="#a"/>
            </mask>
            <path fill="#9C7357" d="M17.579 4.117c-.615.372-1.966 2.54-1.966 6.093h7.862c0-5.632-2.644-10.204-5.896-10.204-3.254 0-5.897 4.572-5.897 10.204h3.931c0-3.552 1.351-5.72 1.966-6.093z" mask="url(#b)"/>
            <path fill="#B38F68" d="M5.785.006C2.532.006-.112 4.578-.112 10.21H3.82c0-3.552 1.351-5.72 1.965-6.093-.614.372-1.965 2.54-1.965 6.093h7.862C11.682 4.578 9.038.006 5.785.006z" mask="url(#b)"/>
            <path fill="#A87A4F" d="M5.785 16.303c-.614-.372-1.965-2.54-1.965-6.093H-.112c0 5.633 2.644 10.204 5.897 10.204s5.897-4.571 5.897-10.204H3.82c0 3.552 1.351 5.72 1.965 6.093z" mask="url(#b)"/>
        </g>
        <path fill="#C2996B" d="M72.992 50.506c3.253 0 5.897-4.572 5.897-10.204H33.682c0 5.632-2.644 10.204-5.897 10.204h45.207z"/>
        <g transform="translate(22 30)">
            <mask id="d" fill="#fff">
                <use xlink:href="#c"/>
            </mask>
            <path fill="#CCA67F" d="M11.682 10.302h45.207c0-5.633-2.644-10.204-5.897-10.204H5.785c3.253 0 5.897 4.57 5.897 10.204z" mask="url(#d)"/>
            <path fill="#A87A4F" d="M11.682 10.302H3.82c0 3.551 1.351 5.72 1.965 6.093-.614-.373-1.965-2.542-1.965-6.093H-.112c0 5.632 2.644 10.204 5.897 10.204s5.897-4.572 5.897-10.204z" mask="url(#d)"/>
            <path fill="#B38F68" d="M5.785 4.209c-.614.373-1.965 2.54-1.965 6.093h7.862C11.682 4.669 9.038.098 5.785.098S-.112 4.668-.112 10.302H3.82c0-3.552 1.351-5.72 1.965-6.093z" mask="url(#d)"/>
        </g>
        <path fill="#976E51" d="M39.552 67.818a.89.89 0 0 1-.469-.135c-1.019-.617-2.453-3.19-2.453-6.973 0-3.784 1.434-6.356 2.457-6.973a.96.96 0 0 1 1.365.27c.306.465.19 1.1-.26 1.417a.947.947 0 0 1-.122.073c-.214.165-1.475 1.859-1.475 5.213s1.26 5.048 1.492 5.22c.435.32.559.933.284 1.406a.975.975 0 0 1-.819.482zM27.759 67.818a.891.891 0 0 1-.47-.135c-1.018-.617-2.452-3.19-2.452-6.973 0-3.784 1.434-6.356 2.457-6.973a.96.96 0 0 1 1.365.27c.306.465.19 1.1-.26 1.417a.976.976 0 0 1-.122.073c-.215.165-1.475 1.859-1.475 5.213s1.26 5.048 1.493 5.22c.434.32.558.933.283 1.406a.975.975 0 0 1-.82.482z"/>
        <path fill="#8A5C3A" d="M74.957 67.853H59.234c-.543 0-.983-.457-.983-1.02 0-.564.44-1.02.983-1.02h15.723c.543 0 .983.456.983 1.02 0 .563-.44 1.02-.983 1.02zM60.216 55.608H46.457c-.542 0-.982-.457-.982-1.02 0-.564.44-1.021.982-1.021h13.759c.543 0 .983.457.983 1.02 0 .564-.44 1.021-.983 1.021zM55.302 67.853h-5.896c-.543 0-.983-.457-.983-1.02 0-.564.44-1.02.983-1.02h5.896c.543 0 .983.456.983 1.02 0 .563-.44 1.02-.983 1.02zM51.371 61.73h-3.93c-.544 0-.984-.456-.984-1.02 0-.564.44-1.02.983-1.02h3.931c.543 0 .983.456.983 1.02 0 .564-.44 1.02-.983 1.02zM61.199 61.73h-5.897c-.542 0-.982-.456-.982-1.02 0-.564.44-1.02.982-1.02H61.2c.543 0 .983.456.983 1.02 0 .564-.44 1.02-.983 1.02zM69.061 61.73H65.13c-.543 0-.983-.456-.983-1.02 0-.564.44-1.02.983-1.02h3.931c.543 0 .983.456.983 1.02 0 .564-.44 1.02-.983 1.02zM76.923 61.73h-3.93c-.544 0-.984-.456-.984-1.02 0-.564.44-1.02.983-1.02h3.93c.544 0 .984.456.984 1.02 0 .564-.44 1.02-.983 1.02zM66.113 55.608h-1.966c-.543 0-.983-.457-.983-1.02 0-.564.44-1.021.983-1.021h1.966c.542 0 .982.457.982 1.02 0 .564-.44 1.021-.982 1.021z"/>
        <path fill="#A87A4F" d="M74.957 55.608h-4.913c-.543 0-.983-.457-.983-1.02 0-.564.44-1.021.983-1.021h4.913c.543 0 .983.457.983 1.02 0 .564-.44 1.021-.983 1.021z"/>
        <path fill="#8A5C3A" d="M74.957 55.608h-4.913c-.543 0-.983-.457-.983-1.02 0-.564.44-1.021.983-1.021h4.913c.543 0 .983.457.983 1.02 0 .564-.44 1.021-.983 1.021z"/>
        <path fill="#C2996B" d="M27.759 47.41a.9.9 0 0 1-.47-.134c-1.018-.618-2.452-3.19-2.452-6.974 0-3.784 1.434-6.357 2.457-6.974a.96.96 0 0 1 1.365.27c.306.466.19 1.1-.26 1.418a.896.896 0 0 1-.122.073c-.215.165-1.475 1.859-1.475 5.213s1.26 5.048 1.493 5.22c.434.32.558.932.283 1.406a.975.975 0 0 1-.82.482z"/>
        <path fill="#A87A4F" d="M74.957 47.445H47.44c-.543 0-.982-.457-.982-1.02 0-.564.44-1.021.982-1.021h27.518c.543 0 .982.457.982 1.02 0 .564-.44 1.02-.983 1.02zM50.389 35.2H34.664c-.542 0-.982-.457-.982-1.02 0-.564.44-1.02.982-1.02H50.39c.542 0 .982.456.982 1.02 0 .563-.44 1.02-.982 1.02zM43.51 47.445h-5.897c-.543 0-.983-.457-.983-1.02 0-.564.44-1.021.983-1.021h5.896c.543 0 .983.457.983 1.02 0 .564-.44 1.02-.983 1.02zM39.579 41.322h-3.932c-.543 0-.983-.457-.983-1.02 0-.564.44-1.02.983-1.02h3.932c.542 0 .982.456.982 1.02 0 .563-.44 1.02-.982 1.02zM49.406 41.322h-5.897c-.542 0-.982-.457-.982-1.02 0-.564.44-1.02.982-1.02h5.897c.542 0 .983.456.983 1.02 0 .563-.44 1.02-.983 1.02zM69.061 41.322H53.337c-.542 0-.983-.457-.983-1.02 0-.564.44-1.02.983-1.02h15.724c.543 0 .983.456.983 1.02 0 .563-.44 1.02-.983 1.02zM76.923 41.322h-3.93c-.544 0-.984-.457-.984-1.02 0-.564.44-1.02.983-1.02h3.93c.544 0 .984.456.984 1.02 0 .563-.44 1.02-.983 1.02zM56.285 35.2H54.32c-.543 0-.983-.457-.983-1.02 0-.564.44-1.02.983-1.02h1.965c.543 0 .983.456.983 1.02 0 .563-.44 1.02-.983 1.02zM66.113 35.2h-5.897c-.542 0-.982-.457-.982-1.02 0-.564.44-1.02.982-1.02h5.897c.542 0 .982.456.982 1.02 0 .563-.44 1.02-.982 1.02zM74.957 35.2h-4.913c-.543 0-.983-.457-.983-1.02 0-.564.44-1.02.983-1.02h4.913c.543 0 .983.456.983 1.02 0 .563-.44 1.02-.983 1.02z"/>
    </g>
</svg>
