<svg xmlns="http://www.w3.org/2000/svg" width="141" height="129" viewBox="0 0 141 129">
    <g fill="none" fill-rule="evenodd">
        <g transform="translate(17)">
            <rect width="124" height="124" fill="#E6F7FF" rx="13"/>
            <path fill="#9FE59D" d="M100.66 56.34c1.985 2.699 2.808 5.67 2.082 8.53-.877 3.46-3.858 6.12-8.005 7.66a8.543 8.543 0 0 1-.19 3.183c-1.263 4.979-6.883 8.304-14.064 9.01-.79 2.58-2.777 4.691-5.543 6.194-2.548 1.383-5.757 2.25-9.31 2.487-.786.743-2.017 1.132-2.97 1.798-2.84 3.416-8.594 4.757-15.04 4.58-3.782.287-6.778.745-9.595-.373a43.242 43.242 0 0 1-13.434-13.434c-1.118-2.817-.142-6.177.146-9.959-.177-6.447.84-11.275 4.257-14.116.666-.953.859-2.744 1.602-3.53.237-3.553 1.104-6.762 2.487-9.31 1.503-2.766 3.614-4.752 6.195-5.543.705-7.18 4.03-12.801 9.009-14.064a8.543 8.543 0 0 1 3.184-.19c1.538-4.147 4.2-7.128 7.659-8.005 2.86-.726 5.831.097 8.53 2.083 4.904-3.407 10.09-4.397 13.834-2.087 3.59 2.214 6.33 7.21 5.701 12.806.786.578.23 1.054.862 1.883.829.632.97.272 1.547 1.058 5.596-.629 10.928 1.916 13.142 5.505 2.31 3.744 1.32 8.93-2.087 13.834z"/>
            <path fill="#79C577" d="M29.144 91.949a43.182 43.182 0 0 1-4.553-5.974c-1.118-2.817-.142-6.177.145-9.958-.177-6.447.842-11.276 4.257-14.116.667-.954.86-2.745 1.603-3.53.236-3.554 1.103-6.763 2.487-9.31 1.502-2.767 3.614-4.753 6.195-5.543.705-7.182 4.03-12.802 9.008-14.065a8.544 8.544 0 0 1 3.184-.19c1.539-4.147 4.2-7.128 7.66-8.005 2.86-.726 5.831.098 8.53 2.083 4.904-3.407 10.09-4.397 13.834-2.087 3.302 2.037 5.883 6.426 5.786 11.473-.835-3.326-2.839-6.065-5.228-7.54-3.286-2.027-7.712-1.449-12.05 1.11-.86.506-1.927.538-2.794.045-2.253-1.283-4.648-1.74-6.967-1.15-2.894.733-5.215 2.977-6.764 6.153-.443.909-1.32 1.536-2.33 1.603-.496.033-.99.11-1.48.235-4.492 1.14-7.603 5.914-8.589 12.167-.14.885-.678 1.663-1.481 2.061-1.939.963-2.534 6.874-3.741 9.098-1.35 2.484-3.211 1.41-3.442 4.875-.725.766-.912 2.513-1.562 3.443-3.332 2.77-4.325 7.48-4.152 13.766-.281 3.688-1.232 6.965-.143 9.712a41.958 41.958 0 0 0 2.587 3.644z"/>
            <path fill="#6E946D" d="M92.267 62.042a8.55 8.55 0 0 1 .55 3.142c-.082 5.135-4.785 9.667-11.61 12.007-.355 5.48-5.962 10.215-13.729 12.235a8.422 8.422 0 0 1-.423 1.491c-2.125 5.552-10.088 9.792-19.521 9.942-3.351.053-6.499-.417-9.254-1.29a43.239 43.239 0 0 1-13.848-13.85c-.873-2.754-1.343-5.902-1.29-9.252.15-9.434 4.39-17.397 9.941-19.522a8.537 8.537 0 0 1 1.49-.423c2.021-7.766 6.756-13.374 12.236-13.728 2.34-6.826 6.872-11.529 12.007-11.61a8.55 8.55 0 0 1 3.142.549c2.453-3.68 5.73-5.968 9.298-6.025 3-.047 5.743 1.489 7.93 4.12 5.561-2.19 10.843-1.96 13.956 1.153 3.111 3.11 3.343 8.386 1.158 13.943 2.553 2.168 4.04 4.87 3.992 7.82-.057 3.568-2.344 6.845-6.025 9.298z"/>
            <path fill="#79C577" d="M92.267 62.042a8.55 8.55 0 0 1 .55 3.142c-.082 5.135-4.785 9.666-11.61 12.007-.355 5.48-5.962 10.215-13.729 12.235a8.413 8.413 0 0 1-.423 1.491c-2.125 5.55-10.088 9.792-19.521 9.941-3.357.054-6.507-.42-9.264-1.296a43.249 43.249 0 0 1-5.457-4.024 1.298 1.298 0 0 1-.077-1.897l2.724-2.724a1.296 1.296 0 0 1 1.709-.104 15.14 15.14 0 0 0 10.07 3.104c.907-.052 1.66-.782 1.655-1.69a1.682 1.682 0 0 0-1.785-1.67 11.76 11.76 0 0 1-7.169-1.9 1.296 1.296 0 0 1-.217-2.003l4.894-4.894a1.296 1.296 0 0 1 1.708-.103 15.136 15.136 0 0 0 10.07 3.103c.907-.05 1.661-.78 1.655-1.69a1.68 1.68 0 0 0-1.785-1.669 11.76 11.76 0 0 1-7.168-1.9 1.296 1.296 0 0 1-.218-2.003l5.244-5.244c.461-.461 1.19-.5 1.708-.103a15.14 15.14 0 0 0 10.07 3.103c.908-.052 1.661-.782 1.656-1.69a1.68 1.68 0 0 0-1.785-1.669 11.768 11.768 0 0 1-7.17-1.9 1.297 1.297 0 0 1-.216-2.004l4.87-4.87a1.681 1.681 0 0 0-.082-2.452c-.673-.591-1.703-.516-2.336.117l-4.829 4.83c-.58.579-1.546.478-1.996-.208a11.76 11.76 0 0 1-1.91-7.14c.052-.88-.568-1.688-1.442-1.808a1.68 1.68 0 0 0-1.91 1.56 15.137 15.137 0 0 0 3.102 10.154 1.292 1.292 0 0 1-.107 1.703l-5.243 5.244c-.58.58-1.547.48-1.996-.206a11.764 11.764 0 0 1-1.91-7.14c.052-.88-.568-1.688-1.442-1.809a1.682 1.682 0 0 0-1.91 1.56 15.136 15.136 0 0 0 3.102 10.154 1.293 1.293 0 0 1-.107 1.703l-4.894 4.894c-.58.58-1.547.48-1.996-.206a11.762 11.762 0 0 1-1.91-7.14c.052-.88-.568-1.688-1.441-1.808a1.68 1.68 0 0 0-1.91 1.56 15.134 15.134 0 0 0 3.102 10.154 1.293 1.293 0 0 1-.107 1.703l-2.714 2.714-.011.01c-.537.534-1.41.49-1.904-.084l-.047-.055a9.712 9.712 0 0 1-2.326-7.263c.066-.692.17-1.387.316-2.08 1.02-4.851 3.09-10.359 6.685-16.28 3.353-5.524 8.032-11.408 14.419-17.455 13.454-12.739 30.911-17.88 45.65-17.056 3.101 3.113 3.33 8.382 1.148 13.932 2.553 2.168 4.039 4.87 3.992 7.821-.057 3.568-2.344 6.845-6.025 9.298z"/>
        </g>
        <g transform="translate(0 94)">
            <circle cx="17.1" cy="17.1" r="17.1" fill="#046380"/>
            <text fill="#FFF" font-family="DFYuanStd-W8, DFYuan Std" font-size="18" font-weight="600" letter-spacing=".563">
                <tspan x="10.969" y="22.2">1</tspan>
            </text>
        </g>
    </g>
</svg>
