<svg xmlns="http://www.w3.org/2000/svg" xmlns:xlink="http://www.w3.org/1999/xlink" width="314" height="274" viewBox="0 0 314 274">
    <defs>
        <path id="a" d="M3.528 0h306.786a3.528 3.528 0 0 1 3.528 3.528v269.805H0V3.528A3.528 3.528 0 0 1 3.528 0z"/>
    </defs>
    <g fill="none" fill-rule="evenodd">
        <mask id="b" fill="#fff">
            <use xlink:href="#a"/>
        </mask>
        <use fill="#F9E8E5" fill-rule="nonzero" xlink:href="#a"/>
        <g fill-rule="nonzero" mask="url(#b)">
            <path fill="#FB806A" d="M34.244 187.5l-50.994 26.406L-.482 241.26l16.268-13.725v65.196h69.301v-65.196l13.7 11.852 14.937-25.481-48.797-27.863c-2.96 9.53-8.44 14.295-16.44 14.295-8 0-12.747-4.28-14.243-12.839z"/>
            <path fill="#FFF" d="M34.665 186.977L28.21 189.9c2.29 10.064 8.709 15.512 19.255 16.345 10.546.833 17.939-5.15 22.179-17.948l-5.486-3.137c-3.123 9.57-8.688 14.354-16.693 14.354-8.006 0-12.273-4.18-12.801-12.538zM92.566 234.48l5.873 5.348 15.285-25.565-5.624-3.532zM-11.762 211.613l-6.751 3.423 16.812 27.437 6.99-5.31zM55.54 230.129H72.29c.974 0 1.764.79 1.764 1.764v8.377c0 5.6-4.54 10.139-10.139 10.139-5.599 0-10.138-4.54-10.138-10.139v-8.377c0-.974.79-1.764 1.764-1.764z"/>
        </g>
        <g fill-rule="nonzero" mask="url(#b)">
            <path fill="#FB806A" d="M250.23 73.49l-50.993-26.407 16.268-27.354 16.268 13.725v-65.196h69.301v65.196l13.7-11.852 14.937 25.481-48.797 27.863c-2.96-9.53-8.44-14.295-16.44-14.295-8 0-12.748 4.28-14.243 12.839z"/>
            <path fill="#FFF" d="M250.652 74.013l-6.455-2.924c2.291-10.065 8.71-15.513 19.256-16.346 10.546-.833 17.939 5.15 22.179 17.949l-5.486 3.136c-3.123-9.569-8.688-14.353-16.693-14.353-8.006 0-12.273 4.179-12.801 12.538zM308.553 26.509l5.873-5.348 15.285 25.566-5.625 3.531zM205.107 50.258l-6.752-3.423 16.812-27.437 6.99 5.31zM271.527 30.86h16.748c.975 0 1.764-.79 1.764-1.764V20.72c0-5.6-4.539-10.138-10.138-10.138s-10.138 4.539-10.138 10.138v8.377c0 .974.79 1.764 1.764 1.764z"/>
        </g>
        <g fill="#4A4A4A" fill-rule="nonzero">
            <path d="M163.214 138.981c.154-.284.384-.523.67-.688l23.813-13.748c.453-.262 1-.309 1.49-.128l3.23 1.188a1.764 1.764 0 0 1 .274 3.183l-24.806 14.322 32.47 37.9a1.764 1.764 0 0 1-1.353 2.912l-4.958-.038a1.764 1.764 0 0 1-1.378-.68l-31.388-40.252v-.03c0-.183.028-.364.084-.538l.76-2.376c.17-.526.593-.9 1.092-1.027zm-24.809 6.216c-4.673 2.286-9.744 4.05-15.212 5.293a1.764 1.764 0 0 1-1.198-.152l-6.432-3.308a1.764 1.764 0 0 1 .585-3.319c16.903-2.136 29.113-8.175 36.629-18.116 3.144-4.158 5.391-7.521 6.743-10.09h-33.784c-.561 0-1.09-.267-1.422-.72l-2.587-3.526a1.764 1.764 0 0 1 1.422-2.807h71.968a1.764 1.764 0 0 1 1.422 2.807l-2.587 3.526c-.332.453-.86.72-1.422.72h-24.944c-1.03 3.676-4.58 8.902-10.65 15.677a60.099 60.099 0 0 1-12.357 10.543v30.69a4.41 4.41 0 0 0 4.617 4.405c13.694-.643 20.698-.855 21.013-.637 2.29 1.588 3.058 3.542 2.302 5.86a.882.882 0 0 1-.838.609h-26.516c-2.867 0-6.752-3.583-6.752-6.962v-30.493zM162.213 97.87h7.048v-7.051h-7.048v7.05zm-2.646-12.343h12.34a2.646 2.646 0 0 1 2.646 2.646v12.342a2.646 2.646 0 0 1-2.646 2.646h-12.34a2.646 2.646 0 0 1-2.646-2.646V88.173a2.646 2.646 0 0 1 2.646-2.646z"/>
        </g>
    </g>
</svg>
