<svg xmlns="http://www.w3.org/2000/svg" xmlns:xlink="http://www.w3.org/1999/xlink" width="314" height="274" viewBox="0 0 314 274">
    <defs>
        <path id="a" d="M3.528 0h306.786a3.528 3.528 0 0 1 3.528 3.528v269.805H0V3.528A3.528 3.528 0 0 1 3.528 0z"/>
        <path id="c" d="M0 0h41.434v45.777H0z"/>
    </defs>
    <g fill="none" fill-rule="evenodd">
        <mask id="b" fill="#fff">
            <use xlink:href="#a"/>
        </mask>
        <use fill="#FCE9BA" fill-rule="nonzero" xlink:href="#a"/>
        <g mask="url(#b)">
            <g transform="translate(-44.079 20.28)">
                <path fill="#FAFAF5" fill-rule="nonzero" d="M8.694 118.535L4.457 102.6a3.528 3.528 0 0 1 .173-2.311l3.143-7.246a3.528 3.528 0 0 1 3.237-2.125h1.517a3.528 3.528 0 0 0 3.528-3.528v-3.694a2.64 2.64 0 0 1 2.64-2.64h1.407c.797 0 1.571-.27 2.195-.765l12.003-9.54c.316-.251.588-.556.801-.9l3.47-5.584a3.528 3.528 0 0 1 2.997-1.666h13.307c.738 0 1.457.232 2.057.662l8.98 6.446c.6.43 1.32.662 2.058.662h14.215a3.213 3.213 0 0 1 3.213 3.213v3.945a3.528 3.528 0 0 0 3.528 3.528h2.184a3.344 3.344 0 0 1 3.344 3.344v1.133c0 1.352.773 2.585 1.99 3.175l3.534 1.713a3.528 3.528 0 0 1 1.565 1.498l4.704 8.71c.278.515.424 1.09.424 1.676v16.228l-8.602 14.009a12.348 12.348 0 0 1-10.523 5.886h-29.62c-1.662 0-3.308-.336-4.838-.987L8.694 118.535z"/>
                <path fill="#AA582A" fill-rule="nonzero" d="M38.581 159.724C16.182 152.554 0 131.914 0 107.57h111.96c0 24.069-15.818 44.517-37.824 51.906v7.17H38.581v-6.922z"/>
                <ellipse cx="81.546" cy="89.935" fill="#E9E9D7" fill-rule="nonzero" rx="2.204" ry="3.527" transform="rotate(26 81.546 89.935)"/>
                <ellipse cx="89.48" cy="94.344" fill="#E9E9D7" fill-rule="nonzero" rx="2.204" ry="3.527" transform="rotate(-31 89.48 94.344)"/>
                <ellipse cx="74.493" cy="96.108" fill="#E9E9D7" fill-rule="nonzero" rx="2.204" ry="3.527" transform="rotate(-27 74.493 96.108)"/>
                <ellipse cx="74.493" cy="83.763" fill="#E9E9D7" fill-rule="nonzero" rx="2.204" ry="3.527" transform="rotate(-37 74.493 83.763)"/>
                <g transform="translate(29.092)">
                    <mask id="d" fill="#fff">
                        <use xlink:href="#c"/>
                    </mask>
                    <path fill="#FAFAF5" fill-rule="nonzero" d="M18.845 0c-6.712 8.274-6.712 16.253 0 23.938 6.713 7.685 5.874 14.964-2.517 21.84 11.606-9.111 14.268-16.74 7.985-22.89C18.031 16.74 16.208 9.11 18.845 0z" mask="url(#d)"/>
                    <path fill="#FAFAF5" fill-rule="nonzero" d="M32.657 0c-6.712 8.274-6.712 16.253 0 23.938 6.712 7.685 5.873 14.964-2.517 21.84 11.605-9.111 14.267-16.74 7.985-22.89C31.842 16.74 30.02 9.11 32.657 0z" mask="url(#d)"/>
                </g>
            </g>
        </g>
        <g fill-rule="nonzero">
            <path fill="#4A4A4A" d="M135.76 175.55v-35.777c0-.42.151-.828.425-1.148l2.662-3.105a1.755 1.755 0 0 1 3.087 1.141v36.496a4.41 4.41 0 0 0 4.617 4.405c13.694-.643 20.699-.855 21.013-.637 2.29 1.589 3.058 3.542 2.302 5.86a.882.882 0 0 1-.838.609h-26.516c-2.866 0-6.752-4.464-6.752-7.843zM148.825 138.194l6.537-6.537a1.764 1.764 0 0 1 2.032-.333l2.499 1.24a1.764 1.764 0 0 1 .463 2.828l-7.796 7.796a1.764 1.764 0 0 1-2.827-.463l-1.24-2.5a1.764 1.764 0 0 1 .332-2.03zM183.625 163.92l-8.006 4.623a1.764 1.764 0 0 1-2.048-.205l-2.093-1.844a1.764 1.764 0 0 1 .284-2.851l9.548-5.513a1.764 1.764 0 0 1 2.612 1.18l.55 2.734a1.764 1.764 0 0 1-.847 1.876z"/>
            <path fill="#4A4A4A" d="M185.022 183.243l-19.05-19.051a1.764 1.764 0 0 1-.508-1.426l.353-3.466a1.764 1.764 0 0 1 2.983-1.087l23.258 22.551a1.764 1.764 0 0 1-1.242 3.03l-4.56-.034a1.764 1.764 0 0 1-1.234-.517zM114.878 110.84l36.415-19.745a4.41 4.41 0 0 1 4.204 0l36.415 19.744a2.205 2.205 0 0 1 1.154 1.939v4.456a2.205 2.205 0 0 1-3.414 1.844l-33.84-22.187a4.41 4.41 0 0 0-4.835 0l-33.84 22.187a2.205 2.205 0 0 1-3.413-1.844v-4.456c0-.81.443-1.553 1.154-1.939z"/>
            <path stroke="#4A4A4A" stroke-width="4.41" d="M152.946 101.84c-3.566 3.582-5.28 6.727-5.28 9.362 0 3.86 1.931 5.625 5.323 5.625 3.245 0 4.922-1.653 4.922-5.625 0-2.654-1.614-5.794-4.965-9.361z"/>
            <path fill="#4A4A4A" d="M147.07 118.15H160.6c3.932 0 5.357.41 6.795 1.179a8.014 8.014 0 0 1 3.334 3.334c.769 1.437 1.178 2.863 1.178 6.794v14.42c0 3.93-.41 5.356-1.178 6.794a8.014 8.014 0 0 1-3.334 3.334c-1.438.768-2.863 1.178-6.795 1.178H147.07c-3.932 0-5.357-.41-6.795-1.178a8.014 8.014 0 0 1-3.334-3.334c-.768-1.438-1.178-2.863-1.178-6.795v-14.419c0-3.931.41-5.357 1.178-6.794a8.014 8.014 0 0 1 3.334-3.334c1.438-.77 2.863-1.178 6.795-1.178zm.578 6.173c-1.965 0-2.678.204-3.397.589a4.007 4.007 0 0 0-1.667 1.667c-.384.718-.589 1.431-.589 3.397v13.381c0 1.966.205 2.679.589 3.398a4.007 4.007 0 0 0 1.667 1.667c.719.384 1.432.589 3.397.589h12.375c1.965 0 2.678-.205 3.397-.59a4.007 4.007 0 0 0 1.667-1.666c.384-.719.589-1.432.589-3.398v-13.381c0-1.966-.205-2.679-.589-3.397a4.007 4.007 0 0 0-1.667-1.667c-.719-.385-1.432-.59-3.397-.59h-12.375z"/>
        </g>
    </g>
</svg>
