<svg xmlns="http://www.w3.org/2000/svg" xmlns:xlink="http://www.w3.org/1999/xlink" width="314" height="274" viewBox="0 0 314 274">
    <defs>
        <path id="a" d="M3.528 0h306.786a3.528 3.528 0 0 1 3.528 3.528v269.805H0V3.528A3.528 3.528 0 0 1 3.528 0z"/>
    </defs>
    <g fill="none" fill-rule="evenodd">
        <mask id="b" fill="#fff">
            <use xlink:href="#a"/>
        </mask>
        <use fill="#B8DAD4" fill-rule="nonzero" xlink:href="#a"/>
        <g fill-rule="nonzero" mask="url(#b)">
            <path fill="#4A90E2" d="M209.816 223.957h6.17c.488 0 .882.395.882.882v16.752a.882.882 0 0 1-.882.882h-6.17a.882.882 0 0 1-.882-.882V224.84c0-.487.395-.882.882-.882z"/>
            <path fill="#FFF" d="M171.026 240.349l23.362-19.919 23.362 19.919v32.984h-46.724zM279.902 158.71h3.525a4.85 4.85 0 1 1 0 9.699h-3.525a4.85 4.85 0 0 1 0-9.699zM274.37 129.613h4.891c1.287 0 2.217.225 3.007.648a4.408 4.408 0 0 1 1.834 1.834c.423.79.648 1.72.648 3.007v.484c0 1.287-.225 2.217-.648 3.008a4.408 4.408 0 0 1-1.834 1.833c-.79.423-1.72.648-3.007.648h-4.89c-1.287 0-2.217-.225-3.008-.648a4.408 4.408 0 0 1-1.833-1.833c-.423-.79-.648-1.721-.648-3.008v-.484c0-1.287.225-2.217.648-3.007a4.408 4.408 0 0 1 1.833-1.834c.79-.423 1.72-.648 3.007-.648zM261.39 93.462h6.168a9.258 9.258 0 0 1 0 18.516h-6.168a9.258 9.258 0 0 1 0-18.516z"/>
            <path fill="#4A90E2" d="M163.906 244.637l30.274-25.089 29.418 25.041a.882.882 0 0 1 .308.733l-.52 7.505a.882.882 0 0 1-.853.82l-28.327.858h-.052l-30.226-.855a.882.882 0 0 1-.855-.943l.516-7.452a.882.882 0 0 1 .317-.618z"/>
            <g>
                <path fill="#4A90E2" d="M281.224 185.161h12.341c.487 0 .882.395.882.882v30.86a.882.882 0 0 1-.882.882h-12.34a.882.882 0 0 1-.883-.882v-30.86c0-.487.395-.882.882-.882z"/>
                <path fill="#FFF" d="M215.105 214.51l39.671-35.52 39.671 35.52v58.823h-79.342z"/>
                <path fill="#4A90E2" d="M256.98 235.42c6.086 0 11.02 4.933 11.02 11.02v26.893h-22.04V246.44c0-6.086 4.934-11.02 11.02-11.02z"/>
                <path fill="#4A90E2" d="M203.044 223.193l51.552-45.085 50.138 45.04c.201.18.308.444.29.714l-.878 13.377a.882.882 0 0 1-1.478.59l-48.51-44.832a.882.882 0 0 0-1.188-.008l-49.617 44.645a.882.882 0 0 1-1.47-.714l.862-13.12a.882.882 0 0 1 .3-.607z"/>
            </g>
        </g>
        <g fill="#4A4A4A">
            <path d="M167.5 142.714V117.27h-16.942c-.696 0-1.328-.41-1.611-1.047l-1.57-3.525a1.764 1.764 0 0 1 1.611-2.482h42.47a1.764 1.764 0 0 1 1.611 2.482l-1.57 3.525a1.764 1.764 0 0 1-1.612 1.047h-15.46c.082.205.126.427.126.655v20.718l6.09-3.517c.454-.261 1-.308 1.492-.128l3.23 1.188a1.764 1.764 0 0 1 .273 3.184l-11.085 6.4v33.22h17.786a1.764 1.764 0 0 1 1.612 2.482l-1.57 3.526a1.764 1.764 0 0 1-1.612 1.046H151.44c-.697 0-1.328-.41-1.611-1.046l-1.57-3.526a1.764 1.764 0 0 1 1.611-2.482h17.63v-29.148l-9.491 5.48a1.764 1.764 0 0 1-2.62-1.829l.586-3.391c.089-.516.403-.966.856-1.227l10.668-6.16zm-28.707-48.272c1.306-1.803 4.319 3.74 4.319 5.806 0 .516-.058 1.119-.172 1.808-6.802 8.193-6.802 8.193-11.33 13.714-.708 2.69-1.04 25.61-.997 68.757 0 2.411-7.232 2.411-7.232 0l.864-55.858a1.764 1.764 0 0 0-2.836-1.429c-2.3 1.76-4.327 3.125-6.08 4.098-3.68 2.043-5.33.17-6.757-.6-1.427-.769 24.403-28.266 30.221-36.296z"/>
            <path fill-rule="nonzero" d="M168.368 86.113c.87-1.378 2.882-1.369 3.74.017l8.728 14.108c.908 1.469-.148 3.365-1.875 3.365h-17.632c-1.736 0-2.791-1.914-1.865-3.382l8.904-14.108zm-3.04 13.08h9.676l-4.79-7.742-4.886 7.742z"/>
        </g>
    </g>
</svg>
