<svg xmlns="http://www.w3.org/2000/svg" xmlns:xlink="http://www.w3.org/1999/xlink" width="314" height="274" viewBox="0 0 314 274">
    <defs>
        <path id="a" d="M3.528 0h306.786a3.528 3.528 0 0 1 3.528 3.528v269.805H0V3.528A3.528 3.528 0 0 1 3.528 0z"/>
        <ellipse id="c" cx="39.671" cy="39.677" rx="39.671" ry="39.677"/>
        <ellipse id="e" cx="15.428" cy="15.43" rx="15.428" ry="15.43"/>
    </defs>
    <g fill="none" fill-rule="evenodd">
        <mask id="b" fill="#fff">
            <use xlink:href="#a"/>
        </mask>
        <use fill="#F5D8B9" fill-rule="nonzero" xlink:href="#a"/>
        <g mask="url(#b)">
            <g transform="translate(-8.816 185.161)">
                <mask id="d" fill="#fff">
                    <use xlink:href="#c"/>
                </mask>
                <use fill="#E2863A" fill-rule="nonzero" xlink:href="#c"/>
                <path fill-rule="nonzero" stroke="#4A4A4A" stroke-width="3.528" d="M19.819 3.355c-.98 44.807 10.618 69.683 34.792 74.63M9.085 67.878c25.952 1.75 46.854-16.475 62.705-54.676M-1.966 39.587c23.813 22.8 40.18 9.308 49.1-40.478M38.427 81.234c1.947-5.626 14.754-13.364 38.42-23.215" mask="url(#d)"/>
            </g>
            <g transform="translate(67 233.656)">
                <mask id="f" fill="#fff">
                    <use xlink:href="#e"/>
                </mask>
                <use fill="#FFF" fill-rule="nonzero" xlink:href="#e"/>
                <g fill-rule="nonzero" stroke="#D12E43" mask="url(#f)">
                    <path stroke-width="1.764" d="M13.67-.037c-.79 13.782 4.268 21.546 15.172 23.295"/>
                    <path stroke-linecap="square" stroke-width=".882" d="M11.089 5.304h5.785M12.053 11.09l5.785-1.928M13.017 15.912l5.785-2.893M15.91 19.77l4.82-3.858M19.767 22.663l2.892-3.858M23.624 24.592l1.928-4.822"/>
                </g>
                <g fill-rule="nonzero" stroke="#D12E43" mask="url(#f)">
                    <path stroke-width="1.764" d="M-2.894 10.416c12.33 6.208 16.525 14.47 12.588 24.787"/>
                    <path stroke-linecap="square" stroke-width=".882" d="M3.022 10.851l-2.893 5.01M7.55 14.58l-4.562 4.046M11.245 17.826l-5.399 3.563M13.139 22.26l-5.751 2.246M13.716 27.046l-4.787.577M13.458 31.35l-5.14-.74"/>
                </g>
            </g>
        </g>
        <g fill-rule="nonzero">
            <path fill="#4A4A4A" d="M187.43 149.892h-63.133c-.508 0-.991-.218-1.326-.6l-2.32-2.644a1.764 1.764 0 0 1 1.325-2.928h67.775a1.764 1.764 0 0 1 1.326 2.928l-2.321 2.644c-.335.382-.818.6-1.326.6zM151.745 119.512l6.537-6.537a1.764 1.764 0 0 1 2.031-.333l2.5 1.24a1.764 1.764 0 0 1 .463 2.828l-7.796 7.796a1.764 1.764 0 0 1-2.828-.463l-1.24-2.5a1.764 1.764 0 0 1 .333-2.031z"/>
            <path stroke="#4A4A4A" stroke-width="5.292" d="M157.242 77.007l-7.818 5.9 3.026 9.673h9.583l3.026-9.673-7.817-5.9z"/>
            <path fill="#4A4A4A" d="M153.24 99.634h7.3c3.932 0 5.358.41 6.795 1.178a8.014 8.014 0 0 1 3.334 3.335c.769 1.437 1.178 2.863 1.178 6.794v14.419c0 3.932-.41 5.357-1.178 6.795a8.014 8.014 0 0 1-3.334 3.334c-1.437.768-2.863 1.178-6.795 1.178h-7.3c-3.93 0-5.356-.41-6.794-1.178a8.014 8.014 0 0 1-3.334-3.334c-.768-1.438-1.178-2.863-1.178-6.795V110.94c0-3.931.41-5.357 1.178-6.794a8.014 8.014 0 0 1 3.334-3.335c1.438-.768 2.863-1.178 6.795-1.178zm.58 6.172c-1.966 0-2.68.205-3.398.59a4.007 4.007 0 0 0-1.667 1.667c-.384.718-.589 1.431-.589 3.397v13.381c0 1.966.205 2.679.59 3.398a4.007 4.007 0 0 0 1.666 1.667c.719.384 1.432.589 3.397.589h6.264c1.966 0 2.68-.205 3.398-.59a4.007 4.007 0 0 0 1.667-1.666c.384-.72.589-1.432.589-3.398V111.46c0-1.966-.205-2.679-.59-3.397a4.007 4.007 0 0 0-1.666-1.668c-.719-.384-1.432-.589-3.398-.589h-6.264zM124.514 114.73l-7.073 15.06a4.679 4.679 0 0 0 4.49 5.999h12.195a5.117 5.117 0 0 0 5.116-5.117L125.98 107.46a1.764 1.764 0 0 1 .2-2.031l7.593-8.743a.882.882 0 0 0-.666-1.46h-1.54a8.498 8.498 0 0 0-5.954 2.434l-4.844 4.756a5.292 5.292 0 0 0-.812 6.53l11.605 19.044a1.764 1.764 0 0 1-1.506 2.682h-4.614a1.764 1.764 0 0 1-1.555-2.596l6.073-11.356a.882.882 0 0 0-.65-1.289l-4.796-.7zM181.755 115.612l-7.072 15.06a4.679 4.679 0 0 0 4.489 5.998h12.196a5.117 5.117 0 0 0 5.116-5.116l-13.262-23.212a1.764 1.764 0 0 1 .2-2.032l7.593-8.742a.882.882 0 0 0-.666-1.46h-1.54a8.498 8.498 0 0 0-5.955 2.434l-4.843 4.756a5.292 5.292 0 0 0-.812 6.53l11.605 19.044a1.764 1.764 0 0 1-1.506 2.682h-4.614a1.764 1.764 0 0 1-1.556-2.596l6.073-11.357a.882.882 0 0 0-.65-1.288l-4.796-.7z"/>
            <path fill="#4A4A4A" d="M160.448 135.557v53.13c0 .582-.287 1.127-.768 1.455l-3.526 2.412a1.764 1.764 0 0 1-2.76-1.456v-57.952a1.764 1.764 0 0 1 2.76-1.456l3.526 2.411c.48.33.768.874.768 1.456zM121.637 177.803l12.813-14.48a1.764 1.764 0 0 1 2.105-.412l2.54 1.26a1.764 1.764 0 0 1 .526 2.762L125.48 182.6a1.764 1.764 0 0 1-2.89-.398l-1.214-2.447a1.764 1.764 0 0 1 .26-1.953zM193.605 177.803l-12.814-14.48a1.764 1.764 0 0 0-2.105-.412l-2.54 1.26a1.764 1.764 0 0 0-.525 2.762L189.76 182.6a1.764 1.764 0 0 0 2.89-.398l1.214-2.447a1.764 1.764 0 0 0-.26-1.953z"/>
        </g>
    </g>
</svg>
