<svg xmlns="http://www.w3.org/2000/svg" width="100" height="100" viewBox="0 0 100 100">
    <g fill="none" fill-rule="evenodd">
        <circle cx="50" cy="50" r="50" fill="#FFECE9"/>
        <g fill-rule="nonzero">
            <path fill="#E27879" d="M64.774 61.487h-1.42c-4.304 0-7.806-3.48-7.806-7.756V22H30v2.115c0 20.85 1.085 35.506 1.364 38.92A9.04 9.04 0 0 0 30 67.832V77h15.613v-3.868c1.291.373 2.725.984 4.129 1.582 2.64 1.124 5.37 2.286 7.935 2.286H74v-6.346c0-5.055-4.139-9.167-9.226-9.167z"/>
            <g fill="#802812">
                <path d="M74.651 73.114H30.01l.31 4h44.332z"/>
                <path d="M45.863 73.144h.148c-.049-.013-.1-.03-.148-.043v.043z"/>
            </g>
            <path fill="#CC5E44" d="M56 36V22H30v2.08c0 4.25.048 8.238.126 11.92H56z"/>
            <path fill="#802812" d="M56 33H30c.023 1.373.05 2.707.082 4H56v-4z"/>
        </g>
    </g>
</svg>
