<svg xmlns="http://www.w3.org/2000/svg" xmlns:xlink="http://www.w3.org/1999/xlink" width="100" height="100" viewBox="0 0 100 100">
    <defs>
        <path id="a" d="M0 .205h52.632v59.522H0z"/>
    </defs>
    <g fill="none" fill-rule="evenodd">
        <circle cx="50" cy="50" r="50" fill="#FFECE9"/>
        <g transform="rotate(-24 84.89 -13.966)">
            <mask id="b" fill="#fff">
                <use xlink:href="#a"/>
            </mask>
            <path fill="#FF8080" d="M52.366 25.401c1.399-8.12-2.857-18.045-9.597-21.598-.603-.318-1.85-.481-2.257.39-.307.656-.18 1.083.41 1.554 1.668 1.326 7.255 6.132 4.53 12.763-1.15 2.8-4.528 3.133-7.638 2.75a19.678 19.678 0 0 1-10.937-5.064c-2.288-2.117-4.19-4.894-2.748-7.559 3.415-6.31 10.729-5.145 12.827-4.727.744.148 1.158-.03 1.471-.682.417-.867-.507-1.71-1.14-1.964-7.077-2.843-17.52.275-22.943 6.533C-8.846 34.56-.203 50.28 14.211 56.954c14.415 6.674 32.174 3.178 38.155-31.553" mask="url(#b)"/>
        </g>
        <path fill="#FFF" d="M57.802 52.918l-.492-.007.356-.34c1.23-1.174 1.276-3.105.104-4.314l-.043-.044c-1.172-1.209-3.119-1.238-4.348-.064l-.356.34.012-.488a3.029 3.029 0 0 0-3.002-3.096h-.062c-1.698-.026-3.107 1.32-3.148 3.004l-.011.488-.34-.35c-1.172-1.209-3.119-1.238-4.348-.064l-.045.043c-1.23 1.173-1.276 3.105-.104 4.313l.34.35-.493-.006c-1.698-.025-3.107 1.32-3.148 3.004l-.001.062a3.029 3.029 0 0 0 3 3.096l.493.007-.356.34c-1.23 1.174-1.276 3.105-.104 4.314l.043.044c1.172 1.209 3.119 1.238 4.348.064l.356-.34-.011.488a3.029 3.029 0 0 0 3 3.096h.063c1.698.026 3.107-1.32 3.148-3.004l.012-.488.34.35c1.171 1.209 3.118 1.238 4.348.064l.044-.043c1.23-1.173 1.276-3.105.104-4.314l-.34-.35.493.007c1.698.025 3.107-1.32 3.148-3.005l.001-.061a3.03 3.03 0 0 0-3.001-3.096"/>
        <path fill="#F7E33E" d="M56.042 55.974c-.083 3.454-2.973 6.213-6.455 6.161-3.48-.051-6.236-2.892-6.153-6.346.084-3.454 2.973-6.213 6.455-6.161 3.481.051 6.236 2.893 6.153 6.346"/>
        <path fill="#F3D33A" d="M52.826 50.402c.638 1 .997 2.192.967 3.469-.084 3.454-2.973 6.212-6.455 6.16a6.269 6.269 0 0 1-2.937-.774 6.241 6.241 0 0 0 5.187 2.878c3.48.051 6.37-2.707 6.454-6.16a6.177 6.177 0 0 0-3.216-5.573"/>
    </g>
</svg>
