<svg xmlns="http://www.w3.org/2000/svg" width="100" height="100" viewBox="0 0 100 100">
    <g fill="none" fill-rule="evenodd">
        <circle cx="50" cy="50" r="50" fill="#FCECDC"/>
        <g fill-rule="nonzero">
            <path fill="#FFCA28" d="M57.989 44.81l3.228-8.889-3.228-8.89H44.938l-2.456 9.163 2.456 8.617h-6.456l2.573-8.52-2.573-9.26h-.04c-4.785 0-8.664 3.98-8.664 8.89s3.879 8.89 8.663 8.89l2.615 4.107h21.613l1.775-4.107H57.99zM55.18 61.842h-5.122l-.706-1.827a1.061 1.061 0 0 0-1.39-.616c-.549.224-.818.862-.6 1.426l.983 2.542.965 2.498c.167.431.57.694.995.694.132 0 .265-.025.394-.078.55-.223.819-.861.6-1.425l-.393-1.018h4.274c.591 0 1.07-.491 1.07-1.098 0-.606-.479-1.098-1.07-1.098zM26.592 44.81h-5.553v6.883h10.673z"/>
            <path fill="#000" d="M56.25 62.94c0-.606-.479-1.098-1.07-1.098h-3.114l.415 2.197h2.7c.59 0 1.07-.492 1.07-1.099z" opacity=".1"/>
            <path fill="#FF9D00" d="M74.683 44.81H26.592v7.29c0 2.742 2.166 4.965 4.838 4.965h22.64l3.006 15.904h18.64l-3.16-17.263c-.293-1.601.56-3.19 2.036-3.792l1.316-.536C77.17 50.863 78 49.609 78 48.215c0-1.88-1.485-3.404-3.317-3.404z"/>
            <path fill="#FFCA28" d="M58.938 57.065l2.08 10.999h8.903l-2.08-11zM64.444 27.031l-3.228 8.89 3.228 8.89c4.784 0 8.663-3.98 8.663-8.89s-3.878-8.89-8.663-8.89z"/>
            <g fill="#FF9D00">
                <path d="M57.989 27.032h6.455v17.78H57.99zM38.483 27.032h6.455v17.78h-6.455z"/>
            </g>
            <path fill="#000" d="M64.444 40.419H38.441c-4.046 0-7.443-2.847-8.396-6.694a9.13 9.13 0 0 0-.267 2.196c0 4.91 3.879 8.89 8.663 8.89h26.003c4.785 0 8.663-3.98 8.663-8.89 0-.758-.093-1.494-.267-2.196-.953 3.847-4.35 6.694-8.396 6.694z" opacity=".1"/>
        </g>
    </g>
</svg>
