<svg xmlns="http://www.w3.org/2000/svg" width="100" height="100" viewBox="0 0 100 100">
    <g fill="none" fill-rule="evenodd">
        <circle cx="50" cy="50" r="50" fill="#FCECDC"/>
        <path fill="#FFB641" fill-rule="nonzero" d="M29.25 45.335a1.547 1.547 0 0 1-1.394-.882c-.043-.09-1.057-2.232-1.293-5.074-.315-3.793.877-7.078 3.448-9.519a1.548 1.548 0 0 1 1.587-.57c3.513.84 5.667 3.195 5.761 6.298a1.56 1.56 0 0 1-.994 1.505c-2.404.926-5.284 3.962-5.576 6.84a1.555 1.555 0 0 1-1.54 1.402z"/>
        <path fill="#FFF" fill-rule="nonzero" d="M26.548 67.765c-.264 0-.528-.068-.766-.205A1.562 1.562 0 0 1 25 66.205c0-7.468 4.437-12.988 8.351-17.858 2.843-3.536 5.298-6.59 5.298-9.475 0-.957-.2-1.667-.536-1.9-.32-.222-.974-.177-1.748.121-.468.18-.994.121-1.41-.159a1.563 1.563 0 0 1-.69-1.25c-.068-2.234-2.148-3.063-3.382-3.358-.56-.134-1-.57-1.143-1.133-.416-1.648.12-3.288 1.509-4.62 2.412-2.315 6.81-3.173 10.457-2.042 3.715 1.152 6.265 4.133 7.18 8.392 1.896 8.838-3.349 16.253-7.563 22.21-1.55 2.193-3.016 4.264-3.826 6.024a1.555 1.555 0 0 1-.615.685l-9.544 5.705a1.536 1.536 0 0 1-.79.218z"/>
        <path fill="#38484A" fill-rule="nonzero" d="M38.965 32.394c.81 0 1.585-.717 1.547-1.56-.037-.845-.68-1.56-1.547-1.56-.81 0-1.586.717-1.548 1.56.038.845.68 1.56 1.548 1.56z"/>
        <path fill="#FFF" fill-rule="nonzero" d="M69.061 74.945H32.939c-4.378 0-7.939-3.59-7.939-8.003 0-4.412 3.561-8.002 7.939-8.002h36.122c4.378 0 7.939 3.59 7.939 8.002 0 4.413-3.561 8.003-7.939 8.003z"/>
        <path fill="#FFC29C" d="M66.18 57.033L67 59h-6l1.154-2.77a2 2 0 0 1 3.566-.251c.457-.545.915-.891 1.376-1.016V53.33l-3.056-.424a.51.51 0 0 1 0-1.012l3.056-.424v-.87a.504.504 0 0 1 1.008 0v5a.504.504 0 0 1-.842.374c-.297.12-.66.458-1.082 1.059z"/>
        <path fill="#D8D8D8" fill-rule="nonzero" d="M64.584 63.862a.862.862 0 0 0-.862-.862H45.62v1.724h17.093a2.591 2.591 0 0 1-2.44 1.724h-3.447v1.724h2.427a2.586 2.586 0 0 1-2.427 1.724H43.034a4.315 4.315 0 0 1-4.31-4.31V63H37v2.586a6.042 6.042 0 0 0 6.034 6.034h13.792a4.31 4.31 0 0 0 4.23-3.527 4.31 4.31 0 0 0 3.528-4.231z"/>
    </g>
</svg>
