<svg xmlns="http://www.w3.org/2000/svg" width="100" height="100" viewBox="0 0 100 100">
    <g fill="none" fill-rule="evenodd">
        <circle cx="50" cy="50" r="50" fill="#FCECDC"/>
        <g fill-rule="nonzero">
            <path fill="#CC830E" d="M72.608 69H28.392C26.52 69 25 67.472 25 65.587V36.144c0-1.885 1.519-3.413 3.392-3.413h44.216c1.873 0 3.392 1.528 3.392 3.413v29.443C76 67.472 74.481 69 72.608 69z"/>
            <path fill="#FFDE76" d="M33.793 30.077h5.276V69h-5.276zM61.931 30.077h5.276V69H61.93z"/>
            <path fill="#CC830E" d="M50.5 23c-4.849 0-8.793 3.968-8.793 8.846v.885h3.517v-.885c0-2.92 2.374-5.308 5.276-5.308 2.902 0 5.276 2.389 5.276 5.308v.885h3.517v-.885C59.293 26.968 55.35 23 50.5 23z"/>
            <path fill="#F9E092" d="M43.626 51.278l7.376 3.112-2.088 4.948-7.376-3.113z"/>
            <path fill="#FF9D00" d="M45.224 46.885v5.064L51 54.4l-.559 1.33h7.974v-8.845z"/>
            <path fill="#F0C419" d="M56.265 46.885l2.149-1.01-3.046-6.563-9.785 4.597 1.38 2.976z"/>
            <path fill="#FFDE76" d="M76 38.8v-2.656c0-1.885-1.519-3.413-3.392-3.413h-2.64c.548 3.087 2.963 5.517 6.032 6.068zM76 65.587v-2.655c-3.069.55-5.484 2.98-6.032 6.068h2.64C74.48 69 76 67.472 76 65.587zM25 38.8c3.069-.552 5.484-2.982 6.032-6.07h-2.64C26.52 32.73 25 34.26 25 36.145v2.655zM25 62.932v2.655C25 67.472 26.519 69 28.392 69h2.64c-.548-3.087-2.963-5.517-6.032-6.068z"/>
        </g>
    </g>
</svg>
