<svg xmlns="http://www.w3.org/2000/svg" width="100" height="100" viewBox="0 0 100 100">
    <g fill="none" fill-rule="evenodd">
        <circle cx="50" cy="50" r="50" fill="#FCECDC"/>
        <g fill-rule="nonzero">
            <path fill="#FFB641" d="M42.324 87a1.05 1.05 0 0 1-1.047-1.052V71.32a1.05 1.05 0 0 1 1.047-1.052c.578 0 1.047.471 1.047 1.052v14.628A1.05 1.05 0 0 1 42.324 87z"/>
            <path fill="#FFDE76" d="M47.441 87a1.05 1.05 0 0 1-1.047-1.052V71.32a1.05 1.05 0 0 1 1.047-1.052c.578 0 1.047.471 1.047 1.052v14.628A1.05 1.05 0 0 1 47.441 87z"/>
            <path fill="#FFB641" d="M52.559 87a1.05 1.05 0 0 1-1.047-1.052V71.32a1.05 1.05 0 0 1 1.047-1.052c.578 0 1.047.471 1.047 1.052v14.628A1.05 1.05 0 0 1 52.559 87z"/>
            <g fill="#FFDE76">
                <path d="M57.678 87a1.05 1.05 0 0 1-1.047-1.052V71.32a1.05 1.05 0 0 1 1.047-1.052c.578 0 1.047.471 1.047 1.052v14.628A1.05 1.05 0 0 1 57.678 87zM60.283 34.651L70.566 50h-24.52z"/>
                <path d="M50 38.16l10.283 27.187-9.933 1.918-10.633-1.918z"/>
                <path d="M53.49 50H29.434L39.717 34.65z"/>
            </g>
            <g fill="#FFB641">
                <path d="M70.566 50L60.283 65.346 50 50zM60.283 34.651L50 50 39.717 34.651l10.75-2.802zM50 50L39.718 65.346 29.434 50z"/>
            </g>
            <path fill="#CC830E" d="M70.566 51.314H29.434A1.312 1.312 0 0 1 28.125 50c0-.726.586-1.315 1.309-1.315h41.132c.723 0 1.309.589 1.309 1.315s-.586 1.315-1.309 1.315z"/>
            <path fill="#FFDE76" d="M50.873 19.468v-8.591a.875.875 0 0 0-.872-.877.874.874 0 0 0-.872.877v8.59c0 3.596-5.963 7.671-8.26 8.938l.838 1.537c.267-.147 4.838-2.695 7.421-6.097v5.329c0 .484.391.876.873.876a.874.874 0 0 0 .872-.876v-5.328c2.584 3.401 7.153 5.95 7.42 6.097l.838-1.538c-2.296-1.265-8.258-5.336-8.258-8.937z"/>
            <g fill="#CC830E">
                <path d="M60.283 29.318v5.333H39.717v-5.333c0-.595.48-1.077 1.072-1.077h18.422c.592 0 1.072.482 1.072 1.077zM60.283 65.347v5.232c0 .651-.526 1.18-1.175 1.18H40.892a1.178 1.178 0 0 1-1.175-1.18v-5.232h20.566z"/>
            </g>
        </g>
    </g>
</svg>
