<svg xmlns="http://www.w3.org/2000/svg" width="100" height="100" viewBox="0 0 100 100">
    <g fill="none" fill-rule="evenodd">
        <circle cx="50" cy="50" r="50" fill="#FCE9BA"/>
        <path fill="#EEAF4B" d="M29.027 55.18l4.402 10.838c2.903 5.339 5.238 6.737 10.915 8.914 3.71 1.422 10.732 1.422 14.414 0 5.613-2.167 7.987-3.532 10.865-8.822l4.45-10.93c-2.492-2.467-6.522.283-9.009 2.746-2.478-2.463-6.489-.707-8.966 1.757a6.356 6.356 0 0 0-8.961 0c-2.502-2.464-6.551-4.22-9.057-1.757-2.502-2.463-6.551-5.213-9.053-2.745z"/>
        <path fill="#FBD490" d="M41.642 69.952a.986.986 0 0 1-.889-.563l-2.702-5.771a.98.98 0 0 1 .473-1.304.98.98 0 0 1 1.298.473l2.702 5.772a.974.974 0 0 1-.468 1.298.931.931 0 0 1-.414.095zM61.459 69.952a.917.917 0 0 1-.415-.095.98.98 0 0 1-.473-1.298l2.708-5.772a.974.974 0 0 1 1.298-.473c.487.23.701.811.473 1.304l-2.703 5.771a.986.986 0 0 1-.888.563zM55.152 72c-.048 0-.1-.004-.153-.009a.982.982 0 0 1-.811-1.122l.898-5.771a.982.982 0 0 1 1.117-.817.985.985 0 0 1 .817 1.122l-.904 5.772a.973.973 0 0 1-.964.826zM47.943 72a.977.977 0 0 1-.964-.825l-.898-5.772a.982.982 0 0 1 .811-1.122.982.982 0 0 1 1.119.817l.902 5.771a.985.985 0 0 1-.817 1.122c-.052.005-.1.01-.153.01z"/>
        <path fill="#FFF" d="M71.046 46.65c.143-.488.22-.984.22-1.49 0-2.722-2.149-5.19-5.63-7.004 0 0 .092-15.655-12.675-14.39 0 0 4.115 6.665-1.652 6.727-2.812.028-5.429.4-7.653 1.027 1.88 3.15 1.47 7.29-1.247 10.006-2.811 2.817-7.166 3.156-10.36 1.032-.438.83-.696 1.7-.696 2.602 0 .506.076 1.002.219 1.49-2.315 1.713-3.662 3.747-3.662 5.929 0 1.494.63 2.917 1.77 4.216l-.653-1.614c2.502-2.468 6.551.282 9.053 2.745 2.506-2.463 6.555-.707 9.057 1.757a6.356 6.356 0 0 1 8.961 0c2.477-2.464 6.488-4.22 8.966-1.757 2.483-2.458 6.498-5.2 8.99-2.759.425-.83.654-1.7.654-2.593 0-2.182-1.346-4.21-3.662-5.924z"/>
        <path fill="#F75B57" d="M30.79 41.521c-3.457-3.456-3.86-8.656-.894-11.62l.893-.893c2.964-2.965 8.164-2.563 11.625.893a8.217 8.217 0 0 1 0 11.62 8.214 8.214 0 0 1-11.625 0z"/>
        <path fill="#F98282" d="M35.038 32.885c-1.06 0-2.12-.401-2.926-1.208a.97.97 0 0 1 0-1.384.973.973 0 0 1 1.38 0c.85.849 2.239.849 3.088 0a.973.973 0 0 1 1.38 0 .981.981 0 0 1 0 1.384 4.12 4.12 0 0 1-2.922 1.208z"/>
        <path fill="#6A3311" d="M34.757 29.959a.981.981 0 0 1-.974-.894c-.005-.052-.253-2.363-2.154-3.842-1.518-1.19-3.71-1.572-6.502-1.147a.979.979 0 0 1-1.117-.816.983.983 0 0 1 .821-1.117c3.361-.516 6.064.01 8.025 1.556 2.578 2.03 2.86 5.07 2.875 5.194a.983.983 0 0 1-.894 1.061c-.028 0-.057.005-.08.005z"/>
        <path fill="#FFCFB4" d="M51.553 41.65a.98.98 0 0 1-.98-.978c0-.54.44-.98.98-.98 4.039 0 7.872-.51 11.08-1.48a.987.987 0 0 1 1.222.656.98.98 0 0 1-.653 1.217c-3.395 1.027-7.42 1.566-11.65 1.566zM37.048 50.412c-.11 0-.224-.025-.334-.063a25.89 25.89 0 0 1-3.113-1.365.978.978 0 0 1-.41-1.322.972.972 0 0 1 1.318-.411c.902.468 1.87.892 2.873 1.26.511.187.769.75.588 1.256a.985.985 0 0 1-.922.645zM51.31 52.703c-2.001 0-3.988-.12-5.95-.363a.973.973 0 0 1-.85-1.089.983.983 0 0 1 1.09-.85c3.924.484 7.944.464 11.949-.057a.97.97 0 0 1 1.099.841.978.978 0 0 1-.846 1.098c-2.167.282-4.335.42-6.493.42zM63.111 51.218a.977.977 0 0 1-.253-1.919c2.024-.553 3.824-1.246 5.357-2.053a.982.982 0 0 1 1.323.406.98.98 0 0 1-.411 1.322c-1.657.879-3.596 1.618-5.753 2.211-.09.023-.177.033-.263.033z"/>
    </g>
</svg>
