<svg xmlns="http://www.w3.org/2000/svg" xmlns:xlink="http://www.w3.org/1999/xlink" width="100" height="100" viewBox="0 0 100 100">
    <defs>
        <path id="a" d="M.006.075h40.926V45.01H.006z"/>
    </defs>
    <g fill="none" fill-rule="evenodd">
        <circle cx="50" cy="50" r="50" fill="#FCE9BA"/>
        <path fill="#D4D1CA" d="M59.46 22H42.527c-1.238 0-2.25.76-2.25 1.688v3.405c0 .928 1.012 1.688 2.25 1.688H59.46c1.238 0 2.25-.76 2.25-1.688v-3.405c0-.928-1.012-1.688-2.25-1.688"/>
        <path fill="#F6F4EC" d="M40.426 26.58s-1.354-.042-2.135.954l-9.024 11.312 17.357 4.182 13.627-2.046 1.46-14.401H40.426"/>
        <path fill="#D4D1CA" d="M39.811 31.873a.84.84 0 0 1-.659-1.366l.865-1.084a.844.844 0 0 1 1.185-.134c.364.29.424.82.134 1.183l-.865 1.084a.842.842 0 0 1-.66.317"/>
        <g transform="translate(29 31.99)">
            <mask id="b" fill="#fff">
                <use xlink:href="#a"/>
            </mask>
            <path fill="#D4D1CA" d="M6.954 4.718a.841.841 0 0 1-.659-1.366L8.656.392A.844.844 0 0 1 9.841.26c.364.29.424.819.134 1.183l-2.361 2.96a.842.842 0 0 1-.66.316" mask="url(#b)"/>
            <path fill="#FFFEFD" d="M1.236 6.383h27.241c.68 0 1.237.556 1.237 1.235v36.157a1.24 1.24 0 0 1-1.237 1.235H1.237A1.24 1.24 0 0 1 0 43.775V7.618a1.24 1.24 0 0 1 1.236-1.235" mask="url(#b)"/>
            <path fill="#DF4B47" d="M.006 32.51h40.926v-2.698H.006z" mask="url(#b)"/>
        </g>
        <path fill="#EAE8E3" d="M69.66 38.401l-7.103-11.289c-.212-.337-.521-.531-.846-.532-.325 0-.634.194-.846.53L53.76 38.375a1.901 1.901 0 0 0-.273 1.004v36.087c0 .848.501 1.535 1.119 1.535h14.207c.618 0 1.119-.687 1.119-1.535v-36.06a1.9 1.9 0 0 0-.272-1.004"/>
        <path fill="#D4D1CA" d="M61.71 26.58c-.324 0-.633.194-.845.53L53.76 38.375a1.901 1.901 0 0 0-.273 1.004v36.087c0 .848.501 1.535 1.119 1.535h7.103V26.58"/>
        <path fill="#F6F4EC" d="M53.761 38.374a1.901 1.901 0 0 0-.273 1.004v36.087c0 .848.501 1.535 1.119 1.535h14.207c.618 0 1.119-.687 1.119-1.535v-36.06c0-.369-.097-.725-.272-1.004l-15.9-.027"/>
        <path fill="#B63E3B" d="M53.489 64.5h16.444v-2.698H53.49z"/>
        <path fill="#F75B57" d="M29.006 61.802h40.926v-13.25H29.006z"/>
        <path fill="#DF4B47" d="M53.489 61.802h16.444v-13.25H53.49z"/>
        <path fill="#FFFFFE" d="M36.916 58.907a.842.842 0 0 1-.843-.842v-3.19l-.612 1.036a.843.843 0 0 1-.718.414h-.008a.843.843 0 0 1-.718-.4l-.716-1.162v3.302a.842.842 0 0 1-1.686 0V51.79a.842.842 0 0 1 1.56-.441l1.544 2.503 1.471-2.49a.843.843 0 0 1 1.569.428v6.275a.842.842 0 0 1-.843.842M39.534 58.907a.842.842 0 0 1-.843-.842V51.79a.842.842 0 0 1 1.686 0v6.275a.842.842 0 0 1-.843.842M44.746 58.907h-2.66a.842.842 0 0 1-.843-.842V51.79a.842.842 0 0 1 1.686 0v5.433h1.817a.842.842 0 1 1 0 1.684M51.34 57.616l-2.008-3.182 1.629-2.133a.844.844 0 0 0-1.34-1.02l-1.822 2.384V51.79a.842.842 0 0 0-1.686 0v6.275a.842.842 0 0 0 1.686 0V56.44l.442-.578 1.674 2.65c.16.255.76.543 1.162.264.383-.265.512-.768.264-1.161"/>
    </g>
</svg>
