<svg xmlns="http://www.w3.org/2000/svg" xmlns:xlink="http://www.w3.org/1999/xlink" width="100" height="100" viewBox="0 0 100 100">
    <defs>
        <path id="a" d="M.078.52h54.705v19.83H.078z"/>
    </defs>
    <g fill="none" fill-rule="evenodd">
        <circle cx="50" cy="50" r="50" fill="#FCE9BA"/>
        <path fill="#EEAF4B" d="M74.772 56.197c-.657.096-1.355.152-2.079.152-1.915 0-3.647-.377-4.947-.978-1.305.601-3.046.978-4.962.978-2.334 0-4.402-.55-5.743-1.4-1.334.85-3.403 1.4-5.737 1.4-2.66 0-4.982-.719-6.262-1.778-1.273 1.06-3.597 1.778-6.262 1.778-2.328 0-4.397-.55-5.737-1.4-1.34.85-3.408 1.4-5.736 1.4a14.11 14.11 0 0 1-2.609-.244v.765c0 4.32 3.5 7.826 7.826 7.826h34.433a7.829 7.829 0 0 0 7.826-7.826c0-.118-.01-.235-.016-.347 0-.021 0-.158.005-.326z"/>
        <path fill="#7A3726" d="M74.767 49.196a2.092 2.092 0 0 1-2.074 1.936h-3.32c.452.475.711 1.004.711 1.564 0 1.06-.901 2.008-2.338 2.675 1.3.601 3.032.978 4.947.978 4.036 0 7.307-1.636 7.307-3.653 0-1.656-2.21-3.056-5.233-3.5z"/>
        <path fill="#C56458" d="M57.877 51.132c.454.475.734.999.734 1.564 0 .851-.592 1.63-1.57 2.252 1.34.85 3.41 1.401 5.743 1.401 4.036 0 7.3-1.636 7.3-3.653 0-.56-.26-1.09-.708-1.564H57.877z"/>
        <g transform="translate(20 36)">
            <mask id="b" fill="#fff">
                <use xlink:href="#a"/>
            </mask>
            <path fill="#EEAF4B" d="M54.783 8.345A7.829 7.829 0 0 0 46.957.52c-2.273 0-4.311.978-5.737 2.523A7.794 7.794 0 0 0 35.477.519c-2.267 0-4.31.978-5.737 2.523A7.792 7.792 0 0 0 23.997.519c-2.267 0-4.304.978-5.736 2.523A7.788 7.788 0 0 0 12.524.519a7.825 7.825 0 0 0-7.826 7.826c0 .123.01.235.015.352-.006.056-.015.113-.015.173v4.173c0 1.147.937 2.089 2.083 2.089h45.912c1.152 0 2.09-.942 2.09-2.089V8.87c0-.06-.01-.117-.016-.173.005-.117.016-.23.016-.352z" mask="url(#b)"/>
            <path fill="#7A3726" d="M6.781 15.132c-1.064 0-1.94-.815-2.063-1.85C1.962 13.808 0 15.132 0 16.696c0 2.017 3.271 3.653 7.307 3.653 4.03 0 7.3-1.636 7.3-3.653 0-.56-.26-1.09-.713-1.564H6.78z" mask="url(#b)"/>
        </g>
        <path fill="#C56458" d="M33.874 51.132c.458.475.733.999.733 1.564 0 .851-.585 1.63-1.564 2.252 1.34.85 3.409 1.401 5.737 1.401 4.036 0 7.307-1.636 7.307-3.653 0-.56-.26-1.09-.714-1.564H33.874z"/>
        <path fill="#7A3726" d="M45.363 51.132c.454.475.724.999.724 1.564 0 .688-.387 1.325-1.045 1.875 1.28 1.06 3.603 1.778 6.262 1.778 4.036 0 7.307-1.636 7.307-3.653 0-.56-.266-1.09-.713-1.564H45.363z"/>
        <path fill="#FBD490" d="M32.524 59.478a1.046 1.046 0 0 1-2.09 0 1.045 1.045 0 0 1 2.09 0zM37.742 61.567c0 .576-.47 1.04-1.045 1.04a1.041 1.041 0 1 1 0-2.085c.575 0 1.045.47 1.045 1.045zM41.914 59.478a1.046 1.046 0 0 1-2.09 0 1.046 1.046 0 0 1 2.09 0zM45.042 61.567c0 .576-.463 1.04-1.045 1.04a1.036 1.036 0 0 1-1.038-1.04 1.042 1.042 0 1 1 2.083 0zM49.215 59.478a1.04 1.04 0 1 1-2.083 0 1.042 1.042 0 1 1 2.083 0zM53.394 61.567c0 .576-.47 1.04-1.045 1.04a1.041 1.041 0 1 1 0-2.085c.575 0 1.045.47 1.045 1.045zM57.567 58.433c0 .576-.47 1.045-1.045 1.045s-1.045-.47-1.045-1.045c0-.576.47-1.044 1.045-1.044s1.045.468 1.045 1.044zM60.694 61.567c0 .576-.463 1.04-1.044 1.04a1.036 1.036 0 0 1-1.039-1.04 1.042 1.042 0 1 1 2.083 0zM65.912 59.478a1.042 1.042 0 1 1-2.083 0 1.04 1.04 0 1 1 2.083 0zM70.084 60.522a1.04 1.04 0 1 1-2.083 0 1.042 1.042 0 1 1 2.083 0zM36.615 46.333c-.58 0-1.044-.47-1.044-1.045 0-4.891 3.979-8.87 8.87-8.87.576 0 1.04.468 1.04 1.044 0 .575-.464 1.045-1.04 1.045-3.74 0-6.787 3.042-6.787 6.781 0 .575-.463 1.045-1.04 1.045zM47.65 46.43a1.043 1.043 0 0 1-1.044-1.04c0-4.891 3.98-8.87 8.871-8.87a1.043 1.043 0 1 1 0 2.083c-3.74 0-6.781 3.047-6.781 6.787 0 .575-.469 1.04-1.045 1.04z"/>
        <path fill="#EEAF4B" d="M59.13 45.39a7.825 7.825 0 0 1 7.827-7.826"/>
        <path fill="#FBD490" d="M59.13 46.43a1.043 1.043 0 0 1-1.044-1.04c0-4.891 3.98-8.87 8.87-8.87a1.043 1.043 0 0 1 0 2.084c-3.739 0-6.78 3.046-6.78 6.786 0 .575-.47 1.04-1.046 1.04z"/>
        <path fill="#88C057" d="M35.133 49.043c-.21 0-.413.02-.606.046A1.559 1.559 0 0 0 33.043 48c-.208 0-.403.04-.58.117a1.57 1.57 0 0 0-1.51-1.162c-.702 0-1.298.473-1.486 1.12a2.6 2.6 0 0 0-.596-.075c-.556 0-1.071.178-1.494.473a3.023 3.023 0 0 0-1.64-.473c-1.437 0-2.61.938-2.61 2.088 0 1.152 1.173 2.084 2.61 2.084a3.2 3.2 0 0 0 .948-.142 2.603 2.603 0 0 0 2.186 1.187c.509 0 .983-.153 1.38-.403a2.074 2.074 0 0 0 3.196-1.019c.457.235 1.038.377 1.686.377 1.436 0 2.609-.698 2.609-1.564 0-.86-1.173-1.564-2.609-1.564z"/>
        <path fill="#88C057" d="M47.65 49.043c-.208 0-.406.02-.6.046A1.561 1.561 0 0 0 45.568 48c-.21 0-.403.04-.587.117a1.556 1.556 0 0 0-1.503-1.162c-.708 0-1.299.473-1.493 1.12a2.546 2.546 0 0 0-.596-.075c-.555 0-1.07.178-1.492.473A3.018 3.018 0 0 0 38.26 48c-1.441 0-2.609.938-2.609 2.088 0 1.152 1.168 2.084 2.609 2.084a3.2 3.2 0 0 0 .948-.142 2.591 2.591 0 0 0 3.566.784c.347.25.765.403 1.222.403.923 0 1.692-.596 1.973-1.422.453.235 1.04.377 1.68.377 1.443 0 2.61-.698 2.61-1.564 0-.86-1.167-1.564-2.61-1.564z"/>
        <path fill="#88C057" d="M61.22 49.043c-.21 0-.413.02-.607.046A1.559 1.559 0 0 0 59.13 48c-.208 0-.403.04-.58.117a1.57 1.57 0 0 0-1.51-1.162c-.702 0-1.298.473-1.486 1.12a2.6 2.6 0 0 0-.596-.075c-.556 0-1.071.178-1.494.473a3.023 3.023 0 0 0-1.64-.473c-1.437 0-2.61.938-2.61 2.088 0 1.152 1.173 2.084 2.61 2.084a3.2 3.2 0 0 0 .948-.142 2.603 2.603 0 0 0 2.186 1.187c.509 0 .983-.153 1.38-.403a2.074 2.074 0 0 0 3.196-1.019c.457.235 1.038.377 1.686.377 1.436 0 2.609-.698 2.609-1.564 0-.86-1.173-1.564-2.609-1.564z"/>
        <path fill="#88C057" d="M74.783 49.043c-.21 0-.407.02-.602.046A1.563 1.563 0 0 0 72.693 48c-.203 0-.396.04-.58.117a1.558 1.558 0 0 0-1.503-1.162c-.708 0-1.3.473-1.493 1.12A2.555 2.555 0 0 0 68.52 48c-.555 0-1.07.178-1.492.473A3.022 3.022 0 0 0 65.393 48c-1.443 0-2.61.938-2.61 2.088 0 1.152 1.167 2.084 2.61 2.084.336 0 .652-.05.941-.142a2.611 2.611 0 0 0 2.186 1.187c.51 0 .984-.153 1.387-.403.34.25.764.403 1.222.403.917 0 1.692-.596 1.972-1.422.454.235 1.035.377 1.682.377 1.44 0 2.608-.698 2.608-1.564 0-.86-1.167-1.564-2.608-1.564z"/>
    </g>
</svg>
