<svg xmlns="http://www.w3.org/2000/svg" width="100" height="100" viewBox="0 0 100 100">
    <g fill="none" fill-rule="evenodd">
        <circle cx="50" cy="50" r="50" fill="#FCE9BA"/>
        <path fill="#C2E6EA" d="M55.41 20.354c.376 1.378.864 2.739 1.182 3.344.386.736 1.686 2.035 3.9 3.898l-.423.297a4.464 4.464 0 0 1 1.158 3.006v1.364a2.52 2.52 0 0 1 2.018 2.47v2.095a2.52 2.52 0 0 1-2.018 2.47V41.5a2.52 2.52 0 0 1 2.018 2.47v.96a2.52 2.52 0 0 1-2.018 2.47v19.022a2.52 2.52 0 0 1 2.018 2.47v.96a2.52 2.52 0 0 1-2.018 2.47v2.743a2.52 2.52 0 0 1 2.018 2.47v.96a2.52 2.52 0 0 1-2.018 2.47v1.838a4.48 4.48 0 0 1-4.48 4.48h-5.723l-.04-1.1a1.362 1.362 0 0 0-2.722 0l-.04 1.1h-5.724a4.48 4.48 0 0 1-4.48-4.48v-1.838A2.52 2.52 0 0 1 36 78.495v-.96a2.52 2.52 0 0 1 2.018-2.47v-2.742A2.52 2.52 0 0 1 36 69.853v-.961a2.52 2.52 0 0 1 2.018-2.47V47.4A2.52 2.52 0 0 1 36 44.93v-.96a2.52 2.52 0 0 1 2.018-2.47v-2.202A2.52 2.52 0 0 1 36 36.828v-2.095a2.52 2.52 0 0 1 2.018-2.47v-1.364c0-1.172.45-2.239 1.187-3.037l-.38-.266c2.215-1.863 3.515-3.162 3.901-3.898.318-.605.806-1.966 1.182-3.344h-.453a1.4 1.4 0 0 1-1.4-1.4v-4.837a1.4 1.4 0 0 1 1.4-1.4H55.79a1.4 1.4 0 0 1 1.4 1.4v4.837a1.4 1.4 0 0 1-1.4 1.4h-.38z"/>
        <path fill="#EEF4F5" d="M51.024 87.283l-.04-1.1a1.362 1.362 0 0 0-2.722 0l-.04 1.1h-5.724a4.48 4.48 0 0 1-4.48-4.48V30.899c0-1.172.45-2.239 1.187-3.037l-.38-.266c2.215-1.863 3.515-3.162 3.901-3.898.58-1.104 1.725-4.72 1.725-6.372 0-1.1 1.476-1.632 4.427-1.592l.78.806.782-.806c2.951-.04 4.427.491 4.427 1.592 0 1.652 1.145 5.268 1.725 6.372.386.736 1.686 2.035 3.9 3.898l-.423.297a4.464 4.464 0 0 1 1.158 3.006v51.904a4.48 4.48 0 0 1-4.48 4.48h-5.723z"/>
        <path fill="#C98B68" d="M38.018 49.498h23.411V64.17H38.018z"/>
        <g transform="translate(36 32.213)">
            <rect width="27.245" height="7.035" fill="#E9EFEF" rx="2.52"/>
            <path fill="#D2E0E1" d="M0 3.618h27.245v.997a2.52 2.52 0 0 1-2.52 2.52H2.52A2.52 2.52 0 0 1 0 4.615v-.997z"/>
        </g>
        <g transform="translate(36 41.45)">
            <rect width="27.245" height="5.916" fill="#E9EFEF" rx="2.52"/>
            <path fill="#D2E0E1" d="M0 3.042h27.245v.438A2.52 2.52 0 0 1 24.725 6H2.52A2.52 2.52 0 0 1 0 3.48v-.438z"/>
        </g>
        <g transform="translate(36 66.372)">
            <rect width="27.245" height="5.916" fill="#E9EFEF" rx="2.52"/>
            <path fill="#D2E0E1" d="M0 3.042h27.245v.438A2.52 2.52 0 0 1 24.725 6H2.52A2.52 2.52 0 0 1 0 3.48v-.438z"/>
        </g>
        <g transform="translate(36 75.015)">
            <rect width="27.245" height="5.916" fill="#E9EFEF" rx="2.52"/>
            <path fill="#D2E0E1" d="M0 3.042h27.245v.438A2.52 2.52 0 0 1 24.725 6H2.52A2.52 2.52 0 0 1 0 3.48v-.438z"/>
        </g>
        <g transform="translate(42.055 12.717)">
            <rect width="15.136" height="7.637" fill="#C98B68" rx="1.4"/>
            <path fill="#AA582A" d="M0 4.883h15.136v1.354a1.4 1.4 0 0 1-1.4 1.4H1.4a1.4 1.4 0 0 1-1.4-1.4V4.883z"/>
        </g>
    </g>
</svg>
