<svg xmlns="http://www.w3.org/2000/svg" xmlns:xlink="http://www.w3.org/1999/xlink" width="100" height="100" viewBox="0 0 100 100">
    <defs>
        <path id="a" d="M.072.392h54.51V55H.073z"/>
    </defs>
    <g fill="none" fill-rule="evenodd">
        <circle cx="50" cy="50" r="50" fill="#FCE9BA"/>
        <g transform="translate(23 22)">
            <mask id="b" fill="#fff">
                <use xlink:href="#a"/>
            </mask>
            <path fill="#FEFAED" d="M52.202 18.023c.02-.019 2.531-.761 2.374-2.582-.071-.799-.57-1.85-1.43-1.723-.71.098-1.542-.73-1.439-1.44l.098-.69c.103-.706-.728-1.537-1.438-1.435l-.686.099c-.71.098-1.537-.729-1.434-1.439l.098-.686c.098-.71-.73-1.541-1.44-1.439l-.686.099c-.71.102-1.541-.73-1.438-1.439l.098-.687c.103-.71-.728-1.537-1.439-1.434l-.686.093c-.71.103-1.541-.728-1.438-1.438l.018-.117c.117-.822-.887-1.297-1.65-1.363-2.04-.183-2.675 2.396-2.675 2.423 0 0-3.302 5.53-4.156 14.657l5.001 5.006s8.21-.06 14.348-4.465zM2.382 37.374c-.023.013-2.531.76-2.377 2.578.07.798.574 1.85 1.433 1.727.71-.103 1.537.73 1.434 1.439l-.098.687c-.098.71.73 1.537 1.438 1.438l.688-.098c.709-.102 1.541.729 1.438 1.434l-.098.691c-.103.706.728 1.537 1.438 1.434l.687-.098c.71-.098 1.541.729 1.438 1.438l-.098.688c-.103.709.73 1.54 1.438 1.438l.688-.098c.709-.103 1.536.728 1.438 1.438l-.019.116c-.117.823.883 1.299 1.644 1.364 2.046.182 2.676-2.396 2.68-2.423 0 0 3.303-5.53 4.158-14.656l-5.007-5.008c0 .005-8.21.061-14.343 4.47z" mask="url(#b)"/>
        </g>
        <path fill="#FEFAED" d="M63.292 52.335L52.928 62.699a3.83 3.83 0 0 1-5.408 0L37.157 52.335a3.83 3.83 0 0 1 0-5.408L47.52 36.563a3.828 3.828 0 0 1 5.408 0l10.364 10.364a3.83 3.83 0 0 1 0 5.408z"/>
        <path fill="#F75B57" d="M60.742 54.89l-7.01 7.01-13.437-18.112 7.01-7.01z"/>
        <path fill="#C17D63" d="M59.803 42.564a.975.975 0 0 1-.62-.224.96.96 0 0 1-.113-1.35c1.77-2.087 3.298-2.143 5.072-2.204.576-.02 1.164-.037 1.845-.127a.97.97 0 0 1 1.066.832.957.957 0 0 1-.828 1.07c-.765.092-1.429.116-2.017.14-1.634.055-2.457.084-3.675 1.522a.952.952 0 0 1-.73.341z"/>
        <path fill="#C17D63" d="M58.752 41.635a.956.956 0 0 1-.471-1.789c2.713-1.518 4.437-5.269 4.002-8.724a.961.961 0 0 1 .832-1.07.966.966 0 0 1 1.07.832c.532 4.249-1.56 8.723-4.97 10.629a.906.906 0 0 1-.463.122zM34.536 60.737a.961.961 0 0 1-.948-.836.958.958 0 0 1 .832-1.069c.765-.094 1.428-.117 2.012-.141 1.636-.055 2.462-.084 3.68-1.527a.956.956 0 1 1 1.458 1.238c-1.765 2.087-3.298 2.139-5.072 2.204-.57.02-1.159.037-1.84.122-.037.009-.08.009-.122.009z"/>
        <path fill="#C17D63" d="M37.409 69.345a.953.953 0 0 1-.948-.837c-.534-4.254 1.555-8.724 4.964-10.629a.957.957 0 0 1 1.303.364.957.957 0 0 1-.37 1.303c-2.712 1.518-4.431 5.268-4.001 8.725a.958.958 0 0 1-.832 1.07c-.037.004-.08.004-.116.004z"/>
    </g>
</svg>
