<svg xmlns="http://www.w3.org/2000/svg" width="100" height="100" viewBox="0 0 100 100">
    <g fill="none" fill-rule="evenodd">
        <circle cx="50" cy="50" r="50" fill="#FCE9BA"/>
        <g fill-rule="nonzero">
            <path fill="#CD6E61" d="M74.729 42.146c-1.051-7.759-6.703-14.164-13.803-17.978a18.58 18.58 0 0 0-1.087-.538c-2.07-.938-9.501-1.5-12.745-1.609-.116-.003-.234-.021-.35-.021-.057 0-.115.005-.172.006a20.188 20.188 0 0 0-.459-.006l.006.022c-.463.02-.926.054-1.387.117a16.4 16.4 0 0 0-3.396.85c-8.827 3.219-15.761 10.795-16.204 20.272-.178 3.812.868 7.575 2.722 10.911 2.299 4.137 6.466 12.205 6.189 15.882-.058.763-.028 1.488.161 2.141.993 3.43 3.363 5.805 6.54 5.805.124 0 .238-.034.358-.05l.011.05h4.078a1.922 1.922 0 0 0 1.922-1.922v-7.93c0-.961.202-1.927.687-2.757 1.482-2.533.048-4.542.357-8.736.158-2.143 3.317-2.278 3.545-.141.028.259.042.522.042.79l-2.312 15.778c-.376 2.291.887 4.426 2.696 4.833l6.985.085c3.176 0 5.178-2.375 6.171-5.805.148-.51.187-1.06.161-1.633-.168-3.603 4.294-11.903 6.68-16.064 2.145-3.743 3.183-8.076 2.604-12.352z"/>
            <path fill="#FFD3B9" d="M44.732 22.139a16.4 16.4 0 0 0-3.396.85c-8.827 3.219-15.761 10.795-16.204 20.272-.178 3.812.868 7.575 2.722 10.911 2.299 4.137 6.466 12.205 6.189 15.882-.058.763-.028 1.488.161 2.141.993 3.43 3.363 5.805 6.54 5.805 2.131 0 3.73-2.374 3.312-4.918l-2.312-15.778c0-3.362 2.239-6.087 5-6.087s5 2.725 5 6.087l-2.312 15.778C49.014 75.626 50.612 78 52.744 78c3.176 0 5.547-2.375 6.54-5.805.148-.51.187-1.059.161-1.633-.168-3.602 4.294-11.903 6.68-16.064 2.146-3.743 3.184-8.077 2.605-12.352-1.051-7.759-6.703-14.164-13.803-17.978a18.58 18.58 0 0 0-1.087-.538C51.521 22.581 49.094 22 46.744 22c-.671 0-1.343.047-2.012.139z"/>
            <g fill="#FFA89C">
                <path d="M45.743 38.043v-3.936c-5.755.158-12.245 1.51-19.256 4.893a.985.985 0 0 1-.694.054 20.224 20.224 0 0 0-.661 4.207c-.001.032.001.064-.001.096 7.506-3.707 14.47-5.159 20.612-5.314zM45.743 27.033v-4.998c-.338.023-.675.058-1.012.104a16.4 16.4 0 0 0-3.396.85c-4.03 1.47-7.657 3.857-10.461 6.911 5.329-1.92 10.317-2.749 14.869-2.867zM28.53 55.408c.57 1.054 1.199 2.254 1.827 3.527a.98.98 0 0 1 .934.022c2.454 1.438 6.386 3.251 11.256 3.834l-.587-4.008-.251-.026a46.57 46.57 0 0 1-13.179-3.349zM45.743 29.037c-4.802.13-10.106 1.074-15.805 3.346a.98.98 0 0 1-.962-.145 21.529 21.529 0 0 0-2.455 4.553c6.976-3.22 13.453-4.54 19.222-4.691v-3.063zM68.164 39.456a1.003 1.003 0 0 1-.302.052.99.99 0 0 1-.482-.125c-4.212-2.324-11.021-5.104-19.636-5.278v3.93c9.726.191 17.172 3.524 21.128 5.786a17.796 17.796 0 0 0-.142-1.674 19.743 19.743 0 0 0-.566-2.691zM47.743 32.098c8.374.162 15.123 2.683 19.585 4.993a22.726 22.726 0 0 0-2.777-4.807.997.997 0 0 1-.606.215.99.99 0 0 1-.392-.08 42.636 42.636 0 0 0-15.81-3.392v3.071zM47.743 27.022a44.567 44.567 0 0 1 14.726 2.816c-2.16-2.243-4.735-4.162-7.544-5.671a18.58 18.58 0 0 0-1.087-.538c-1.991-.902-4.061-1.431-6.095-1.57v4.963zM49.72 75.711C50.267 77.05 51.397 78 52.744 78c2.935 0 5.166-2.04 6.274-5.054-3.083 1.413-6.205 2.344-9.298 2.765zM51.009 64.516a1 1 0 0 1-.179.016c-.049 0-.094-.018-.142-.025l-.588 4.014c3.309-.53 6.634-1.659 9.888-3.37a.986.986 0 0 1 .82-.038c.705-1.772 1.605-3.672 2.519-5.464-4.056 2.484-8.193 4.122-12.318 4.867zM49.947 70.563c-.049 0-.094-.019-.142-.026l-.373 2.545c-.036.222-.039.439-.045.656 3.169-.425 6.383-1.419 9.554-2.961a.974.974 0 0 1 .501-.083c-.001-.045.005-.087.002-.132-.039-.84.181-1.943.561-3.182-3.261 1.606-6.59 2.677-9.909 3.171a.964.964 0 0 1-.149.012zM43.717 70.776c-.048.007-.092.027-.142.027l-.078-.003c-3.253-.252-6.465-1.059-9.561-2.386.1.608.142 1.162.106 1.64a7 7 0 0 0 .045 1.614.988.988 0 0 1 .658.028c3.015 1.29 6.152 2.044 9.326 2.241.015.001.028.01.043.011a5.012 5.012 0 0 0-.06-.867l-.337-2.305zM51.801 58.686a.898.898 0 0 1-.115.007c-.05 0-.094-.019-.142-.026l-.558 3.811c4.247-.818 8.523-2.64 12.713-5.432a.993.993 0 0 1 1.023-.037c.414-.761.807-1.463 1.165-2.092-4.658 1.956-9.39 3.229-14.086 3.769zM34.091 66.303a28.274 28.274 0 0 0 9.333 2.475l-.583-3.982c-.048.007-.092.026-.142.026a.995.995 0 0 1-.109-.006c-3.786-.414-7.59-1.608-11.089-3.46.76 1.683 1.439 3.375 1.907 4.905a.985.985 0 0 1 .683.042zM51.718 56.68c4.838-.572 9.722-1.944 14.519-4.085a.979.979 0 0 1 .835.022c.954-2.112 1.559-4.36 1.741-6.652a.983.983 0 0 1-.453-.132c-3.629-2.147-10.939-5.596-20.616-5.793v5.178a1 1 0 1 1-2 0V40.05c-5.997.159-12.812 1.595-20.17 5.308a1.018 1.018 0 0 1-.397.104c.197 2.658.951 5.255 2.135 7.661a.984.984 0 0 1 .861-.038 44.581 44.581 0 0 0 12.806 3.577.996.996 0 0 1 .62-.346c.075-.012.144.005.216.01.385-2.895 2.442-5.108 4.929-5.108 2.588-.001 4.717 2.393 4.974 5.462zM34.864 73.879c1.203 2.49 3.26 4.121 5.88 4.121 1.279 0 2.355-.863 2.93-2.095-2.993-.215-5.949-.905-8.81-2.026z"/>
            </g>
            <path fill="#FFD3B9" d="M46.638 45.355c-3.599 0-6.527 2.635-6.527 5.874 0 .94.25 1.854.72 2.675 1.467-1.913 3.568-3.044 5.807-3.044 2.239 0 4.341 1.131 5.807 3.044a5.37 5.37 0 0 0 .72-2.675c0-3.239-2.928-5.874-6.527-5.874z"/>
        </g>
    </g>
</svg>
