<svg xmlns="http://www.w3.org/2000/svg" width="100" height="100" viewBox="0 0 100 100">
    <g fill="none" fill-rule="evenodd">
        <circle cx="50" cy="50" r="50" fill="#FCE9BA"/>
        <path fill="#AA582A" d="M65.043 27.139H36.998v-4.657c0-.237.191-.428.429-.428h27.186c.237 0 .43.19.43.428v4.657zM63.984 33.684v43.182h-29.48a4.417 4.417 0 0 1-4.423-4.413V35.165l1.093-1.48h32.81z"/>
        <path fill="#FFF" d="M72.149 35.165v37.288a4.417 4.417 0 0 1-4.423 4.413h-5.177a4.418 4.418 0 0 1-4.423-4.413V33.684h12.9l1.123 1.48z"/>
        <path fill="#F2F2F2" d="M68.828 35.165v37.292c0 2.435-1.982 4.41-4.427 4.41h3.322a4.418 4.418 0 0 0 4.426-4.41V35.165h-3.321zM44.103 35.165H72.15l-7.106-9.366H36.998z"/>
        <path fill="#DEDEDE" d="M65.043 25.8h-3.321l7.106 9.365h3.32z"/>
        <path fill="#FFF" d="M58.126 35.165H30.08l6.917-9.366h28.045z"/>
        <path fill="#C98B68" d="M51.877 54.526c0-4.355-3.568-7.884-7.97-7.884-4.402 0-7.971 3.53-7.971 7.884 0 4.354 3.569 7.884 7.97 7.884 4.403 0 7.971-3.53 7.971-7.884z"/>
    </g>
</svg>
