<svg xmlns="http://www.w3.org/2000/svg" width="100" height="100" viewBox="0 0 100 100">
    <g fill="none" fill-rule="evenodd">
        <circle cx="50" cy="50" r="50" fill="#C4E5DF"/>
        <path fill="#EEF0F1" d="M46.56 33.708a4.183 4.183 0 0 1-.253-.316c-2.906 1.136-6.163 2.256-7.724 2.256-3.175 0-5.748-2.07-5.748-4.624 0-2.552 2.573-4.623 5.748-4.623 1.56 0 4.81 1.117 7.711 2.252a4.305 4.305 0 0 1 3.51-1.783c1.451 0 2.733.701 3.505 1.773 2.895-1.132 6.13-2.242 7.686-2.242 3.174 0 5.747 2.07 5.747 4.623 0 2.555-2.573 4.624-5.747 4.624-1.557 0-4.8-1.113-7.698-2.246a4.202 4.202 0 0 1-.485.556v6.09h-6.253v-6.34zm26.128 17.587c4.306.746 7.585 4.492 7.585 9.01v11.569H69.317V62.31h-8.53c-1.988 4.007-6.111 6.767-10.889 6.767-4.702 0-8.773-2.673-10.795-6.576H22V51.344h17.103a12.23 12.23 0 0 1 2.77-3.538c.292.11.605.179.935.179h13.439c.52 0 1.002-.156 1.413-.413a12.201 12.201 0 0 1 2.968 3.633v-.054h12.06v.144z"/>
        <path stroke="#D8DFE8" stroke-linecap="round" stroke-linejoin="round" stroke-width="3" d="M43.492 62.02c1.667 2.494 3.869 3.645 6.606 3.454"/>
        <path fill="#D8DFE8" d="M58.374 47.985H40.999a.705.705 0 0 1-.703-.708v-3.922c0-.392.314-.71.703-.71h17.375c.387 0 .701.318.701.71v3.922c0 .39-.314.708-.701.708z"/>
        <path fill="#9CAFB0" d="M43.522 42.717H55.85v-.67a2 2 0 0 0-2-2h-8.327a2 2 0 0 0-2 2v.67z"/>
    </g>
</svg>
