<svg xmlns="http://www.w3.org/2000/svg" width="100" height="100" viewBox="0 0 100 100">
    <g fill="none" fill-rule="evenodd">
        <circle cx="50" cy="50" r="50" fill="#C4E5DF"/>
        <g fill-rule="nonzero">
            <path fill="#EED89A" d="M72.6 66.662H25.85a.858.858 0 0 1-.85-.865V34.662c0-.477.38-.865.85-.865H72.6c.47 0 .85.388.85.865v31.135c0 .478-.38.865-.85.865z"/>
            <path fill="#E6B869" d="M75.15 63.203a.858.858 0 0 1-.85-.865c0-3.815-3.05-6.919-6.8-6.919-3.04 0-5.92 1.94-6.848 4.612a.852.852 0 0 1-.946.565.862.862 0 0 1-.706-.853v-25.08c0-4.77 3.813-8.65 8.5-8.65 4.687 0 8.5 3.88 8.5 8.65v27.675c0 .477-.38.865-.85.865z"/>
            <path fill="#B27B3F" d="M67.5 70.987H25.85a.858.858 0 0 1-.85-.865v-4.325c0-.477.38-.865.85-.865h42.384c1.042-.324 1.816-1.42 1.816-2.594 0-1.43-1.144-2.595-2.55-2.595s-2.55 1.164-2.55 2.595c0 .311-.165.6-.43.752a.833.833 0 0 1-.857-.01l-4.25-2.596a.872.872 0 0 1-.364-1.029c1.16-3.34 4.714-5.766 8.451-5.766 4.687 0 8.5 3.88 8.5 8.649 0 4.769-3.813 8.649-8.5 8.649z"/>
        </g>
        <g stroke="#E1AB63" stroke-linecap="square" stroke-width="1.5">
            <path d="M35.196 39.11l3.522 3.584M40.603 40.993l-3.522 3.583M35.196 55.53l3.522 3.583M40.603 57.412l-3.522 3.583M31.311 47.219l3.522 3.583M36.718 49.1l-3.522 3.585M39.877 47.219l3.522 3.583M45.285 49.1l-3.522 3.585M48.145 47.219l3.522 3.583M53.552 49.1l-3.522 3.585M43.862 39.11l3.522 3.584M49.27 40.993l-3.523 3.583M43.862 55.53l3.522 3.583M49.27 57.412l-3.523 3.583"/>
        </g>
    </g>
</svg>
