<svg xmlns="http://www.w3.org/2000/svg" width="100" height="100" viewBox="0 0 100 100">
    <g fill="none" fill-rule="evenodd">
        <circle cx="50" cy="50" r="50" fill="#C4E5DF"/>
        <g fill-rule="nonzero">
            <path fill="#434A54" d="M57.537 57.114H45.25l11.13-7.633 3.46 6.358z"/>
            <path fill="#4F9EBB" d="M23.253 60.45c-1.45 0-2.624-.591-2.624-1.325V46.614c0-.732 1.175-1.326 2.624-1.326 1.45 0 2.624.594 2.624 1.326v12.511c0 .734-1.174 1.326-2.624 1.326z"/>
            <path fill="#56B8DC" d="M56.215 39.59c-1.156-2.594-2.742-4.073-2.81-4.133a1.314 1.314 0 0 0-.559-.307c-.813-.207-19.99-5.126-27.057-5.126-.917 0-3.065 0-3.613 1.508l-4.06 11.17c-.585 1.604 1.088 3.166 3.974 5.167 2.07 1.437 5.02 3.222 8.767 5.309 6.346 3.53 12.898 6.762 12.964 6.793.18.09.376.134.576.134h.047c.09-.004 2.247-.095 4.79-1.316 2.345-1.128 5.5-3.466 7.227-8.216 1.726-4.747.819-8.594-.246-10.984z"/>
            <g fill="#B6E8FA">
                <path d="M53.406 35.457a1.314 1.314 0 0 0-.56-.307c-.104-.025-.51-.13-1.15-.29L42.759 59.44c.663.332 1.047.523 1.063.53.18.09.377.134.577.134h.046c.034-.002.367-.015.905-.099l8.683-23.883a8.6 8.6 0 0 0-.626-.666zM37.5 31.643l-7.628 20.982c.321.182.65.367.985.553.448.249.894.495 1.342.74l7.903-21.743c-.86-.182-1.734-.361-2.603-.532z"/>
            </g>
            <path fill="#E6E9ED" d="M58.687 56.476H21.94c-.725 0-1.311.594-1.311 1.325v5.3c0 .731.586 1.325 1.311 1.325h36.747A1.32 1.32 0 0 0 60 63.1v-5.299a1.32 1.32 0 0 0-1.313-1.325z"/>
            <path fill="#E6E9ED" d="M58.689 63.1l.013-23.862 13.61-.012 4.89 9.84 2.483 5.017-.023 9.017z"/>
            <path fill="#4FC2E9" d="M77.201 49.065l-4.889-9.839-13.61.012-.005 9.827z"/>
            <path fill="#E6E9ED" d="M78.374 48.471l-5.252-10.57-15.731.013-.015 26.512H80.97l.027-10.654-2.624-5.3zm-.019 13.306H60.002l.011-21.215 11.49-.01 4.524 9.105 2.345 4.736-.017 7.384z"/>
            <g fill="#434A54" transform="translate(23.168 56.46)">
                <ellipse cx="43.394" cy="6.641" rx="6.562" ry="6.625"/>
                <path d="M17.146.016a6.532 6.532 0 0 0-5.25 2.65 6.526 6.526 0 0 0-5.25-2.65C3.024.016.087 2.982.087 6.641c0 3.658 2.937 6.624 6.56 6.624a6.525 6.525 0 0 0 5.25-2.65 6.532 6.532 0 0 0 5.25 2.65c3.624 0 6.562-2.966 6.562-6.624 0-3.66-2.938-6.625-6.562-6.625z"/>
            </g>
            <g fill="#F5F7FA">
                <path d="M65.249 63.1a1.32 1.32 0 0 0 1.313 1.326c.725 0 1.311-.594 1.311-1.326 0-.732-.586-1.323-1.311-1.323s-1.313.591-1.313 1.323zM28.502 63.1a1.32 1.32 0 0 0 1.313 1.326 1.32 1.32 0 0 0 1.313-1.326c0-.732-.588-1.323-1.313-1.323s-1.313.591-1.313 1.323zM39 63.1a1.32 1.32 0 0 0 1.314 1.326c.725 0 1.311-.594 1.311-1.326 0-.732-.586-1.323-1.31-1.323-.726 0-1.314.591-1.314 1.323z"/>
            </g>
        </g>
    </g>
</svg>
