<svg xmlns="http://www.w3.org/2000/svg" width="100" height="100" viewBox="0 0 100 100">
    <g fill="none" fill-rule="evenodd">
        <circle cx="50" cy="50" r="50" fill="#C4E5DF"/>
        <g fill-rule="nonzero">
            <path fill="#7F8C8D" d="M75 46.983v1.758L52.138 72.483h-14.07V51.379h14.07l11.43-11.43-.439 2.198a4.834 4.834 0 0 0 4.836 4.836H75z"/>
            <path fill="#D1D4D1" d="M75 46.983v5.276l-5.276 5.276L52.138 76h-1.759v-5.276h1.759L69.724 52.26z"/>
            <path fill="#ECF0F1" d="M75 25v2.638L52.138 49.621H24v-1.759L46.862 25z"/>
            <path fill="#7F8C8D" d="M35.431 59.293h.88v12.31H24v-.879z"/>
            <path fill="#D1D4D1" d="M75 25v5.276L52.138 53.138h-.88v-5.276h.88z"/>
            <path fill="#C5CCD4" d="M40.707 57.974v7.914a4.834 4.834 0 0 0 4.836 4.836h6.595V76H24v-5.276h6.595a4.834 4.834 0 0 0 4.836-4.836v-7.914a4.834 4.834 0 0 0-4.836-4.836H24v-5.276h28.138v5.276h-6.595a4.834 4.834 0 0 0-4.836 4.836z"/>
            <g fill="#95A5A5">
                <path d="M45.103 67.163a.87.87 0 0 1-.879-.88.88.88 0 0 1 1.759 0 .87.87 0 0 1-.88.88zM47.741 64.401a.88.88 0 0 1-.636-1.486l.88-.921a.88.88 0 0 1 1.272 1.214l-.88.921a.876.876 0 0 1-.636.272zM51.259 60.717a.88.88 0 0 1-.637-1.487l.88-.921a.88.88 0 0 1 1.272 1.214l-.88.922a.877.877 0 0 1-.635.272zM54.776 57.032a.88.88 0 0 1-.636-1.486l.879-.922a.88.88 0 0 1 1.273 1.215l-.88.921a.877.877 0 0 1-.636.272zM58.293 53.347a.88.88 0 0 1-.636-1.486l.88-.921a.88.88 0 0 1 1.272 1.214l-.88.921a.876.876 0 0 1-.636.272zM61.81 49.664a.879.879 0 0 1-.624-.263.835.835 0 0 1-.255-.616.88.88 0 1 1 1.759 0 .837.837 0 0 1-.255.616.878.878 0 0 1-.625.263z"/>
            </g>
        </g>
    </g>
</svg>
