<svg xmlns="http://www.w3.org/2000/svg" width="100" height="100" viewBox="0 0 100 100">
    <g fill="none" fill-rule="evenodd">
        <circle cx="50" cy="50" r="50" fill="#C4E5DF"/>
        <path fill="#51646F" d="M49.289 53.04a.86.86 0 0 1-.865-.857V50.17c0-2.058 1.69-3.733 3.768-3.733h18.183a2.031 2.031 0 0 0 2.038-2.02v-6.814c0-1.114-.914-2.02-2.038-2.02h-42.51a.86.86 0 0 1-.865-.857.86.86 0 0 1 .865-.856h42.51c2.077 0 3.767 1.674 3.767 3.733v6.815c0 2.058-1.69 3.732-3.767 3.732H52.192a2.031 2.031 0 0 0-2.039 2.02v2.014a.86.86 0 0 1-.864.857"/>
        <path fill="#F1F4F5" d="M66.263 27H32.314a2.118 2.118 0 0 0-2.127 2.108v11.235c0 1.164.953 2.108 2.128 2.108h33.949a2.118 2.118 0 0 0 2.127-2.108V29.108A2.118 2.118 0 0 0 66.263 27"/>
        <path fill="#DDE8EB" d="M66.263 38.865H32.314a2.118 2.118 0 0 1-2.127-2.108v3.586c0 1.164.953 2.108 2.127 2.108h33.95a2.118 2.118 0 0 0 2.127-2.108v-3.586a2.118 2.118 0 0 1-2.128 2.108"/>
        <path fill="#56B8DC" d="M68.39 29.108v2.99c-6.367 0-6.367 4.636-12.734 4.636s-6.367-4.636-12.734-4.636c-6.368 0-6.368 4.636-12.735 4.636v-7.626c0-1.164.953-2.108 2.127-2.108h33.95c1.174 0 2.127.944 2.127 2.108"/>
        <path fill="#FFEABF" d="M52.996 73.513A1.462 1.462 0 0 1 51.528 75H47.05a1.462 1.462 0 0 1-1.468-1.487l.453-21.33h6.507l.454 21.33"/>
        <path fill="#CE9C87" d="M47.656 73.513l.454-21.33h-2.075l-.453 21.33A1.462 1.462 0 0 0 47.05 75h2.075a1.462 1.462 0 0 1-1.469-1.487"/>
        <path fill="#DBB6A6" d="M52.542 53.04h-6.507a.86.86 0 0 1-.864-.857.86.86 0 0 1 .864-.856h6.507a.86.86 0 0 1 .865.856.86.86 0 0 1-.865.857"/>
    </g>
</svg>
