<svg xmlns="http://www.w3.org/2000/svg" xmlns:xlink="http://www.w3.org/1999/xlink" width="314" height="274" viewBox="0 0 314 274">
    <defs>
        <path id="a" d="M3.528 0h306.786a3.528 3.528 0 0 1 3.528 3.528v269.805H0V3.528A3.528 3.528 0 0 1 3.528 0z"/>
        <path id="c" d="M8.746 30.665L0 0c7.013 4.773 13.773 7.159 20.282 7.159C30.046 7.159 40.374 0 47.98 0c5.07 0 12.232 1.508 21.484 4.525l-10.22 26.14H8.746z"/>
    </defs>
    <g fill="none" fill-rule="evenodd">
        <mask id="b" fill="#fff">
            <use xlink:href="#a"/>
        </mask>
        <use fill="#E4D4DF" fill-rule="nonzero" xlink:href="#a"/>
        <g fill-rule="nonzero" mask="url(#b)">
            <path fill="#FFF" d="M252.344 73.97a22.747 22.747 0 0 0-9.91 18.828c0 12.54 10.065 22.707 22.48 22.707 12.416 0 22.48-10.166 22.48-22.707a22.749 22.749 0 0 0-9.43-18.493c-.055-.32-.192-.658-.421-1.014-3.092-4.783-4.49-8.934-4.195-12.452h-17.404c.026 3.518-1.1 7.669-3.38 12.452-.111.234-.184.46-.22.678z"/>
            <path stroke="#9A3D81" stroke-linejoin="round" stroke-width="3.528" d="M262.472 60.839c-.854 12.186-1.656 20.122-2.406 23.806 4.46-2.864 6.498-2.864 10.579 0-1.797-6.894-2.787-14.83-2.97-23.806"/>
            <path fill="#4A4A4A" d="M269.763 54.604V51.14h-9.55v3.464h-3.674v6.235h17.632v-6.235h-4.408z"/>
            <g fill="#FFF" stroke="#FFF" stroke-linecap="round" stroke-width="5.292">
                <path d="M246.958 118.15l-4.408 4.41M264.657 123v4.85M281.224 118.15l4.408 4.41"/>
            </g>
            <path stroke="#4A4A4A" stroke-linecap="square" stroke-width="1.764" d="M264.694 52.462V.441"/>
        </g>
        <g mask="url(#b)">
            <g transform="translate(5.29 192.215)">
                <mask id="d" fill="#fff">
                    <use xlink:href="#c"/>
                </mask>
                <use fill="#FFF" fill-rule="nonzero" xlink:href="#c"/>
                <path fill="#F4F2F2" fill-rule="nonzero" d="M-7.934 14.594C7.615 4.24 16.717-3.706 19.374-9.25c4.688 3.792 8.403 12.554 11.144 26.287l-38.452-2.443z" mask="url(#d)" transform="matrix(1 0 0 -1 0 7.787)"/>
            </g>
            <path fill="#F4F2F2" fill-rule="nonzero" d="M22.921 216.94c20.278-7.333 31.254-15.28 32.926-23.843 5.653 3.792 4.77 15.719-2.647 35.781L22.92 216.94z"/>
            <path fill="#9A3D81" fill-rule="nonzero" d="M-3.412 213.376h86.166c1.572 0 2.143.164 2.717.472a3.206 3.206 0 0 1 1.334 1.333c.308.575.471 1.145.471 2.718v39.45c0 1.572-.163 2.142-.47 2.717a3.206 3.206 0 0 1-1.335 1.334c-.574.307-1.145.471-2.717.471H-3.412c-1.572 0-2.142-.164-2.717-.471a3.206 3.206 0 0 1-1.334-1.334c-.307-.575-.471-1.145-.471-2.718V217.9c0-1.573.164-2.143.471-2.718a3.206 3.206 0 0 1 1.334-1.333c.575-.308 1.145-.472 2.717-.472z"/>
        </g>
        <g fill="#4A4A4A">
            <g fill-rule="nonzero">
                <path d="M141.746 167.941l-7.227 4.283c-.591.35-1.233.444-1.594.231l-1.33-.783c-.465-.274-.317-.956.33-1.524.127-.112.268-.214.417-.303l8.62-5.108c.76-.45 1.567-.46 1.801-.019a.58.58 0 0 1 .063.297l-.062 1.61c-.016.436-.426.966-1.018 1.316zM141.746 159.124l-7.227 4.283c-.591.35-1.233.444-1.594.231l-1.33-.784c-.465-.273-.317-.955.33-1.523.127-.112.268-.214.417-.303l8.62-5.108c.76-.451 1.567-.46 1.801-.02a.58.58 0 0 1 .063.298l-.062 1.61c-.016.436-.426.966-1.018 1.316z"/>
                <path d="M139.685 146.797v29.18a5.292 5.292 0 0 1-1.72 3.903l-.555.509c-.486.726-1.022-.557-1.197-2.868-.022-.303-.04-10.703-.055-31.201l3.527.477z"/>
                <path d="M150.375 183.87a.713.713 0 0 0-.112-.048c-.575-.197-1-.605-1.276-1.224v-31.191c0-1.18-.123-1.608-.354-2.039a2.404 2.404 0 0 0-1-1c-.431-.23-.859-.353-2.038-.353h-17.019c-1.18 0-1.607.122-2.038.353-.431.23-.77.57-1 1-.231.431-.354.86-.354 2.039v31.165c0 .676-.235 1.24-.705 1.691a6.411 6.411 0 0 1-2.751-2.712c-.615-1.15-.943-2.29-.943-5.435v-23.707c0-3.145.328-4.286.943-5.436a6.411 6.411 0 0 1 2.667-2.667c1.15-.615 2.29-.942 5.436-.942h14.528c3.145 0 4.285.327 5.435.942a6.411 6.411 0 0 1 2.667 2.667c.615 1.15.943 2.29.943 5.436v23.707c0 3.145-.328 4.286-.943 5.436a6.398 6.398 0 0 1-2.086 2.318zm-6.016 1.291H129.83h14.528z"/>
            </g>
            <g fill-rule="nonzero">
                <path d="M189.27 165.763h3.183c2.359 0 3.214.246 4.077.707a4.809 4.809 0 0 1 2 2c.461.863.707 1.719.707 4.077v4.067c0 2.359-.246 3.214-.707 4.077a4.809 4.809 0 0 1-2 2c-.863.461-1.718.707-4.077.707h-3.182c-2.36 0-3.214-.246-4.077-.707a4.809 4.809 0 0 1-2-2c-.462-.863-.707-1.718-.707-4.077v-4.067c0-2.358.245-3.214.707-4.076a4.809 4.809 0 0 1 2-2c.863-.462 1.718-.708 4.077-.708zm.135 3.527c-1.18 0-1.607.123-2.038.354-.431.23-.77.569-1 1-.231.431-.354.859-.354 2.038v3.797c0 1.18.123 1.607.354 2.038.23.432.569.77 1 1 .431.231.859.354 2.038.354h2.914c1.179 0 1.607-.123 2.038-.353.431-.231.77-.57 1-1 .23-.432.354-.86.354-2.04v-3.796c0-1.18-.123-1.607-.354-2.038a2.404 2.404 0 0 0-1-1c-.431-.23-.859-.354-2.038-.354h-2.914zM168.995 165.763h3.181c2.36 0 3.215.246 4.077.707a4.809 4.809 0 0 1 2 2c.462.863.708 1.719.708 4.077v4.067c0 2.359-.246 3.214-.707 4.077a4.809 4.809 0 0 1-2 2c-.863.461-1.719.707-4.078.707h-3.181c-2.36 0-3.215-.246-4.077-.707a4.809 4.809 0 0 1-2-2c-.462-.863-.707-1.718-.707-4.077v-4.067c0-2.358.245-3.214.706-4.076a4.809 4.809 0 0 1 2-2c.863-.462 1.719-.708 4.078-.708zm.134 3.527c-1.18 0-1.607.123-2.039.354-.43.23-.77.569-1 1-.23.431-.353.859-.353 2.038v3.797c0 1.18.123 1.607.353 2.038.23.432.57.77 1 1 .432.231.86.354 2.039.354h2.913c1.18 0 1.607-.123 2.039-.353.43-.231.77-.57 1-1 .23-.432.353-.86.353-2.04v-3.796c0-1.18-.123-1.607-.353-2.038a2.404 2.404 0 0 0-1-1c-.432-.23-.86-.354-2.039-.354h-2.913zM178.692 144.602h3.182c2.359 0 3.214.246 4.077.707a4.809 4.809 0 0 1 2 2c.461.863.707 1.718.707 4.077v4.067c0 2.358-.246 3.214-.707 4.076a4.809 4.809 0 0 1-2 2c-.863.462-1.718.708-4.077.708h-3.182c-2.359 0-3.214-.246-4.077-.707a4.809 4.809 0 0 1-2-2c-.461-.863-.707-1.719-.707-4.077v-4.067c0-2.359.246-3.214.707-4.077a4.809 4.809 0 0 1 2-2c.863-.461 1.718-.707 4.077-.707zm.134 3.527c-1.18 0-1.607.123-2.038.353-.431.231-.77.57-1 1-.231.432-.354.86-.354 2.04v3.796c0 1.18.123 1.607.354 2.038.23.431.569.77 1 1 .431.23.859.354 2.038.354h2.914c1.179 0 1.607-.123 2.038-.354.431-.23.77-.569 1-1 .23-.431.354-.859.354-2.038v-3.797c0-1.18-.123-1.607-.354-2.038a2.404 2.404 0 0 0-1-1c-.431-.231-.859-.354-2.038-.354h-2.914z"/>
            </g>
            <g transform="translate(114.605 88.172)">
                <path fill-rule="nonzero" d="M31.89 19.92l-8.401.096c-.688.008-1.29-.233-1.496-.597l-.76-1.344c-.266-.47.203-.986 1.047-1.155.166-.033.339-.051.513-.053l10.019-.114c.884-.01 1.587.386 1.57.884a.58.58 0 0 1-.095.289l-.858 1.362c-.233.37-.852.624-1.54.632z"/>
                <path fill-rule="nonzero" d="M25.67 24.342l-.104-10.082c-.008-.825.251-1.548.645-1.795l1.453-.914c.507-.318 1.065.245 1.247 1.258.036.199.055.407.058.616l.123 12.024c.01 1.062-.417 1.905-.955 1.884a.585.585 0 0 1-.313-.113l-1.472-1.03c-.4-.279-.674-1.023-.683-1.848z"/>
                <ellipse cx="27.329" cy="29.097" fill-rule="nonzero" rx="4.408" ry="4.409"/>
                <path fill-rule="nonzero" d="M21.77 3.953h11.117c2.359 0 3.214.245 4.077.707a4.809 4.809 0 0 1 2 2c.461.862.707 1.718.707 4.077v23.92c0 2.359-.246 3.214-.707 4.077a4.809 4.809 0 0 1-2 2c-.863.461-1.718.707-4.077.707H21.771c-2.36 0-3.214-.246-4.077-.707a4.809 4.809 0 0 1-2-2c-.462-.863-.707-1.718-.707-4.077v-23.92c0-2.36.245-3.215.707-4.077a4.809 4.809 0 0 1 2-2c.863-.462 1.718-.707 4.077-.707zm1.266 3.946c-1.573 0-2.143.164-2.718.471a3.206 3.206 0 0 0-1.334 1.334c-.307.575-.47 1.145-.47 2.718v20.97c0 1.572.163 2.142.47 2.717a3.206 3.206 0 0 0 1.334 1.334c.575.307 1.145.471 2.718.471h8.586c1.573 0 2.143-.164 2.718-.471a3.206 3.206 0 0 0 1.334-1.334c.307-.575.47-1.145.47-2.718v-20.97c0-1.572-.163-2.142-.47-2.717A3.206 3.206 0 0 0 34.34 8.37c-.575-.307-1.145-.47-2.718-.47h-8.586z"/>
                <path d="M12.914.152c.557-.77 1.842 1.594 1.842 2.476 0 .22-.025.477-.074.77-2.9 3.495-2.9 3.495-4.832 5.85-.302 1.148-.313 11.591-.032 31.332 0 1.028-3.085 1.028-3.085 0V13.16c-1.504 1.238-2.78 2.147-3.827 2.728-1.57.871-2.273.073-2.882-.256-.608-.328 10.409-12.056 12.89-15.48zM66.306 3.418c.26-.913 2.276.868 2.578 1.696.075.207.14.457.195.75-1.531 4.276-3.144 8.87-4.153 11.744.108 1.181 6.085 9.376 17.93 24.584.352.966-3.428 2.021-3.78 1.055L62.454 22.35c-5.182 12.531-7.284 19.249-8.069 20.152-1.178 1.356-2.993.846-3.677.746-.684-.1 14.439-35.762 15.6-39.83z"/>
            </g>
        </g>
    </g>
</svg>
