<svg xmlns="http://www.w3.org/2000/svg" xmlns:xlink="http://www.w3.org/1999/xlink" width="314" height="274" viewBox="0 0 314 274">
    <defs>
        <path id="a" d="M3.528 0h306.786a3.528 3.528 0 0 1 3.528 3.528v269.805H0V3.528A3.528 3.528 0 0 1 3.528 0z"/>
    </defs>
    <g fill="none" fill-rule="evenodd">
        <mask id="b" fill="#fff">
            <use xlink:href="#a"/>
        </mask>
        <use fill="#E5EEDA" fill-rule="nonzero" xlink:href="#a"/>
        <g fill-rule="nonzero" mask="url(#b)">
            <path fill="#4AA567" d="M-15.868 193.302c17.735-7.327 35.367-7.327 52.894 0v66.806c-20.095-6.28-37.726-6.28-52.894 0v-66.806zM37.026 193.302c17.736-7.327 35.368-7.327 52.895 0v66.806c-20.095-6.28-37.726-6.28-52.895 0v-66.806z"/>
            <path fill="#FFF" d="M-10.579 183.814c17.27-4.856 32.55-1.599 45.842 9.77v59.47c-17.415-5.59-32.696-5.59-45.842 0v-69.24zM38.79 193.167c15.37-11.878 30.651-14.58 45.842-8.109v67.114c-17.416-5.546-32.697-5.546-45.843 0v-59.005z"/>
            <g stroke="#D6D6D6" stroke-linecap="round" stroke-width="2.646">
                <path d="M-2.81 193.366c10.22-2.804 20.889-.484 32.01 6.96M-2.81 200.724c10.22-2.804 20.889-.485 32.01 6.96M-2.81 208.082c10.22-2.805 20.889-.485 32.01 6.96M-2.81 216.108c10.22-2.804 20.889-.484 32.01 6.96M-3.026 225.824c9.87-3.857 20.724-2.665 32.562 3.575M-3.07 234.316c9.576-4.536 20.486-4.104 32.73 1.295M-3.279 243.053c9.577-4.536 20.488-4.104 32.732 1.295"/>
            </g>
            <g stroke="#D6D6D6" stroke-linecap="round" stroke-width="2.646">
                <path d="M77.744 193.366c-10.219-2.804-20.889-.484-32.01 6.96M77.744 200.724c-10.219-2.804-20.889-.485-32.01 6.96M77.744 208.082c-10.219-2.805-20.889-.485-32.01 6.96M77.744 216.108c-10.219-2.804-20.889-.484-32.01 6.96M77.96 225.824c-9.87-3.857-20.724-2.665-32.562 3.575M78.005 234.316c-9.577-4.536-20.487-4.104-32.732 1.295M78.213 243.053c-9.577-4.536-20.487-4.104-32.732 1.295"/>
            </g>
            <g>
                <path fill="#4AA567" d="M79.272 230.067l-12.999-9.101 31.861-45.503 12.999 9.102z"/>
                <path fill="#4AA567" d="M63.664 234.148l4.097-13.77 11.554 8.09-11.538 8.56a2.646 2.646 0 0 1-4.113-2.88z"/>
                <path fill="#FFF" d="M84.834 222.123l-12.998-9.102 1.517-2.166 12.998 9.101zM88.88 216.345l-12.998-9.102 1.517-2.167 12.998 9.102z"/>
            </g>
        </g>
        <g fill="#4A4A4A" fill-rule="nonzero">
            <path d="M150.197 148.334l6.537-6.537a1.764 1.764 0 0 1 2.031-.333l2.5 1.24a1.764 1.764 0 0 1 .463 2.827l-7.796 7.797a1.764 1.764 0 0 1-2.828-.464l-1.24-2.499a1.764 1.764 0 0 1 .333-2.031zM150.197 162.441l6.537-6.537a1.764 1.764 0 0 1 2.031-.332l2.5 1.24a1.764 1.764 0 0 1 .463 2.827l-7.796 7.796a1.764 1.764 0 0 1-2.828-.463l-1.24-2.5a1.764 1.764 0 0 1 .333-2.03zM154.762 99.634l-16.672 16.002a1.764 1.764 0 0 0 1.221 3.037h36.019a1.764 1.764 0 0 0 1.203-3.054l-12.742-11.875a.882.882 0 0 1 .602-1.527h3.691c1.787 0 3.508.678 4.814 1.897l15.602 14.559a5.911 5.911 0 0 1-5.911 5.912h-51.37a5.152 5.152 0 0 1-5.096-5.912l18.45-19.039h-22.85a1.764 1.764 0 0 1-1.4-.69l-2.707-3.525a1.764 1.764 0 0 1 1.399-2.838h75.46a1.764 1.764 0 0 1 1.4 2.838l-2.708 3.526c-.334.435-.851.69-1.4.69h-37.005zM157.047 82.701l4.984-4.983-4.986-4.986-4.983 4.984 4.985 4.985zm-10.598-6.856l8.725-8.726a2.646 2.646 0 0 1 3.742 0l8.728 8.728a2.646 2.646 0 0 1 0 3.742l-8.726 8.725a2.646 2.646 0 0 1-3.742 0l-8.727-8.727a2.646 2.646 0 0 1 0-3.742zM178.96 179.042v-24.74h6.172v27.45a.882.882 0 0 1-.394.734 6.473 6.473 0 0 1-7.156 2.771l-21.104-5.728a1.764 1.764 0 0 1-1.302-1.653l-.078-2.789a1.764 1.764 0 0 1 2.25-1.745c14.053 4.033 21.195 5.981 21.426 5.843a1.98 1.98 0 0 0 .187-.143z"/>
            <path d="M134.882 170.91v12.238a1.764 1.764 0 0 1-2.831 1.404l-2.644-2.009a1.764 1.764 0 0 1-.697-1.404v-24.825c0-.051.002-.102.007-.153a49.492 49.492 0 0 1-.007-.823V140.92c0-3.932.41-5.358 1.178-6.795a8.014 8.014 0 0 1 3.334-3.334c1.438-.769 2.863-1.178 6.795-1.178h33.724c3.918 0 5.339.406 6.773 1.168a8.012 8.012 0 0 1 3.333 3.312c.772 1.43 1.186 2.848 1.21 6.765l.108 16.911a8.824 8.824 0 0 1-6.204 8.482v-24.813c0-1.965-.205-2.678-.59-3.397a4.007 4.007 0 0 0-1.667-1.667c-.718-.384-1.431-.59-3.397-.59h-32.772c-1.966 0-2.68.206-3.398.59a4.007 4.007 0 0 0-1.667 1.667c-.384.719-.589 1.432-.589 3.397v29.253l.001.22z"/>
        </g>
    </g>
</svg>
